<?xml version="1.0" encoding="utf-8"?>
<!-- Generator: Adobe Illustrator 23.0.2, SVG Export Plug-In . SVG Version: 6.00 Build 0)  -->
<svg version="1.1" id="Layer_1" xmlns="http://www.w3.org/2000/svg" xmlns:xlink="http://www.w3.org/1999/xlink" x="0px" y="0px"
	 viewBox="0 0 3710 3710" style="enable-background:new 0 0 3710 3710;" xml:space="preserve">
<style type="text/css">
	.st0{fill:#D9F1FF;}
	.st1{fill:#91B3FA;}
	.st2{fill:#FFFFFF;}
	.st3{fill:#BDD0FB;}
	.st4{fill:url(#SVGID_1_);}
	.st5{fill:url(#SVGID_2_);}
	.st6{opacity:0.58;fill:#FFFFFF;enable-background:new    ;}
	.st7{fill:url(#SVGID_3_);}
	.st8{fill:url(#SVGID_4_);}
	.st9{fill:url(#SVGID_5_);}
	.st10{opacity:0.61;}
	.st11{opacity:0.86;fill:#FFFFFF;enable-background:new    ;}
	.st12{opacity:0.9;}
	.st13{fill:url(#SVGID_6_);}
	.st14{opacity:0.2;fill:url(#SVGID_7_);enable-background:new    ;}
	.st15{opacity:0.3;fill:url(#SVGID_8_);enable-background:new    ;}
	.st16{opacity:0.2;fill:url(#SVGID_9_);enable-background:new    ;}
	.st17{opacity:0.3;fill:url(#SVGID_10_);enable-background:new    ;}
	.st18{opacity:0.2;fill:url(#SVGID_11_);enable-background:new    ;}
	.st19{opacity:0.3;fill:url(#SVGID_12_);enable-background:new    ;}
	.st20{fill:url(#SVGID_13_);}
	.st21{fill:url(#SVGID_14_);}
	.st22{fill:url(#SVGID_15_);}
	.st23{fill:url(#SVGID_16_);}
	.st24{fill:url(#SVGID_17_);}
	.st25{fill:url(#SVGID_18_);}
	.st26{fill:#7D97F4;}
	.st27{fill:url(#SVGID_19_);}
	.st28{fill:url(#SVGID_20_);}
	.st29{fill:url(#SVGID_21_);}
	.st30{fill:url(#SVGID_22_);}
	.st31{fill:url(#SVGID_23_);}
	.st32{fill:url(#SVGID_24_);}
	.st33{fill:url(#SVGID_25_);}
	.st34{fill:url(#SVGID_26_);}
	.st35{fill:url(#SVGID_27_);}
	.st36{fill:url(#SVGID_28_);}
	.st37{fill:url(#SVGID_29_);}
	.st38{fill:url(#SVGID_30_);}
	.st39{fill:url(#SVGID_31_);}
	.st40{fill:url(#SVGID_32_);}
	.st41{fill:url(#SVGID_33_);}
	.st42{fill:url(#SVGID_34_);}
	.st43{fill:url(#SVGID_35_);}
	.st44{fill:url(#SVGID_36_);}
	.st45{fill:url(#SVGID_37_);}
	.st46{fill:url(#SVGID_38_);}
	.st47{fill:url(#SVGID_39_);}
	.st48{fill:url(#SVGID_40_);}
	.st49{fill:url(#SVGID_41_);}
	.st50{fill:url(#SVGID_42_);}
</style>
<g id="Illustration">
	<g>
		<path class="st0" d="M2920.5,2850.1c-57,60-110.9,98.6-153.5,129.2c-500.6,359.2-1092.9,254.5-1218.8,228.9
			c-185.9-37.8-545.2-110.7-805-416.2c-393-462.2-331.8-1190.4-27-1671.1c55.8-87.9,350.3-575.9,949-654.2
			c362.3-47.4,784.7,48.2,1090.6,304.4C3397.9,1309,3352.2,2395.7,2920.5,2850.1z"/>
		<g>
			<g>
				<path class="st1" d="M2130.1,2388.4c8.4,26.7,41.3,36.2,62.9,18.3c118.8-98.8,429.3-408.5,423.2-941.7
					c-5.1-450.3,34.9-695,60.7-804.8c5.5-23.2-21.9-39.9-40.1-24.5C2436.2,805.9,1826.3,1420.4,2130.1,2388.4z"/>
				<path class="st2" d="M2168,2390.2c0.6,0.4,1.2,0.8,1.8,1.1c5.5,2.6,12,0.2,14.5-5.3c2.9-6.2,289.4-627.4,310.6-1253.9
					c0.2-6-4.5-11.1-10.6-11.3c-6-0.2-11.1,4.5-11.3,10.6c-21,621.9-305.7,1239.2-308.6,1245.4
					C2162.2,2381.6,2163.8,2387.2,2168,2390.2z"/>
			</g>
		</g>
		<g>
			<path class="st3" d="M3059.4,706.9c7.4-17.5-17.3-33.7-35.8-23.5c-187.2,103.7-649.5,429.1-659.7,1120.1
				c-8.5,576.7-128.1,892.2-294.5,1082.4c-47.9,54.7,13.5,135.9,79.4,105.3c99.6-46.3,206.6-112.7,302.1-207.6
				C3140,2099.3,2927.5,1018.5,3059.4,706.9z"/>
			<path class="st2" d="M2891.7,814.1c-32.2,89.2-62.2,179-88.2,269.6c-26.6,90.5-49.8,181.6-69.5,273.2
				c-19.3,91.7-36.5,183.7-48.9,276.3c-12.9,92.5-21,185.5-28.7,278.8c-8.3,93.3-16.1,187.2-35.6,280.7
				c-19.3,93.3-52.5,185.9-105.3,270.4c-13.2,21.1-26.9,42-42,62.1c-14.6,20.3-30.4,40-46.5,59.5c-32.6,38.9-68.4,76-107.4,110.7
				c-78.3,69.2-169.5,128.3-267.7,176.1c-10.3,5-23.8,2.1-30.1-6.5c-6.2-8.5-3.1-19.3,6.8-24.5h0.1c23.5-12.2,46.8-24.6,69.3-37.8
				c11.4-6.5,22.4-13.3,33.6-20c10.8-7,22-13.7,32.6-21.1c42.8-28.7,83.1-59.8,120.3-93.3c74.7-66.6,137.6-143,188.2-223.7
				c24.8-40.6,45.8-82.7,62.8-126.1c17-43.4,29.9-88,39.8-133.2c19.7-90.6,28.4-183.6,37.5-276.7c9.3-93.2,19.4-186.8,34.2-279.8
				c7.2-46.5,15.5-92.9,24.8-139.1c4.5-23.1,9.5-46.2,14.4-69.3c5.2-23,10.6-46,16.2-68.9c22.7-91.7,48.7-182.8,78.2-273
				c30-90.1,63-179.4,100-267.5c1.1-2.5,4.4-3.8,7.5-2.9C2891,809,2892.6,811.6,2891.7,814.1z"/>
		</g>
		<g>
			<g>
				
					<linearGradient id="SVGID_1_" gradientUnits="userSpaceOnUse" x1="2130.6331" y1="3890.1931" x2="1124.4622" y2="318.2862" gradientTransform="matrix(1 0 0 -1 0 3707.9055)">
					<stop  offset="0" style="stop-color:#09005D"/>
					<stop  offset="1" style="stop-color:#1A0F91"/>
				</linearGradient>
				<path class="st4" d="M2175.9,738.9l-1419,61.4c-78.3,3.4-140.2,67.5-140.8,145.9l-15.7,2061.9c-0.5,61.3,49.9,110.8,111.2,109.3
					l1627.7-40.8c57.6-1.4,102.8-49.9,100.3-107.4L2350,898.5C2346,806.4,2268,734.9,2175.9,738.9z"/>
				<path class="st2" d="M2100.1,3051.9c-2.2,0.1-4-1.5-4.1-3.7s1.5-4,3.7-4.1l181.9-10.2c56.6-3.2,100.6-51.8,98.1-108.4
					l-11.9-274.8c-0.1-2.2,1.6-4,3.7-4.1l0,0c2.2-0.1,4,1.6,4.1,3.8l11.9,274.8c2.6,60.9-44.7,113.2-105.6,116.6L2100.1,3051.9
					L2100.1,3051.9z"/>
				<path class="st2" d="M2368.3,2569.2C2368.3,2569.2,2368.2,2569.2,2368.3,2569.2c-2.2,0.1-4-1.6-4.1-3.8l-1.9-44.5
					c-0.1-2.2,1.6-4,3.7-4.1l0,0c2.2-0.1,4,1.6,4.1,3.8l1.9,44.5C2372.1,2567.3,2370.4,2569.1,2368.3,2569.2z"/>
				<g>
					
						<linearGradient id="SVGID_2_" gradientUnits="userSpaceOnUse" x1="2941.4045" y1="3269.0835" x2="-298.4828" y2="-81.4795" gradientTransform="matrix(1 0 0 -1 0 3707.9055)">
						<stop  offset="0" style="stop-color:#FF928E"/>
						<stop  offset="1" style="stop-color:#FE7062"/>
					</linearGradient>
					<path class="st5" d="M2170.8,722.4C1978.2,757,1315.3,867.2,762.5,848.7c-25.2-0.8-46.2,19.1-46.4,44.4l-20.4,2071.3
						c-0.3,28.4,22.4,51.7,50.8,52.1c232.3,3.7,1188.9,15.4,1527.7-35c20.6-3.1,35.6-21.2,34.8-42l-81.2-2171.1
						C2226.8,738.8,2199.8,717.2,2170.8,722.4z"/>
					<path class="st6" d="M2152.4,776.9C1967,810.2,1329.1,916.2,797.1,898.5c-24.3-0.8-44.5,18.4-44.7,42.7l-19.6,1993.3
						c-0.3,27.3,21.6,49.7,48.9,50.2c223.6,3.5,1144.1,14.8,1470.2-33.7c19.8-3,34.3-20.4,33.5-40.4l-78.1-2089.4
						C2206.2,792.7,2180.3,771.9,2152.4,776.9z"/>
				</g>
				
					<linearGradient id="SVGID_3_" gradientUnits="userSpaceOnUse" x1="1986.8059" y1="3045.4089" x2="1351.9952" y2="2210.3303" gradientTransform="matrix(0.8977 0.4406 0.4406 -0.8977 -1344.4739 2273.656)">
					<stop  offset="0" style="stop-color:#09005D"/>
					<stop  offset="1" style="stop-color:#1A0F91"/>
				</linearGradient>
				<path class="st7" d="M1372.1,695.1l160.4-21.3l7.1-148.3c1.4-29.8-18.3-56.7-47.3-63.9c-31.8-7.9-76.4-6.7-126.1,31.2
					C1268.7,567.2,1372.1,695.1,1372.1,695.1z M1400.3,570.6c-1-22.2,16.2-40.9,38.4-41.9c22.2-1,40.9,16.2,41.9,38.4
					s-16.2,40.9-38.4,41.9S1401.3,592.7,1400.3,570.6z"/>
				<g>
					<path class="st3" d="M1513.1,616.5c-4.4-0.2-7.8-3.9-7.6-8.3l1.1-23.6c0.2-4.4,4-7.8,8.4-7.6s7.8,3.9,7.6,8.4l-1.1,23.6
						c-0.2,3.2-2.2,5.8-4.9,7C1515.5,616.3,1514.4,616.5,1513.1,616.5z M1515.4,570.2c-4.4-0.2-7.8-3.9-7.6-8.3l0.9-17.9
						c1.1-22.8-14.1-43.3-36.1-48.8c-17.5-4.4-35.4-4.3-53.2,0.1c-4.3,1.1-8.6-1.5-9.7-5.8s1.6-8.6,5.8-9.7
						c20.3-5.1,40.8-5.1,60.9-0.1c29.4,7.3,49.6,34.6,48.2,65l-0.9,17.9c-0.2,3.2-2.2,5.8-4.9,7
						C1517.8,570,1516.6,570.3,1515.4,570.2z"/>
				</g>
				
					<linearGradient id="SVGID_4_" gradientUnits="userSpaceOnUse" x1="1665.7448" y1="-163.7574" x2="1012.3533" y2="-1023.279" gradientTransform="matrix(-0.999 4.330000e-02 -4.330000e-02 -0.999 2786.4414 109.7211)">
					<stop  offset="0" style="stop-color:#09005D"/>
					<stop  offset="1" style="stop-color:#1A0F91"/>
				</linearGradient>
				<path class="st8" d="M1756.3,759.8l-3.2-74.3c-1.1-25.6-23.2-45.2-48.8-43.3l-511.2,39.7c-22.7,1.8-40.3,20.5-40.7,43.2
					l-1.2,71.5L1756.3,759.8z"/>
				<path class="st3" d="M1583.5,675.5L1583.5,675.5l-22.1,1c-2.2,0.1-4-1.6-4.1-3.8s1.6-4,3.7-4.1l0,0l22-1c2.2-0.1,4,1.6,4.1,3.8
					C1587.4,673.6,1585.7,675.4,1583.5,675.5z"/>
				<path class="st3" d="M1730.5,741.1c3-1.3,5.1-4.3,4.9-7.7l-1.3-30c-0.5-12.3-5.8-23.7-14.9-32.1c-9.1-8.3-20.9-12.7-33.2-12.1
					l-80.9,3.5c-4.4,0.2-7.8,3.9-7.6,8.3c0.2,4.4,3.9,7.8,8.3,7.6l80.9-3.5c16.7-0.7,30.8,12.3,31.5,28.9l1.3,30
					c0.2,4.4,3.9,7.8,8.3,7.6C1728.8,741.7,1729.7,741.5,1730.5,741.1z"/>
				
					<linearGradient id="SVGID_5_" gradientUnits="userSpaceOnUse" x1="1733.1675" y1="4155.3647" x2="1599.024" y2="3524.8916" gradientTransform="matrix(1 0 0 -1 0 3707.9055)">
					<stop  offset="0" style="stop-color:#09005D"/>
					<stop  offset="1" style="stop-color:#1A0F91"/>
				</linearGradient>
				<path class="st9" d="M1915.6,725.6l-895.2,38.7c-32.2,1.4-58.7,25.7-62.8,57.7l-0.6,4.4c-4.5,35,23.6,65.6,58.9,64.1l918.4-39.8
					c21.1-0.9,37.2-19.3,35.2-40.3l-3.8-41C1963.4,743.8,1941.3,724.5,1915.6,725.6z"/>
			</g>
			<g>
				<g class="st10">
					<path class="st2" d="M1519.9,2697l730-9.5c14.4-0.2,25.2-9.9,24-21.7l-0.2-2.2c-1.2-11.7-13.8-21.1-28.2-20.9l-727.6,9.8
						c-14.2,0.2-25.3,9.8-24.8,21.5l0.1,2.2C1493.7,2687.8,1505.7,2697.2,1519.9,2697z"/>
					<path class="st2" d="M2257.1,2759.8l-734,9.1c-14.3,0.2-25.5,9.9-25,21.8l0.1,2.3c0.5,11.9,12.6,21.4,27,21.3l736.6-8.9
						c14.6-0.2,25.4-10,24.2-22l-0.2-2.3C2284.4,2769.1,2271.7,2759.6,2257.1,2759.8z"/>
					<path class="st2" d="M1514.7,2457.5l730-9.5c14.4-0.2,25.2-9.9,24-21.7l-0.2-2.2c-1.2-11.7-13.8-21.1-28.2-20.9l-727.6,9.8
						c-14.2,0.2-25.3,9.8-24.8,21.5l0.1,2.2C1488.5,2448.3,1500.4,2457.7,1514.7,2457.5z"/>
					<path class="st2" d="M2251.9,2520.3l-734,9.1c-14.3,0.2-25.5,9.9-25,21.8l0.1,2.3c0.5,11.9,12.6,21.4,27,21.3l736.6-8.9
						c14.6-0.2,25.4-10,24.2-22l-0.2-2.3C2279.2,2529.6,2266.4,2520.1,2251.9,2520.3z"/>
				</g>
			</g>
			<path class="st2" d="M1664.2,1010.7c0.2,12.5-6.3,22.8-14.5,23l-803.1,19c-9,0.2-16.5-10.3-16.7-23.4v-2
				c-0.2-13.1,6.8-23.9,15.8-24.1l803.4-16.7c8.2-0.2,14.9,9.8,15.1,22.3V1010.7z"/>
			<path class="st2" d="M2138.6,1121.3c0.2,12.5-10.2,22.8-23,23.1L849,1173.8c-14.2,0.3-25.9-10-26.2-23.1v-2
				c-0.3-13.1,11-24,25.1-24.3l1267.2-27.2c12.9-0.3,23.4,9.6,23.6,22.1L2138.6,1121.3z"/>
			<g>
				<path class="st2" d="M1254.9,1716.9c0,0,7.8-26.2,25.9-28.9c18.1-2.7,33.6-5.4,38.8,12.9c5.2,18.2,0,39.2-33.6,42
					C1252.3,1745.8,1254.9,1716.9,1254.9,1716.9z"/>
				<path class="st2" d="M1288.6,1627.9c0,0,18.1-7.9,23.3,7.8c5.2,15.7,5.2,33.9-12.9,44.4s-38.8,8-44-15.5
					C1249.7,1641,1273,1630.5,1288.6,1627.9z"/>
				<path class="st2" d="M1241.9,1614.8c-5.1-8.6-10.4-31.4,5.2-41.9c20.4-13.7,31.1-18.3,41.5-7.8c10.3,10.5,22.1,40.3,5.2,54.9
					C1275.6,1635.7,1253.4,1634.1,1241.9,1614.8z"/>
				<path class="st2" d="M1244.1,1564.4c-4.3,0.6-8.8-0.5-12.2-3.4c-2.3-2-4.6-4.9-5.6-9.1c-2.6-10.5,15.6-28.8,31.2-34
					s33.4,12.9,20.7,28.8C1268.7,1558.8,1261.3,1562,1244.1,1564.4z"/>
				<path class="st2" d="M1210.7,1523c0,0-7.8-18.4,2.6-31.5s18.2-20.9,31.2-15.6s26,23.7,10.4,36.7
					C1239.3,1525.8,1221.1,1536.2,1210.7,1523z"/>
				<path class="st2" d="M1193.9,1489.1c-2.9-0.7-5.2-2.8-6.3-5.6c-2.3-5.8-4.9-17,2.1-29.2c10.3-18,15.4-23.1,28.2-15.3
					c12.8,7.8,17.9,15.6,15.3,23.3c-2.6,7.7-15.3,20.5-23,25.6C1205.3,1491.2,1198.3,1490.3,1193.9,1489.1z"/>
				<path class="st2" d="M1159.4,1417.9c0,0,5.4-13.6,21.8-2.5c16.3,11.1,21.7,13.8,16.3,22c-5.4,8.2-16.3,27.2-32.6,24.4
					C1148.5,1458.9,1148.5,1434.3,1159.4,1417.9z"/>
				<path class="st2" d="M1124.3,1449c-7.9-0.1-10.5-5.3-13.1-15.9s-2.6-31.7,0-36.9c2.6-5.2,13.1-2.5,23.7,0.2
					c10.5,2.7,21,5.5,21,10.7S1151.1,1449.1,1124.3,1449z"/>
				<path class="st2" d="M962.6,1718.5c0,0-8-26.5-26.7-29.1s-34.8-5.2-40.2,13.5s0,39.9,34.8,42.4
					C965.2,1747.7,962.6,1718.5,962.6,1718.5z"/>
				<path class="st2" d="M927.8,1628.3c0,0-18.7-8-24.1,8c-5.4,16-5.4,34.6,13.4,45.2c18.7,10.6,40.1,7.8,45.4-16.1
					C967.9,1641.5,943.9,1631,927.8,1628.3z"/>
				<path class="st2" d="M975.9,1615c5.3-8.7,10.7-31.8-5.3-42.4c-20.9-13.9-32-18.6-42.7-8s-22.9,40.9-5.4,55.8
					C941.2,1636.3,964.1,1634.6,975.9,1615z"/>
				<path class="st2" d="M973.6,1564c4.5,0.6,9.1-0.5,12.5-3.4c2.4-2,4.7-5,5.7-9.2c2.7-10.6-16-29.2-32-34.6s-34.4,12.9-21.4,29.1
					C948.3,1558.2,955.9,1561.4,973.6,1564z"/>
				<path class="st2" d="M1007.8,1522.3c0,0,8-18.5-2.7-31.8c-10.6-13.3-18.6-21.3-31.9-16.1c-13.3,5.2-26.7,23.7-10.7,37.1
					C978.6,1524.8,997.2,1535.5,1007.8,1522.3z"/>
				<path class="st2" d="M1024.9,1488.3c2.9-0.7,5.3-2.8,6.4-5.6c2.4-5.8,4.9-17-2.2-29.5c-10.4-18.3-15.6-23.5-28.7-15.8
					c-13.1,7.7-18.3,15.5-15.7,23.3s15.7,20.9,23.5,26.2C1013.3,1490.2,1020.4,1489.3,1024.9,1488.3z"/>
				<path class="st2" d="M1059.8,1417.1c0,0-5.5-13.8-22-2.9c-16.6,10.9-22.1,13.6-16.6,21.9s16.6,27.6,33.1,25
					C1070.7,1458.4,1070.7,1433.6,1059.8,1417.1z"/>
				<path class="st2" d="M1095.1,1448.7c7.9,0.1,10.5-5.2,13.2-15.7c2.6-10.5,2.6-31.6,0-36.9s-13.2-2.8-23.7-0.2
					c-10.6,2.5-21.1,5.1-21.1,10.4S1068.2,1448.6,1095.1,1448.7z"/>
				<path class="st2" d="M1254.9,1795.2c0,0,7.8,26.1,25.9,28.5s33.6,4.9,38.8-13.5c5.2-18.3,0-39.2-33.6-41.5
					C1252.3,1766.5,1254.9,1795.2,1254.9,1795.2z"/>
				<path class="st2" d="M1288.6,1883.8c0,0,18.1,7.6,23.3-8.1c5.2-15.7,5.2-34-12.9-44.3s-38.8-7.4-44,16.2
					C1249.7,1871.2,1273,1881.4,1288.6,1883.8z"/>
				<path class="st2" d="M1241.9,1897.5c-5.1,8.7-10.4,31.6,5.2,41.8c20.4,13.4,31.1,17.8,41.5,7.2c10.3-10.6,22.1-40.6,5.2-55
					C1275.6,1876.1,1253.4,1878.1,1241.9,1897.5z"/>
				<path class="st2" d="M1244.1,1947.9c-4.3-0.6-8.8,0.7-12.2,3.6c-2.3,2-4.6,5-5.6,9.2c-2.6,10.5,15.6,28.6,31.2,33.5
					s33.4-13.4,20.7-29.2C1268.7,1953.2,1261.3,1950.1,1244.1,1947.9z"/>
				<path class="st2" d="M1210.7,1989.8c0,0-7.8,18.5,2.6,31.4s18.2,20.6,31.2,15.1s26-24.1,10.4-36.9
					C1239.3,1986.7,1221.1,1976.5,1210.7,1989.8z"/>
				<path class="st2" d="M1193.9,2023.9c-2.9,0.8-5.2,2.9-6.3,5.7c-2.3,5.9-4.9,17,2.1,29.2c10.3,17.8,15.4,22.9,28.2,14.8
					c12.8-8,17.9-15.8,15.3-23.5s-15.3-20.3-23-25.3C1205.3,2021.7,1198.3,2022.7,1193.9,2023.9z"/>
				<path class="st2" d="M1159.4,2095.6c0,0,5.4,13.6,21.8,2.2c16.3-11.3,21.7-14.2,16.3-22.2c-5.4-8.1-16.3-27-32.6-23.9
					C1148.5,2054.8,1148.5,2079.5,1159.4,2095.6z"/>
				<path class="st2" d="M1124.3,2065.1c-7.9,0.2-10.5,5.5-13.1,16.1s-2.6,31.7,0,36.9s13.1,2.3,23.7-0.6c10.5-2.9,21-5.8,21-11
					S1151.1,2064.5,1124.3,2065.1z"/>
				<path class="st2" d="M962.6,1797.9c0,0-8,26.6-26.7,29.5s-34.8,5.7-40.2-12.9s0-39.9,34.8-42.9
					C965.2,1768.7,962.6,1797.9,962.6,1797.9z"/>
				<path class="st2" d="M927.8,1888.6c0,0-18.7,8.2-24.1-7.7c-5.4-15.9-5.4-34.5,13.4-45.4c18.7-10.8,40.1-8.4,45.4,15.4
					C967.9,1874.8,943.9,1885.7,927.8,1888.6z"/>
				<path class="st2" d="M975.9,1901.2c5.3,8.6,10.7,31.7-5.3,42.5c-20.9,14.2-32,19.1-42.7,8.7c-10.7-10.5-22.9-40.6-5.4-55.8
					C941.2,1880.5,964.1,1881.8,975.9,1901.2z"/>
				<path class="st2" d="M973.6,1952.3c4.5-0.7,9.1,0.4,12.5,3.2c2.4,2,4.7,4.9,5.7,9.1c2.7,10.6-16,29.4-32,35
					s-34.4-12.4-21.4-28.8C948.3,1958.5,955.9,1955.1,973.6,1952.3z"/>
				<path class="st2" d="M1007.8,1993.5c0,0,8,18.4-2.7,31.8c-10.6,13.5-18.6,21.6-31.9,16.5c-13.3-5-26.7-23.4-10.7-36.9
					C978.6,1991.4,997.2,1980.4,1007.8,1993.5z"/>
				<path class="st2" d="M1024.9,2027.3c2.9,0.7,5.3,2.7,6.4,5.5c2.4,5.8,4.9,17-2.2,29.5c-10.4,18.4-15.6,23.7-28.7,16.2
					c-13.1-7.5-18.3-15.2-15.7-23.1c2.6-7.9,15.7-21.1,23.5-26.5C1013.3,2025.5,1020.4,2026.3,1024.9,2027.3z"/>
				<path class="st2" d="M1059.8,2098c0,0-5.5,13.9-22,3.3c-16.6-10.6-22.1-13.3-16.6-21.7s16.6-27.9,33.1-25.5
					C1070.7,2056.5,1070.7,2081.2,1059.8,2098z"/>
				<path class="st2" d="M1095.1,2065.8c7.9-0.2,10.5,5,13.2,15.5c2.6,10.5,2.6,31.6,0,36.9c-2.6,5.3-13.2,3-23.7,0.6
					c-10.6-2.4-21.1-4.8-21.1-10.1S1068.2,2066.3,1095.1,2065.8z"/>
			</g>
			<path class="st11" d="M852.9,2195.4c-9.3,0-18.1-3.5-24.8-10.1c-7-6.8-10.9-15.9-10.9-25.7V1340c0-15.9,12.4-29.2,28.3-30.3h0.1
				l510.9-14.1c13.9-0.3,27.1,4.8,37,14.4c10,9.7,15.5,22.7,15.5,36.6l0.4,769.4c0,34-26.6,61.5-60.6,62.7l-494.7,16.6
				C853.8,2195.4,853.4,2195.4,852.9,2195.4z M845.9,1316.4c-12.3,0.9-22,11.3-22,23.6v819.6c0,8,3.2,15.4,8.9,20.9
				s13.2,8.4,21.2,8.2l494.7-16.6c30.3-1,54.1-25.6,54.1-56l-0.4-769.4c0-12.1-4.8-23.4-13.4-31.8s-20-12.9-32.2-12.6L845.9,1316.4z
				"/>
			<g class="st12">
				<path class="st2" d="M1498.4,1677.6l641.1-7.9c12.7-0.2,22.1-9.8,21-21.6l-0.2-2.2c-1.1-11.7-12.2-21.1-24.8-21l-639,8.2
					c-12.5,0.2-22.2,9.7-21.7,21.4l0.1,2.2C1475.4,1668.4,1485.9,1677.7,1498.4,1677.6z"/>
				<path class="st2" d="M2146,1742l-644.6,7.5c-12.6,0.1-22.4,9.9-21.9,21.8l0.1,2.3c0.5,11.9,11.1,21.5,23.7,21.3l646.9-7.2
					c12.8-0.1,22.3-10,21.2-22l-0.2-2.3C2170,1751.4,2158.8,1741.9,2146,1742z"/>
				<path class="st2" d="M1500.5,1933.1l641.1-7.9c12.7-0.2,22.1-9.8,21-21.6l-0.2-2.2c-1.1-11.7-12.2-21.1-24.8-21l-639,8.2
					c-12.5,0.2-22.2,9.7-21.7,21.4l0.1,2.2C1477.4,1923.9,1488,1933.2,1500.5,1933.1z"/>
				<path class="st2" d="M2148.1,1997.5l-644.6,7.5c-12.6,0.1-22.4,9.9-21.9,21.8l0.1,2.3c0.5,11.9,11.1,21.5,23.7,21.3l646.9-7.2
					c12.8-0.1,22.3-10,21.2-22l-0.2-2.3C2172.1,2006.9,2160.8,1997.4,2148.1,1997.5z"/>
				<path class="st2" d="M1493.3,1438.1l641.1-7.9c12.7-0.2,22.1-9.8,21-21.6l-0.2-2.2c-1.1-11.7-12.2-21.1-24.8-21l-639,8.2
					c-12.5,0.2-22.2,9.7-21.7,21.4l0.1,2.2C1470.3,1428.9,1480.8,1438.3,1493.3,1438.1z"/>
				<path class="st2" d="M2140.9,1502.5l-644.6,7.5c-12.6,0.1-22.4,9.9-21.9,21.8l0.1,2.3c0.5,11.9,11.1,21.5,23.7,21.3l646.9-7.2
					c12.8-0.1,22.3-10,21.2-22l-0.2-2.3C2164.9,1511.9,2153.7,1502.4,2140.9,1502.5z"/>
			</g>
		</g>
		<g>
			
				<linearGradient id="SVGID_6_" gradientUnits="userSpaceOnUse" x1="2226.4678" y1="3573.4985" x2="2072.6008" y2="2188.6973" gradientTransform="matrix(1 0 0 -1 0 3707.9055)">
				<stop  offset="0" style="stop-color:#E1473D"/>
				<stop  offset="1" style="stop-color:#E9605A"/>
			</linearGradient>
			<path class="st13" d="M2779.3,3174.6H1066c-26.5,0-47.9-33.6-47.9-75.1v-311.7c0-74.2,38.4-134.3,85.7-134.3
				c149.5-36.7,297-32,442.2,17.9c177.5-33.4,355.4-33.3,533.5,0c193.5-56.6,416.1-52.1,652.9-17.9c41.8,0,75.7,53.1,75.7,118.6
				v357.3C2808.1,3154.4,2795.2,3174.6,2779.3,3174.6z"/>
			<g>
				<g>
					<path class="st2" d="M1588,2575.7c0,0,5.5,402.9-81.7,434.1c-7.1,2.5-13.4,2.5-18.9,0.4c-62.1-24-32-319.4-114.6-339.4h-89.4
						c-89.9,21.7-46.2,370.1-133.4,339c-4.9-1.7-9.5-4.7-13.8-8.6c-0.3-0.3-0.6-0.5-0.9-0.8c-71.8-68.6-66.9-424.7-66.9-424.7
						c-74.9-120.8-55.7-284.7-55.7-284.7c-6.8-101.3,117.5-186.1,189.7-141.9c44.3,27.1,94,38.3,125.8,42.9
						c26.3-3.8,64.8-12.1,102.4-30.2c7.9-3.8,15.7-8,23.4-12.7c72.2-44.2,196.5,40.6,189.7,141.9
						C1643.7,2290.9,1662.9,2454.8,1588,2575.7z"/>
					
						<linearGradient id="SVGID_7_" gradientUnits="userSpaceOnUse" x1="1430.6" y1="1133.5406" x2="1645.9054" y2="1133.5406" gradientTransform="matrix(1 0 0 -1 0 3707.9055)">
						<stop  offset="0" style="stop-color:#53D8FF"/>
						<stop  offset="1" style="stop-color:#3840F7"/>
					</linearGradient>
					<path class="st14" d="M1588,2575.7c0,0,5.5,402.9-81.7,434.1c-7.1,2.5-13.4,2.5-18.9,0.4c70.2-59.1,28.8-367.1,8.4-406.7
						c-20.6-40,38.3-113.7,62.6-254.9c24.3-141.1-127.8-186.9-127.8-186.9c7.9-3.8,15.7-8,23.4-12.7
						c72.2-44.2,196.5,40.6,189.7,141.9C1643.7,2290.9,1662.9,2454.8,1588,2575.7z"/>
					
						<linearGradient id="SVGID_8_" gradientUnits="userSpaceOnUse" x1="1136.2999" y1="867.6287" x2="1303" y2="867.6287" gradientTransform="matrix(1 0 0 -1 0 3707.9055)">
						<stop  offset="0" style="stop-color:#53D8FF"/>
						<stop  offset="1" style="stop-color:#3840F7"/>
					</linearGradient>
					<path class="st15" d="M1303,2670.8h-19.5c-89.9,21.7-46.2,370.1-133.4,339c-4.9-1.7-9.5-4.7-13.8-8.6
						c71.8,28.4,65.1-251.7,76.9-298C1224.9,2656.7,1303,2670.8,1303,2670.8z"/>
				</g>
				<g>
					<path class="st2" d="M2169.1,2591.9c0,0,5.5,402.9-81.7,434.1c-7.1,2.5-13.4,2.5-18.9,0.4c-62.1-24-32-319.4-114.6-339.4h-89.4
						c-89.9,21.7-46.2,370.1-133.4,339c-4.9-1.7-9.5-4.7-13.8-8.6c-0.3-0.3-0.6-0.5-0.9-0.8c-71.8-68.6-66.9-424.7-66.9-424.7
						c-74.9-120.8-55.7-284.7-55.7-284.7c-6.8-101.3,117.5-186.1,189.7-141.9c44.3,27.1,94,38.3,125.8,42.9
						c26.3-3.8,64.8-12.1,102.4-30.2c7.9-3.8,15.7-8,23.4-12.7c72.2-44.2,196.5,40.6,189.7,141.9
						C2224.8,2307.2,2244,2471.1,2169.1,2591.9z"/>
					
						<linearGradient id="SVGID_9_" gradientUnits="userSpaceOnUse" x1="2011.7002" y1="1117.3407" x2="2227.0056" y2="1117.3407" gradientTransform="matrix(1 0 0 -1 0 3707.9055)">
						<stop  offset="0" style="stop-color:#53D8FF"/>
						<stop  offset="1" style="stop-color:#3840F7"/>
					</linearGradient>
					<path class="st16" d="M2169.1,2591.9c0,0,5.5,402.9-81.7,434.1c-7.1,2.5-13.4,2.5-18.9,0.4c70.2-59.1,28.8-367.1,8.4-406.7
						c-20.6-40,38.3-113.7,62.6-254.9c24.3-141.1-127.8-186.9-127.8-186.9c7.9-3.8,15.7-8,23.4-12.7
						c72.2-44.2,196.5,40.6,189.7,141.9C2224.8,2307.2,2244,2471.1,2169.1,2591.9z"/>
					
						<linearGradient id="SVGID_10_" gradientUnits="userSpaceOnUse" x1="1717.2999" y1="851.4154" x2="1884" y2="851.4154" gradientTransform="matrix(1 0 0 -1 0 3707.9055)">
						<stop  offset="0" style="stop-color:#53D8FF"/>
						<stop  offset="1" style="stop-color:#3840F7"/>
					</linearGradient>
					<path class="st17" d="M1884,2687h-19.5c-89.9,21.7-46.2,370.1-133.4,339c-4.9-1.7-9.5-4.7-13.8-8.6
						c71.8,28.4,65.1-251.7,76.9-298C1806,2673,1884,2687,1884,2687z"/>
				</g>
				<g>
					<path class="st2" d="M2750.2,2575.7c0,0,5.5,402.9-81.7,434.1c-7.1,2.5-13.4,2.5-18.9,0.4c-62.1-24-32-319.4-114.6-339.4h-89.4
						c-89.9,21.7-46.2,370.1-133.4,339c-4.9-1.7-9.5-4.7-13.8-8.6c-0.3-0.3-0.6-0.5-0.9-0.8c-71.8-68.6-66.9-424.7-66.9-424.7
						c-74.9-120.8-55.7-284.7-55.7-284.7c-6.8-101.3,117.5-186.1,189.7-141.9c44.3,27.1,94,38.3,125.8,42.9
						c26.3-3.8,64.8-12.1,102.4-30.2c7.9-3.8,15.7-8,23.4-12.7c72.2-44.2,196.5,40.6,189.7,141.9
						C2805.9,2290.9,2825.1,2454.8,2750.2,2575.7z"/>
					
						<linearGradient id="SVGID_11_" gradientUnits="userSpaceOnUse" x1="2592.8" y1="1133.5406" x2="2808.1055" y2="1133.5406" gradientTransform="matrix(1 0 0 -1 0 3707.9055)">
						<stop  offset="0" style="stop-color:#53D8FF"/>
						<stop  offset="1" style="stop-color:#3840F7"/>
					</linearGradient>
					<path class="st18" d="M2750.2,2575.7c0,0,5.5,402.9-81.7,434.1c-7.1,2.5-13.4,2.5-18.9,0.4c70.2-59.1,28.8-367.1,8.4-406.7
						c-20.6-40,38.3-113.7,62.6-254.9c24.3-141.1-127.8-186.9-127.8-186.9c7.9-3.8,15.7-8,23.4-12.7
						c72.2-44.2,196.5,40.6,189.7,141.9C2805.9,2290.9,2825.1,2454.8,2750.2,2575.7z"/>
					
						<linearGradient id="SVGID_12_" gradientUnits="userSpaceOnUse" x1="2298.5" y1="867.6287" x2="2465.2" y2="867.6287" gradientTransform="matrix(1 0 0 -1 0 3707.9055)">
						<stop  offset="0" style="stop-color:#53D8FF"/>
						<stop  offset="1" style="stop-color:#3840F7"/>
					</linearGradient>
					<path class="st19" d="M2465.2,2670.8h-19.5c-89.9,21.7-46.2,370.1-133.4,339c-4.9-1.7-9.5-4.7-13.8-8.6
						c71.8,28.4,65.1-251.7,76.9-298C2387.1,2656.7,2465.2,2670.8,2465.2,2670.8z"/>
				</g>
				<g>
					<g>
						<g>
							
								<linearGradient id="SVGID_13_" gradientUnits="userSpaceOnUse" x1="1426.4211" y1="1322.1787" x2="1180.0463" y2="1177.5183" gradientTransform="matrix(1 0 0 -1 0 3707.9055)">
								<stop  offset="0" style="stop-color:#4F52FF"/>
								<stop  offset="1" style="stop-color:#4042E2"/>
							</linearGradient>
							<path class="st20" d="M1309.3,2378.9l-73.1,2c-25.4,0.7-46,20.4-46,44v108.5c0,23.6,20.6,41.9,46,40.9l73.1-2.9
								c25.1-1,45.3-20.7,45.3-44V2420C1354.7,2396.6,1334.4,2378.2,1309.3,2378.9z"/>
							
								<linearGradient id="SVGID_14_" gradientUnits="userSpaceOnUse" x1="1383.5752" y1="1342.5382" x2="1263.2789" y2="1222.2421" gradientTransform="matrix(1 0 0 -1 0 3707.9055)">
								<stop  offset="0" style="stop-color:#53D8FF"/>
								<stop  offset="1" style="stop-color:#3840F7"/>
							</linearGradient>
							<path class="st21" d="M1296.8,2418.3l-48,1.4c-13.8,0.4-25,11.2-25,24v68.6c0,12.8,11.2,22.8,25,22.3l48-1.8
								c13.7-0.5,24.8-11.3,24.8-24v-68.2C1321.6,2427.9,1310.5,2417.9,1296.8,2418.3z"/>
						</g>
						<g>
							
								<linearGradient id="SVGID_15_" gradientUnits="userSpaceOnUse" x1="2016.5326" y1="1317.4943" x2="1799.5416" y2="1218.0399" gradientTransform="matrix(1 0 0 -1 0 3707.9055)">
								<stop  offset="0" style="stop-color:#4F52FF"/>
								<stop  offset="1" style="stop-color:#4042E2"/>
							</linearGradient>
							<path class="st22" d="M1907.6,2362.2l-68.1,1.9c-23.6,0.7-42.8,19.6-42.8,42.4v104.7c0,22.8,19.2,40.4,42.8,39.5l68.1-2.7
								c23.4-0.9,42.3-19.9,42.3-42.5v-103.8C1949.8,2379.3,1930.9,2361.6,1907.6,2362.2z"/>
							
								<linearGradient id="SVGID_16_" gradientUnits="userSpaceOnUse" x1="1978.7858" y1="1357.0038" x2="1864.5226" y2="1242.7406" gradientTransform="matrix(1 0 0 -1 0 3707.9055)">
								<stop  offset="0" style="stop-color:#53D8FF"/>
								<stop  offset="1" style="stop-color:#3840F7"/>
							</linearGradient>
							<path class="st23" d="M1895.9,2400.3l-44.7,1.3c-12.9,0.4-23.3,10.7-23.3,23.1v66.2c0,12.4,10.4,22,23.3,21.6l44.7-1.6
								c12.8-0.5,23.1-10.8,23.1-23.2v-65.8C1919,2409.6,1908.6,2399.9,1895.9,2400.3z"/>
						</g>
						<g>
							
								<linearGradient id="SVGID_17_" gradientUnits="userSpaceOnUse" x1="2614.0024" y1="1342.2932" x2="2435.437" y2="1279.0042" gradientTransform="matrix(1 0 0 -1 0 3707.9055)">
								<stop  offset="0" style="stop-color:#4F52FF"/>
								<stop  offset="1" style="stop-color:#4042E2"/>
							</linearGradient>
							<path class="st24" d="M2441.4,2347.3l-63.9,1.8c-22.1,0.6-40.1,19-40.1,41v101.4c0,22,18,39.2,40.1,38.3l63.9-2.5
								c21.9-0.9,39.6-19.2,39.6-41.1v-100.5C2481.1,2363.9,2463.3,2346.7,2441.4,2347.3z"/>
							
								<linearGradient id="SVGID_18_" gradientUnits="userSpaceOnUse" x1="2509.9951" y1="1370.0625" x2="2400.9912" y2="1261.0583" gradientTransform="matrix(1 0 0 -1 0 3707.9055)">
								<stop  offset="0" style="stop-color:#53D8FF"/>
								<stop  offset="1" style="stop-color:#3840F7"/>
							</linearGradient>
							<path class="st25" d="M2430.5,2384.1l-41.9,1.3c-12.1,0.4-21.8,10.4-21.8,22.4v64.1c0,12,9.8,21.4,21.8,20.9l41.9-1.5
								c12-0.4,21.7-10.5,21.7-22.4v-63.8C2452.2,2393.2,2442.5,2383.8,2430.5,2384.1z"/>
						</g>
					</g>
					<g>
						<path class="st26" d="M1322.5,2378.9l-73.1,2c-25.4,0.7-46,20.4-46,44v108.5c0,23.6,20.6,41.9,46,40.9l73.1-2.9
							c25.1-1,45.3-20.7,45.3-44V2420C1367.8,2396.6,1347.6,2378.2,1322.5,2378.9z"/>
						<path class="st26" d="M1920.7,2362.2l-68.1,1.9c-23.6,0.7-42.8,19.6-42.8,42.4v104.7c0,22.8,19.2,40.4,42.8,39.5l68.1-2.7
							c23.4-0.9,42.3-19.9,42.3-42.5v-103.8C1963,2379.3,1944.1,2361.6,1920.7,2362.2z"/>
						<path class="st26" d="M2454.6,2347.3l-63.9,1.8c-22.1,0.6-40.1,19-40.1,41v101.4c0,22,18,39.2,40.1,38.3l63.9-2.5
							c21.9-0.9,39.6-19.2,39.6-41.1v-100.5C2494.2,2363.9,2476.5,2346.7,2454.6,2347.3z"/>
						<path class="st26" d="M1286.2,2488.9l-0.7-24.9c6.1-0.2,616.8-18.1,1136.6-38l1,24.8
							C1903.1,2470.9,1292.3,2488.8,1286.2,2488.9z"/>
						
							<linearGradient id="SVGID_19_" gradientUnits="userSpaceOnUse" x1="1324.5997" y1="1585.486" x2="1261.3108" y2="1006.8425" gradientTransform="matrix(1 0 0 -1 0 3707.9055)">
							<stop  offset="0" style="stop-color:#4F52FF"/>
							<stop  offset="1" style="stop-color:#4042E2"/>
						</linearGradient>
						<path class="st27" d="M1310,2418.3l-48,1.4c-13.8,0.4-25,11.2-25,24v68.6c0,12.8,11.2,22.8,25,22.3l48-1.8
							c13.7-0.5,24.8-11.3,24.8-24v-68.2C1334.8,2427.9,1323.7,2417.9,1310,2418.3z"/>
						
							<linearGradient id="SVGID_20_" gradientUnits="userSpaceOnUse" x1="1972.7391" y1="1764.4111" x2="1796.4336" y2="715.6199" gradientTransform="matrix(1 0 0 -1 0 3707.9055)">
							<stop  offset="0" style="stop-color:#4F52FF"/>
							<stop  offset="1" style="stop-color:#4042E2"/>
						</linearGradient>
						<path class="st28" d="M1909,2400.3l-44.7,1.3c-12.9,0.4-23.3,10.7-23.3,23.1v66.2c0,12.4,10.4,22,23.3,21.6l44.7-1.6
							c12.8-0.5,23.1-10.8,23.1-23.2v-65.8C1932.1,2409.6,1921.8,2399.9,1909,2400.3z"/>
						
							<linearGradient id="SVGID_21_" gradientUnits="userSpaceOnUse" x1="2522.302" y1="1576.851" x2="2246.542" y2="726.968" gradientTransform="matrix(1 0 0 -1 0 3707.9055)">
							<stop  offset="0" style="stop-color:#4F52FF"/>
							<stop  offset="1" style="stop-color:#4042E2"/>
						</linearGradient>
						<path class="st29" d="M2443.6,2384.1l-41.9,1.3c-12.1,0.4-21.8,10.4-21.8,22.4v64.1c0,12,9.8,21.4,21.8,20.9l41.9-1.5
							c12-0.4,21.7-10.5,21.7-22.4v-63.8C2465.3,2393.2,2455.6,2383.8,2443.6,2384.1z"/>
					</g>
				</g>
			</g>
		</g>
		<g>
			
				<linearGradient id="SVGID_22_" gradientUnits="userSpaceOnUse" x1="-767.7966" y1="1906.08" x2="-294.356" y2="1906.08" gradientTransform="matrix(-1 0 0 -1 2289.5229 3707.9055)">
				<stop  offset="0" style="stop-color:#09005D"/>
				<stop  offset="1" style="stop-color:#1A0F91"/>
			</linearGradient>
			<path class="st30" d="M2624.1,1637.8c0,0,0.3,0.2,0.5,0.6l2.2,0.1c0.2,0.3,2.6,0.9,2.6,1.6l0,0l-2.1,0.7c0,0.7-1,1.6-0.8,2.6
				l-0.5,0.4c2.5,14.7,15.9,54.8,30.6,106.7c0.1,0.4,0.1,0.9,0.2,1.3c33,116.5,80.6,291.8,94.9,372.9c0,0,25.4,12.6,65,18.9h0.1
				c57.2,12.5,143.5,23.9,223.8,2.9c0,0,43.1-352.2-9.1-657.5c0,0-137.2-34.2-285.2-43.5c-0.8,0-1.5,2.6-2.3,2.6
				c-11.9-0.7-23.9,1.6-35.9,1.6h-9.5c-1.3,0-2.6,0-3.9,0h-0.2c-6.1,0-17.2,2.2-30.2,7.6c-0.4,0.1-1.1-1.2-1.1-1l-0.1-1.1
				c0,0-2.2,1-3.2,1.4c-1.5,0.6-3,1.2-4.6,2c-0.3,0.2-0.7,0.3-1,0.5c-0.1,0.1-0.3,0.1-0.5,0.2c-1,0.5-2,1-3.1,1.6
				c-0.2,0.1-0.4,0.2-0.6,0.3c-1.2,0.6-2.5,1.3-3.8,1.9c-0.2,0.1,0.8,0.2,0.6,0.3c-1.5,0.8-3.4,1.6-4.9,2.4
				c-1.4,0.7-2.4,1.5-2.5,2.3l-0.2-1.2c-0.7,0.4-1.5,0.8-2.2,1.2c0,0-0.1,0-0.2,0.1c-7.9,4.6-15.8,10-23.2,16.3c0,0,0,0.1-0.1,0.1
				c-0.1,0.1-0.2,0.3-0.3,0.5C2580,1540.2,2564.6,1630.4,2624.1,1637.8z"/>
			<g>
				<path class="st26" d="M2277.6,1729.1c149.2-15.8,219.3-130.7,274.7-203.8c73.2-96.5,154.1-79.8,154.1-79.8l-49.5,213
					c-110.7,176.4-269.1,184.8-375.5,164.6C2270.5,1787.2,2272.3,1754.4,2277.6,1729.1z"/>
				<path class="st26" d="M2053.5,1695.9l54.3,13.2c66.2,19.9,122,25,169.8,20c-5.3,25.3-7.1,58.1,3.8,93.9
					c-67.8-12.8-114.5-37.2-114.5-37.2C2042.3,1749.5,2053.5,1695.9,2053.5,1695.9z"/>
			</g>
			
				<linearGradient id="SVGID_23_" gradientUnits="userSpaceOnUse" x1="2793.2258" y1="3155.6387" x2="2202.9976" y2="2243.4661" gradientTransform="matrix(1 0 0 -1 0 3707.9055)">
				<stop  offset="0" style="stop-color:#FEBBBA"/>
				<stop  offset="1" style="stop-color:#FF928E"/>
			</linearGradient>
			<path class="st31" d="M1930.6,1799.5c0.4-11,5.8-21.3,14.7-27.8l86.5-64c0,0-1.8-12.8-25.8-15.5c-24.1-2.7-25.3-28.6-25.3-28.6
				s33.4,5.9,82.8,16.1c28.2,5.9,48,24.1,59.7,38.6l-16.4,39.2c-54.9,33.4-114.3,52.5-176.9,61.2L1930.6,1799.5z"/>
			
				<linearGradient id="SVGID_24_" gradientUnits="userSpaceOnUse" x1="-405.3491" y1="2263.6555" x2="-403.4937" y2="2263.6555" gradientTransform="matrix(-1 0 0 -1 2289.5229 3707.9055)">
				<stop  offset="0" style="stop-color:#09005D"/>
				<stop  offset="1" style="stop-color:#1A0F91"/>
			</linearGradient>
			<path class="st32" d="M2693,1444.3c0.5,0,1,0,1.5,0c0.1,0,0.2,0,0.4-0.1L2693,1444.3z"/>
			
				<linearGradient id="SVGID_25_" gradientUnits="userSpaceOnUse" x1="-377.5219" y1="2265.2305" x2="-377.6671" y2="2265.0046" gradientTransform="matrix(-1 0 0 -1 2289.5229 3707.9055)">
				<stop  offset="0" style="stop-color:#53EAC9"/>
				<stop  offset="0.9964" style="stop-color:#45AED8"/>
			</linearGradient>
			<path class="st33" d="M2666.9,1442.4C2666.9,1442.4,2666.9,1442.4,2666.9,1442.4L2666.9,1442.4z"/>
			
				<linearGradient id="SVGID_26_" gradientUnits="userSpaceOnUse" x1="-373.7725" y1="2264.9519" x2="-373.9957" y2="2264.605" gradientTransform="matrix(-1 0 0 -1 2289.5229 3707.9055)">
				<stop  offset="0" style="stop-color:#53EAC9"/>
				<stop  offset="0.9964" style="stop-color:#45AED8"/>
			</linearGradient>
			<path class="st34" d="M2663,1442.7l0.2,0.1v-0.2C2663.1,1442.6,2663.1,1442.7,2663,1442.7z"/>
			
				<linearGradient id="SVGID_27_" gradientUnits="userSpaceOnUse" x1="-224.5352" y1="664.7005" x2="-972.4784" y2="-148.8527" gradientTransform="matrix(-1 0 0 -1 2289.5229 3707.9055)">
				<stop  offset="0" style="stop-color:#09005D"/>
				<stop  offset="1" style="stop-color:#1A0F91"/>
			</linearGradient>
			<path class="st35" d="M2750.5,3103.8c0,0,7.7,43.9,11.5,87.3c1.5,17-11.6,31.7-28.6,32.4c-57.8,2.4-181.5,7.1-225.8,5.1
				c-6.7-0.3-11-7.1-8.6-13.3l0,0c2.1-5.2,6.1-9.4,11.1-11.7l204.2-93.9L2750.5,3103.8z"/>
			
				<linearGradient id="SVGID_28_" gradientUnits="userSpaceOnUse" x1="-467.2772" y1="604.287" x2="-400.8773" y2="604.287" gradientTransform="matrix(-1 0 0 -1 2289.5229 3707.9055)">
				<stop  offset="0" style="stop-color:#FEBBBA"/>
				<stop  offset="1" style="stop-color:#FF928E"/>
			</linearGradient>
			<path class="st36" d="M2756.8,3078l-6.2,52.5c0,0-35.8,16.7-60.2-2.1l14.8-58.5L2756.8,3078z"/>
			
				<linearGradient id="SVGID_29_" gradientUnits="userSpaceOnUse" x1="-165.6291" y1="1584.735" x2="-802.057" y2="722.139" gradientTransform="matrix(-1 0 0 -1 2289.5229 3707.9055)">
				<stop  offset="0" style="stop-color:#09005D"/>
				<stop  offset="1" style="stop-color:#1A0F91"/>
			</linearGradient>
			<path class="st37" d="M2752.2,2091.9c2.7,13.7,14.4,683.5-57.2,983.7c-1.2,4.9,1.3,9.9,6,11.9c11,4.5,32.5,11,58.3,11.9
				c8,0.3,15.2-4.9,17.4-12.6c20.5-69.6,118.5-418.6,131.3-751.9c14.3-372.5,0-12.7,0-12.7l-8.4-230.2L2752.2,2091.9z"/>
			
				<linearGradient id="SVGID_30_" gradientUnits="userSpaceOnUse" x1="-392.3353" y1="818.9688" x2="-1140.2803" y2="5.4136" gradientTransform="matrix(-1 0 0 -1 2289.5229 3707.9055)">
				<stop  offset="0" style="stop-color:#09005D"/>
				<stop  offset="1" style="stop-color:#1A0F91"/>
			</linearGradient>
			<path class="st38" d="M2985.5,3126.7c0,0,12.3,22.1,24.3,81c2.2,10.6-5.3,20.8-16.1,21.9c-19.1,1.9-48.5,4.3-72,4.1
				c-10.9-0.1-19.3-9.5-18-20.3c2.6-21.5,10.7-56.7,35.8-84.2L2985.5,3126.7z"/>
			
				<linearGradient id="SVGID_31_" gradientUnits="userSpaceOnUse" x1="-706.7772" y1="607.7321" x2="-649.4159" y2="607.7321" gradientTransform="matrix(-1 0 0 -1 2289.5229 3707.9055)">
				<stop  offset="0" style="stop-color:#FEBBBA"/>
				<stop  offset="1" style="stop-color:#FF928E"/>
			</linearGradient>
			<path class="st39" d="M2996.3,3059.2l-14.5,79.3c0,0-14.4,10.7-42.8,2.9l6.9-85.3L2996.3,3059.2z"/>
			
				<linearGradient id="SVGID_32_" gradientUnits="userSpaceOnUse" x1="-279.0955" y1="1668.4517" x2="-915.523" y2="805.8558" gradientTransform="matrix(-1 0 0 -1 2289.5229 3707.9055)">
				<stop  offset="0" style="stop-color:#09005D"/>
				<stop  offset="1" style="stop-color:#1A0F91"/>
			</linearGradient>
			<path class="st40" d="M3035.6,2112.5c58.6,353.4-12.7,873.5-36.7,975.3c-1.5,6.2-6.5,11-12.8,12.1c-10.7,1.8-28.4,3.2-45.8-1.8
				c-6-1.7-10.2-7.2-10.5-13.4c-3.2-82.3,2.6-587.5-52-787.2c-2.8-10.1-8.9-18.9-17.5-25l-105.9-75.3l-8.1-121.7L3035.6,2112.5z"/>
			<path class="st1" d="M2964.2,1658.8l67.3-169.9c0,0,163.9,111.4,190.9,252.6c-31,2.3-87.3,10.3-142.5,38.2
				C3067.8,1713,2964.2,1658.8,2964.2,1658.8z"/>
			
				<linearGradient id="SVGID_33_" gradientUnits="userSpaceOnUse" x1="-778.441" y1="2185.0427" x2="-697.565" y2="2227.8594" gradientTransform="matrix(-1 0 0 -1 2289.5229 3707.9055)">
				<stop  offset="0" style="stop-color:#FEBBBA"/>
				<stop  offset="1" style="stop-color:#FF928E"/>
			</linearGradient>
			<path class="st41" d="M2840.2,1300.4l55.8,161.5c0.9,2.7-0.2,5.6-2.7,7c-15.2,8.4-70.1,32.7-136.1-9.2
				c-6.9-4.4-11.6-11.5-12.6-19.6l-18.1-139.8L2840.2,1300.4L2840.2,1300.4z"/>
			<path class="st1" d="M2946.2,1470.7l-66.6-56.6l-99.7,243.4l72.7,967l226.9,6.8c1.6,0,3.2-0.6,4.3-1.7c1.1-1.1,1.7-2.7,1.7-4.3
				l-31.7-930.3c0,0-0.9-201-22.2-206.1C3010.2,1483.9,2946.2,1470.7,2946.2,1470.7z"/>
			<path class="st26" d="M2629,1638.5l0.4,1.6l0,0l-2.1,0.7l-0.8,2.6l4.7,0.4l23.3,192c0,0,0,0,0,0.1l74.1,801.1
				c0.2,1.6-1.8,3-0.6,4s1.5,1.4,3,1.1l122.2-17.7l-36-480.9l-0.2-0.7l-36.1-498l-32.7-200v-0.1l-6-30.8l-33.5,29h-0.8l-9.6,0.5
				l-4,0.2c-6.1,1.6-31.1,11-31.1,11c0,0.1-8.7,3.9-12.9,5.9c-0.2,0.1-0.3,0.2-0.5,0.3c-1.2,0.6-2.4,1.3-3.7,2
				c-0.2,0.1,0.9,0.2,0.7,0.3c-2.6,1.4-4.9,3-4.9,4.7v0.1l-12.5,169.6v0.6L2629,1638.5z"/>
			
				<linearGradient id="SVGID_34_" gradientUnits="userSpaceOnUse" x1="-464.542" y1="2003.0015" x2="-155.3188" y2="2225.5388" gradientTransform="matrix(-1 0 0 -1 2289.5229 3707.9055)">
				<stop  offset="0" style="stop-color:#9CFFFB"/>
				<stop  offset="1" style="stop-color:#9BFFFA"/>
			</linearGradient>
			<polygon class="st42" points="2742,1655.5 2742,1679.2 2654.4,1673.9 2654.4,1647.6 			"/>
			<path class="st0" d="M2785.2,1713.5c0.4,0,0.8-0.1,1.1-0.3l76.6-41.1c0.7-0.4,1.1-1,1.2-1.7l10.5-70.6l27.9-5
				c0.9-0.2,1.6-0.8,1.9-1.6l29.5-96c0.4-1.3-0.3-2.6-1.6-3s-2.6,0.3-3,1.6l-29.1,94.6l-28.2,5c-1,0.2-1.8,1-1.9,2l-10.6,71.1
				l-75.5,40.6c-1.2,0.6-1.6,2.1-1,3.2C2783.6,1713,2784.4,1713.5,2785.2,1713.5z"/>
			<path class="st0" d="M2767,1689.9c0.3,0,0.6-0.1,0.9-0.2c0.9-0.5,1.2-1.6,0.7-2.4l-40.2-70.5l6.6-39.8c0.1-0.8-0.2-1.5-0.9-1.9
				l-32.3-17.2l8.2-114.5c0.1-1-0.7-1.8-1.7-1.9c-1,0-1.8,0.7-1.9,1.7l-8.3,115.7c-0.1,0.7,0.3,1.4,0.9,1.7l32.2,17.2l-6.5,39.2
				c-0.1,0.4,0,0.8,0.2,1.2l40.5,71C2765.8,1689.5,2766.4,1689.9,2767,1689.9z"/>
			<g>
				<path class="st1" d="M2820.8,1813.8c0,0,184,104,246.1,15.2c12.9-18.4,16-36.8,12.8-54.2c55.2-27.9,111.5-35.9,142.5-38.2
					c8.1,42.6,3.8,87.8-21.2,133.6c-108.8,199-404.6-11-404.6-11L2820.8,1813.8z"/>
				<g>
					
						<linearGradient id="SVGID_35_" gradientUnits="userSpaceOnUse" x1="3524.0251" y1="3078.675" x2="2920.3816" y2="2327.4749" gradientTransform="matrix(1 0 0 -1 0 3707.9055)">
						<stop  offset="0" style="stop-color:#4F52FF"/>
						<stop  offset="1" style="stop-color:#4042E2"/>
					</linearGradient>
					<path class="st43" d="M2842.9,1945.3l-100.4-350.8c-1.1-4-4.5-6.9-8.7-7.4c-18.2-2.1-70.9-8.1-131.8-13.2
						c-73.3-6.2-158.5-11.2-209.4-7c-7.2,0.6-11.6,8.3-8.4,14.8c28.9,58.5,148,296.7,207.6,374.7c2,2.6,5,4.1,8.3,4.1l233-2.2
						C2839.9,1958.4,2844.8,1951.9,2842.9,1945.3z"/>
					
						<linearGradient id="SVGID_36_" gradientUnits="userSpaceOnUse" x1="2556.6182" y1="2559.2773" x2="2556.6182" y2="2391.5979" gradientTransform="matrix(1 0 0 -1 0 3707.9055)">
						<stop  offset="0" style="stop-color:#09005D"/>
						<stop  offset="1" style="stop-color:#1A0F91"/>
					</linearGradient>
					<path class="st44" d="M2591.6,1543.6l-72.8-12.1c-3.9-0.6-7.1,3.1-5.8,6.8l7.2,21.8c0.6,1.9,2.3,3.3,4.3,3.5l70.1,9.4
						c3.6,0.5,6.6-2.8,5.8-6.4l-4.5-19.1C2595.3,1545.5,2593.7,1543.9,2591.6,1543.6z"/>
					
						<linearGradient id="SVGID_37_" gradientUnits="userSpaceOnUse" x1="2582.7925" y1="2877.9446" x2="2572.7314" y2="2505.6985" gradientTransform="matrix(1 0 0 -1 0 3707.9055)">
						<stop  offset="0" style="stop-color:#09005D"/>
						<stop  offset="1" style="stop-color:#1A0F91"/>
					</linearGradient>
					<path class="st45" d="M2646.1,1605.2l-6-31.2c-0.6-3.1-3.2-5.5-6.4-5.8l-147.1-14.9c-5-0.5-8.9,4-7.8,8.9l9.4,38.9
						c0.7,3.1,3.5,5.4,6.7,5.5l143.7,7.2C2643.3,1614,2647,1609.8,2646.1,1605.2z"/>
					
						<linearGradient id="SVGID_38_" gradientUnits="userSpaceOnUse" x1="-538.7419" y1="1906.7522" x2="-404.9774" y2="1906.7522" gradientTransform="matrix(-1 0 0 -1 2289.5229 3707.9055)">
						<stop  offset="0" style="stop-color:#FEBBBA"/>
						<stop  offset="1" style="stop-color:#FF928E"/>
					</linearGradient>
					<path class="st46" d="M2818.6,1860.6c0,0,14-57.5,8.3-77.9c-5.6-20.4-16.6-46.7-53-40.8c-36.4,5.8-79.4,21.2-79.4,21.2
						s2.2,26.6,29.9,18l-17.2,13.3c0,0,2.5,21.3,25.9,9.9l-16,17.6c0,0,10,17.5,27.3,6.3C2761.6,1816.9,2769.8,1867.5,2818.6,1860.6
						z"/>
				</g>
			</g>
			<path class="st0" d="M2994,1865.4c17.1,0,32.8-2.5,44.7-9.1c1.2-0.6,1.6-2.1,0.9-3.2c-0.6-1.1-2.1-1.6-3.2-0.9
				c-49,26.9-170.1-19.2-171.3-19.6c-0.3-0.1-23.9-8.3-32.3-24.7c-0.6-1.2-2-1.6-3.2-1s-1.6,2-1,3.2c9.3,18.1,33.8,26.6,34.9,27
				C2867.4,1838.4,2938.2,1865.4,2994,1865.4z"/>
			<path class="st0" d="M3060.4,1956.1c1.3,0,2.3,0,2.4-1.3c0-1.3-1-1.9-2.3-2c-139.8-4.8-219.3-68.5-220.1-69.2
				c-1-0.8-2.5-0.6-3.3,0.5c-0.8,1-0.7,1.6,0.3,2.4C2838.2,1887.2,2919,1956.1,3060.4,1956.1L3060.4,1956.1z"/>
			<g>
				
					<linearGradient id="SVGID_39_" gradientUnits="userSpaceOnUse" x1="-4729.2002" y1="2122.448" x2="-4960.9736" y2="1945.106" gradientTransform="matrix(-0.9899 0.1417 -0.1417 -0.9899 -1684.7545 4000.8345)">
					<stop  offset="0" style="stop-color:#FEBBBA"/>
					<stop  offset="1" style="stop-color:#FF928E"/>
				</linearGradient>
				<path class="st47" d="M2692.7,1147.3c0,0-26.9,97.9-22.7,146.7c4.2,48.8-1.7,81.7,55.6,83.4c57.3,1.7,100.5-32.9,119.1-84.7
					c0,0,29.4-80,16.1-109.1C2847.5,1154.4,2692.7,1147.3,2692.7,1147.3z"/>
				
					<linearGradient id="SVGID_40_" gradientUnits="userSpaceOnUse" x1="4848.0591" y1="2369.832" x2="5270.9824" y2="1825.3192" gradientTransform="matrix(0.9899 -0.1417 -0.1417 -0.9899 -1847.6569 4023.8396)">
					<stop  offset="0" style="stop-color:#09005D"/>
					<stop  offset="1" style="stop-color:#1A0F91"/>
				</linearGradient>
				<path class="st48" d="M2921.3,1152.7c-12.2-7.6-20.2-5-24.8-1.1c-1.3,1.1-2.9,1.1-4.2,0.5c-0.1-1.4-9.4-101.6-145.9-83.9
					c-14.2,1.8-28.1-5.1-35.1-17.5c-16.1-28.4-46.7-70.2-69.9-29.4c-32.9,58.1-42.6,134.3,50.5,150.1c5.5,0.9,11.1,1.7,16.7,2.3
					c38.4,9.5,82.2,12.5,98.5,16.6c27.1,6.8,6.4,69.9,6.4,69.9l7.1-1l15.1-2.2c2.2-0.3,4.3,2.2,4.5,4.4l3.5,43.1
					c0.1,1.9,1.6,3.5,3.5,3.7c6.9,0.7,24.8,0.1,52.3-20.1c26.9-19.7,14-29.7,5.7-33.6c-2.3-1.1-2.8-4.1-1-6
					C2940.7,1208.4,2942.5,1166,2921.3,1152.7z"/>
				
					<linearGradient id="SVGID_41_" gradientUnits="userSpaceOnUse" x1="-4757.9976" y1="2160.0825" x2="-4989.7725" y2="1982.7396" gradientTransform="matrix(-0.9899 0.1417 -0.1417 -0.9899 -1684.7545 4000.8345)">
					<stop  offset="0" style="stop-color:#FEBBBA"/>
					<stop  offset="1" style="stop-color:#FF928E"/>
				</linearGradient>
				<path class="st49" d="M2820.3,1269.9c0,0,6.9-61.1,35.7-48.4s-4.3,67.9-25.2,73.2L2820.3,1269.9z"/>
				<path class="st1" d="M2667.7,1152.8c0.5-0.1,0.9-0.3,1.2-0.7c0.7-0.8,0.5-2-0.3-2.7c-19.6-15.5-30.4-33.5-32-53.3
					c-2.8-34.5,23.2-63.6,23.4-63.9c0.7-0.8,0.6-2-0.1-2.7c-0.8-0.7-2-0.6-2.7,0.1c-1.1,1.2-27.4,30.5-24.4,66.7
					c1.7,21,13,39.8,33.5,56C2666.7,1152.7,2667.2,1152.9,2667.7,1152.8z"/>
			</g>
			
				<linearGradient id="SVGID_42_" gradientUnits="userSpaceOnUse" x1="-377.5219" y1="2265.2305" x2="-377.6671" y2="2265.0046" gradientTransform="matrix(-1 0 0 -1 2289.5229 3707.9055)">
				<stop  offset="0" style="stop-color:#53EAC9"/>
				<stop  offset="0.9964" style="stop-color:#45AED8"/>
			</linearGradient>
			<path class="st50" d="M2666.9,1442.4C2666.9,1442.4,2666.9,1442.4,2666.9,1442.4L2666.9,1442.4z"/>
		</g>
	</g>
</g>
</svg>
