<?xml version="1.0" encoding="utf-8"?>
<!-- Generator: Adobe Illustrator 23.0.2, SVG Export Plug-In . SVG Version: 6.00 Build 0)  -->
<svg version="1.1" id="Layer_1" xmlns="http://www.w3.org/2000/svg" xmlns:xlink="http://www.w3.org/1999/xlink" x="0px" y="0px"
	 viewBox="0 0 2000 2000" style="enable-background:new 0 0 2000 2000;" xml:space="preserve">
<style type="text/css">
	.st0{fill:#FFFFFF;}
</style>
<g>
	<path class="st0" d="M1013.2,1059.5c-147.5,0.2-256.5-91.2-286.5-228.9c-2.5-11.6-5.7-23.2-6.8-35c-1.8-19.9-12.9-29-31.4-34
		c-48.9-13.2-72.2-73.5-44.2-115.9c5.7-8.6,18.5-16.3,28.7-17.2c31.6-2.9,35.9-21.5,33.8-47.6c-5.4-67.5,3.6-133,37.2-192.6
		c13.4-23.8,32.7-44.4,49.9-66c10.4-13,21.1-13.2,35.4-2.5c89.7,66.6,190.7,93.2,302,85c53.5-4,92.8,24.7,114.9,69.7
		c17.6,35.7,26.9,76,35.3,115.3c5.1,23.7,11.3,39.3,38.5,38.2c22.3-0.9,35.4,11.1,39.4,32.4c8.1,42.7,3.2,96.7-54.4,102.8
		c-22.3,2.4-24.1,22.1-29.4,39.5c-12.1,39.5-21.6,80.8-40.6,117C1186.1,1013.3,1103.7,1055.6,1013.2,1059.5z"/>
	<path class="st0" d="M1568.9,1355.1c60,20.9,106.9,58.7,144.7,108.4c42.1,55.4,63.3,119,64.5,188.1c1.6,90.2,0.2,180.4,0.8,270.6
		c0.1,16.5-3.1,25.6-22.6,25.6c-196.3-0.5-392.6-0.3-588.8-0.5c-3.6,0-7.2-1.5-14.9-3.2c6.7-12.1,11.7-22.4,17.7-32.1
		c75-121.4,150.1-242.6,225.1-364c23.2-37.6,24.6-42.8-7.7-73.9c-24.3-23.4-29-44.3-9.6-71.7c6.8-9.6,10.3-21.4,16.2-31.7
		c9.7-16.9,11.8-38.7,41.4-38.8c30.9-0.1,56.3,4.9,66.3,36.3c16.6,52.5,30.7,105.8,45.4,158.9c5.2,18.7-7.6,25-21.9,32.5
		c-43.9,23.3-67.5,73.9-58.1,120c10.1,49.4,51,87.1,100.1,92.4c49.3,5.3,96.5-23.1,116.4-70.1c22.7-53.6-0.2-118.1-54.4-143.8
		c-18.4-8.8-22.1-19.7-25.3-37.8C1594.4,1466.2,1581.4,1412.6,1568.9,1355.1z"/>
	<path class="st0" d="M427.9,1537.1c-0.3-71,12.9-136.6,64.1-188.7c30.3-31,90.1-20.3,108.6,17.3c1.8,3.6,2.9,7.5,5.1,10.7
		c29.5,40.7,36.2,78.2-10,113.3c-19,14.4-9.7,33.2,1,50.5c75.8,122,151.4,244.2,226.9,366.4c7.1,11.4,13.6,23.2,22.9,39.1
		c-14.7,0.9-24.1,1.9-33.5,1.9c-185.4,0.1-370.8-0.4-556.2,0.6c-25.9,0.1-36.8-4.9-35.8-34c3.6-103.9-0.3-208.3,7.8-311.8
		c7.6-97.1,88.2-198.7,171.6-230.6c-1.9,7.8-3.5,13.6-4.6,19.4c-8.9,47.4-16.9,95-27,142.2c-2.8,13-8.3,28.6-18,36.4
		c-75.5,61-93.2,157.2-40.4,239.2c6.9,10.8,24,24.2,33.5,22.2c20-4,42.2-13.6,56-28c14.4-15-3.3-40.7-26.9-38.2
		c-22.4,2.4-26.8-8.5-31-25.7c-15.2-61.8,20.7-126,79-140c58.4-14,122.6,30.2,133.6,93.2c1.2,6.7-5.9,15.1-10,22.2
		c-5.8,10.3-19.1,22.1-17,29.9c2.8,10.5,16,22.5,27.1,25.6c46,12.7,62-1.1,62.1-49.5c0.2-96.7-72.9-175.1-168.8-181.2
		C442.5,1538.9,436.7,1538,427.9,1537.1z"/>
	<path class="st0" d="M1323.4,490.3c-17.5-27.5-30.3-52-47.2-73.3c-40.2-50.5-92.3-75.1-158.5-70.1c-101.5,7.7-192.3-22-270.1-87.2
		c-24.9-20.9-44.4-19.2-68.2-0.8C717.3,307.1,679.2,370.1,660,445.5c-3.6,14.2-6.5,28.6-10.3,45.6
		c-64.9-132.8-36.4-307.8,116.6-339.3c52.3-10.7,92.6-29.7,134.3-61.8c60.2-46.3,133.3-44.5,205-25.4c19.1,5.1,37.9,11.6,56.3,19
		c155.4,62.9,217.5,191.9,174.8,362.5C1333.2,459.9,1328.5,473.4,1323.4,490.3z"/>
	<path class="st0" d="M853.5,1467.8c96.9,0,190.5,0,286.8,0c0,9,1.2,18.6-0.2,27.8c-21.5,143-43.6,286-64.7,429
		c-2.6,17.3-9.4,23.7-26.8,23.2c-32.7-1-65.5-1.4-98.1,0.1c-19.1,0.9-26-6.4-28.7-24.5c-14.9-101.9-30.7-203.7-46-305.6
		C868.3,1568.2,861,1518.6,853.5,1467.8z"/>
	<path class="st0" d="M859.9,1087.7c91.9,38.6,185.5,39.4,276.6,1c38.4,84.3,49.6,167,27.5,254.8c-15.1,60.1-11.7,63.3-74.1,64.9
		c-74.1,1.9-148.2-1.1-222.3-1.4c-16.8-0.1-24.8-6.2-27.2-23.5c-6.8-49.9-15.2-99.7-22.6-149.6c-1.1-7.7-1.7-16.3,0.6-23.4
		C831,1171.2,844.7,1132.3,859.9,1087.7z"/>
	<path class="st0" d="M1149.4,1821.6c6.3-44.4,12.2-88.8,19-133.1c21-138,42.9-276,62.9-414.1c3.4-23.1,10.4-28.9,32.2-21.4
		c33.5,11.5,67.7,21.1,106.9,33.1c-13.9,28.9-26.4,55.2-39.1,81.5c-3.9,8-7.1,16.6-12.2,23.8c-27.3,38.9-27.9,74.1,12.1,105.3
		c12.2,9.5,15.8,20.8,6.2,36.1c-58.9,94-117.1,188.4-175.4,282.8c-2.1,3.4-2.8,7.5-4.2,11.3
		C1155.1,1825.1,1152.3,1823.4,1149.4,1821.6z"/>
	<path class="st0" d="M625.8,1286.4c42.4-13,79.1-24.3,115.8-35.7c21.8-6.7,22.4,9.6,24.4,23.1c11.2,73.5,22.1,147,33.1,220.5
		c16.3,108.6,32.5,217.3,44,329.2c-5.3-6.9-11.3-13.5-15.9-20.9c-54.4-87.6-107.9-175.7-163.2-262.6c-12.7-20-9.7-32.2,5.5-48.4
		c38.3-40.7,37.7-41.5,12.6-92.1C664.2,1363.4,646.1,1327.2,625.8,1286.4z"/>
	<path class="st0" d="M1634.1,1658.7c0.3,30.4-22.9,54.8-53.1,55.7c-31.1,1-57.2-23.7-57.6-54.6c-0.4-30.5,22.6-54.4,53.4-55.3
		C1609.1,1603.6,1633.8,1626.9,1634.1,1658.7z"/>
</g>
</svg>
