<?xml version="1.0" encoding="utf-8"?>
<!-- Generator: Adobe Illustrator 23.0.2, SVG Export Plug-In . SVG Version: 6.00 Build 0)  -->
<svg version="1.1" id="Layer_1" xmlns="http://www.w3.org/2000/svg" xmlns:xlink="http://www.w3.org/1999/xlink" x="0px" y="0px"
	 viewBox="0 0 500 500" style="enable-background:new 0 0 500 500;" xml:space="preserve">
<style type="text/css">
	.st0{fill:#F5F5F5;}
	.st1{fill:#E0E0E0;}
	.st2{fill:#069AD3;}
	.st3{opacity:0.1;enable-background:new    ;}
	.st4{fill:#FFFFFF;}
	.st5{fill:#E6E6E6;}
	.st6{fill:#37474F;}
	.st7{fill:#263238;}
	.st8{fill:#455A64;}
	.st9{opacity:0.8;fill:#FFFFFF;enable-background:new    ;}
	.st10{opacity:0.85;fill:#FFFFFF;enable-background:new    ;}
	.st11{opacity:0.65;fill:#FFFFFF;enable-background:new    ;}
	.st12{opacity:0.55;fill:#FFFFFF;enable-background:new    ;}
	.st13{opacity:0.4;fill:#FFFFFF;enable-background:new    ;}
	.st14{opacity:5.000000e-02;enable-background:new    ;}
	.st15{opacity:0.75;fill:#FFFFFF;enable-background:new    ;}
	.st16{opacity:0.15;enable-background:new    ;}
	.st17{opacity:0.4;enable-background:new    ;}
	.st18{opacity:0.5;fill:#FFFFFF;enable-background:new    ;}
	.st19{fill:#FFA8A7;}
	.st20{fill:#F28F8F;}
	.st21{opacity:0.25;enable-background:new    ;}
</style>
<g id="freepik--Floor--inject-2">
	<ellipse id="freepik--floor--inject-2" class="st0" cx="250" cy="346.5" rx="230.1" ry="132.8"/>
</g>
<g id="freepik--Shadows--inject-2">
	<ellipse id="freepik--Shadow--inject-2" class="st1" cx="402.1" cy="373.5" rx="57.5" ry="33.2"/>
	<path id="freepik--shadow--inject-2" class="st1" d="M196.1,445.2L53.4,362.8c-2.3-1.4-2.3-3.5,0-4.9l206.3-119.1
		c2.7-1.4,5.8-1.4,8.5,0l142.7,82.4c2.3,1.4,2.3,3.5,0,4.9L204.6,445.2C202,446.6,198.8,446.6,196.1,445.2z"/>
</g>
<g id="freepik--Plant--inject-2">
	<g id="freepik--Plants--inject-2">
		<path class="st2" d="M431.1,354.4c-1.2-8.4,1.9-40.6,9.1-52.8s19-25.1,29.3-23.2c9.6,1.8,10.3,13.9,0.4,23.4s-25.1,21.9-27.9,36.3
			l-7.8,24.5L431.1,354.4z"/>
		<path class="st3" d="M431.1,354.4c-1.2-8.4,1.9-40.6,9.1-52.8s19-25.1,29.3-23.2c9.6,1.8,10.3,13.9,0.4,23.4s-25.1,21.9-27.9,36.3
			l-7.8,24.5L431.1,354.4z"/>
		<path class="st4" d="M433.4,351.8c0.3-0.1,0.5-0.3,0.5-0.6c0.4-29.7,19.4-57.1,32.4-64.8c0.3-0.2,0.4-0.6,0.2-0.9
			s-0.6-0.4-0.9-0.2c-13.2,7.8-32.5,35.7-33,65.8c0,0.3,0.3,0.6,0.6,0.6c0,0,0,0,0,0C433.3,351.8,433.4,351.8,433.4,351.8z"/>
		<path class="st2" d="M438.1,367.2c0.7-4.9,4.1-13.5,11.9-21.9c9.6-10.3,25.5-16,27.7-22c2.6-7.2-3.4-12.1-13.8-8.9
			c-13.9,4.4-29.4,21.8-29.2,44.1L438.1,367.2z"/>
		<path class="st4" d="M435.3,362.6c0.2-0.1,0.4-0.3,0.5-0.5c5.2-26,26.2-40,34.8-42.4c0.3-0.1,0.5-0.4,0.5-0.7
			c-0.1-0.3-0.4-0.5-0.7-0.4c0,0,0,0,0,0c-9.5,2.6-30.3,16.8-35.6,43.3c-0.1,0.3,0.2,0.7,0.5,0.7c0,0,0,0,0,0
			C435.2,362.6,435.2,362.6,435.3,362.6z"/>
	</g>
</g>
<g id="freepik--Clouds--inject-2">
	<g id="freepik--clouds--inject-2">
		<path class="st5" d="M146.3,74.4l-7.6,4.4c0-0.3,0.1-0.7,0.1-1v-2.2c0-3.9-2.8-5.5-6.2-3.6c-1.5,0.9-2.7,2.1-3.7,3.5
			c-0.6-4.9-4.4-6.8-9.1-4.1c-5.1,2.9-9.2,10.1-9.2,16v3.3c0,1.3,0.2,2.6,0.8,3.8l-6.4,3.6c-2,1.3-3.3,3.5-3.4,5.9
			c0,2.2,1.5,3.1,3.4,2l41.3-23.8c2-1.3,3.3-3.5,3.4-5.9C149.7,74.2,148.2,73.3,146.3,74.4z"/>
		<path class="st5" d="M50.1,84.3l4.2-3.3v-9.2c0-7.3,5.8-15.9,12.2-19.5l0,0c6.4-3.7,11.5-0.7,11.5,6.7v1.3c1.3-2.2,3.2-4,5.3-5.3
			l0,0c4.6-2.6,8.3-0.5,8.3,4.8v0.6l5.9-3.4c3-1.7,5.4-0.3,5.4,3.2c-0.2,3.8-2.2,7.3-5.4,9.4L50.1,96.8c-3,1.7-5.5,0.3-5.5-3.2
			C44.9,89.9,46.9,86.3,50.1,84.3z"/>
	</g>
</g>
<g id="freepik--Device--inject-2">
	<g id="freepik--Laptop--inject-2">
		<path class="st6" d="M62.2,351.5c0.2,3.1,1.9,6,4.6,7.7l129.5,74.8c2.9,1.5,6.3,1.5,9.3,0l191.9-110.8c4.2-2.3,5.9-7.5,3.6-11.8
			c-0.8-1.5-2.1-2.8-3.6-3.6L268,233c-2.9-1.5-6.3-1.5-9.3,0L66.8,343.8C64.2,345.5,62.5,348.3,62.2,351.5z"/>
		<path class="st7" d="M201,425v10c-1.6,0-3.2-0.3-4.6-1.1L66.8,359.2c-4.2-2.2-5.8-7.5-3.6-11.7c0.7-1.4,1.8-2.5,3.1-3.3
			c-2.1,1.5-1.9,3.7,0.5,5l129.5,74.8C197.8,424.7,199.4,425,201,425z"/>
		<path class="st8" d="M57.9,344c-2.6-1.8-4.2-4.7-4.3-7.8V181.6c0.2-3.3,1.9-6.2,4.6-8L250.1,62.8c2.8-1.5,6.1-1.6,9-0.2
			c2.6,1.8,4.2,4.7,4.3,7.8V225c-0.2,3.3-1.9,6.2-4.6,8l-192,110.8C64.1,345.3,60.7,345.4,57.9,344z"/>
		<path class="st7" d="M66.3,344.1c-2.7,1.2-5.8,1.2-8.4-0.1c-2.6-1.8-4.2-4.7-4.3-7.8V181.6c0.1-1.6,0.5-3.2,1.4-4.6l8.7,5l0,0
			c-0.8,1.4-1.3,2.9-1.3,4.5v154.6C62.2,343.9,64,345.1,66.3,344.1z"/>
		<path class="st6" d="M62.2,186.6v154.5c0,3,2.1,4.1,4.6,2.7L258.8,233c2.7-1.8,4.4-4.7,4.6-8V70.5c0-2.9-2.1-4.1-4.6-2.7
			L66.8,178.6C64.1,180.4,62.4,183.4,62.2,186.6z"/>
		<path class="st8" d="M66.8,349.1l129.5,74.8c2.9,1.5,6.3,1.5,9.3,0l191.9-110.8c2.5-1.5,2.5-3.9,0-5.3L268,233
			c-2.9-1.5-6.3-1.5-9.3,0L66.8,343.8C64.3,345.3,64.3,347.7,66.8,349.1z"/>
		<path class="st2" d="M69.3,184.6L254.9,77.4c1.5-0.9,2.8-0.2,2.8,1.6v142.6c-0.1,2-1.1,3.7-2.8,4.8L69.3,333.5
			c-1.5,0.9-2.8,0.2-2.8-1.6V189.4C66.7,187.4,67.7,185.6,69.3,184.6z"/>
		<path class="st6" d="M81.9,345.1l179.2-103.4c1.5-0.7,3.2-0.7,4.6,0l8.4,4.9c1.3,0.7,1.3,1.9,0,2.7L94.9,352.7
			c-1.5,0.7-3.2,0.7-4.6,0l-8.4-4.8C80.6,347.1,80.6,345.9,81.9,345.1z"/>
		<path class="st7" d="M103.6,357.7l179.2-103.5c1.5-0.7,3.2-0.7,4.6,0l51.7,29.9c1.3,0.7,1.3,1.9,0,2.7l-179,103.3
			c-1.5,0.7-3.2,0.7-4.6,0l-51.9-29.8C102.3,359.6,102.3,358.4,103.6,357.7z"/>
		<path class="st8" d="M261,298.2l5.6-3.3c0.2-0.1,0.3-0.4,0-0.5l-5.9-3.4c-0.3-0.1-0.6-0.1-0.9,0l-5.6,3.3c-0.2,0.1-0.2,0.4,0,0.5
			l6,3.4C260.5,298.3,260.7,298.3,261,298.2z M251.3,286.1l-5.6,3.3c-0.1,0-0.2,0.2-0.2,0.3c0,0.1,0.1,0.1,0.2,0.2l6,3.4
			c0.3,0.1,0.6,0.1,0.9,0l5.7-3.3c0.1,0,0.2-0.2,0.2-0.3c0-0.1-0.1-0.2-0.2-0.2l-6-3.4C251.9,286,251.6,286,251.3,286.1L251.3,286.1
			z M233.1,296.6l-9.5,5.5c-0.2,0.1-0.3,0.4,0,0.5l6,3.4c0.3,0.1,0.6,0.1,0.9,0l9.6-5.5c0.2-0.1,0.2-0.4,0-0.5l-6-3.4
			C233.7,296.5,233.4,296.5,233.1,296.6L233.1,296.6z M243.1,290.9l-5.6,3.3c-0.2,0.1-0.2,0.4,0,0.5l6,3.4c0.3,0.1,0.6,0.1,0.9,0
			l5.6-3.3c0.2-0.1,0.2-0.4,0-0.5l-6-3.4C243.7,290.7,243.4,290.7,243.1,290.9L243.1,290.9z M221,303.6l-5.6,3.3
			c-0.2,0.1-0.2,0.4,0,0.5l6,3.4c0.3,0.1,0.6,0.1,0.9,0l5.6-3.3c0.2-0.1,0.2-0.4,0-0.5l-6-3.4C221.6,303.5,221.3,303.5,221,303.6z
			 M212.8,308.4l-5.6,3.3c-0.1,0-0.2,0.2-0.2,0.3c0,0.1,0.1,0.1,0.2,0.2l5.9,3.4c0.3,0.1,0.6,0.1,0.9,0l5.6-3.3
			c0.2-0.1,0.2-0.4,0-0.5l-5.9-3.4C213.3,308.3,213,308.3,212.8,308.4L212.8,308.4z M236.1,322.4l5.6-3.3c0.2-0.1,0.2-0.4,0-0.5
			l-5.9-3.4c-0.3-0.1-0.6-0.1-0.9,0l-5.6,3.3c-0.1,0-0.2,0.2-0.2,0.3c0,0.1,0.1,0.2,0.2,0.2l5.9,3.4
			C235.5,322.5,235.8,322.5,236.1,322.4L236.1,322.4z M227.9,327.2l5.6-3.3c0.2-0.1,0.2-0.4,0-0.5l-6-3.4c-0.3-0.1-0.6-0.1-0.9,0
			l-5.6,3.3c-0.2,0.1-0.2,0.4,0,0.5l5.9,3.4C227.3,327.3,227.6,327.3,227.9,327.2L227.9,327.2z M219.6,331.9l5.6-3.3
			c0.1,0,0.2-0.2,0.2-0.3c0-0.1-0.1-0.1-0.2-0.2l-6-3.4c-0.3-0.1-0.6-0.1-0.9,0l-5.6,3.3c-0.2,0.1-0.2,0.4,0,0.5l6,3.4
			C219.1,332.1,219.4,332,219.6,331.9L219.6,331.9z M211.4,336.7l5.6-3.3c0.2-0.1,0.3-0.4,0-0.5l-6-3.4c-0.3-0.1-0.6-0.1-0.9,0
			l-5.6,3.3c-0.2,0.1-0.3,0.4,0,0.5l5.9,3.4C210.8,336.8,211.1,336.8,211.4,336.7L211.4,336.7z M252.8,303l5.7-3.3
			c0.1,0,0.2-0.2,0.2-0.3c0-0.1-0.1-0.2-0.2-0.2l-6-3.4c-0.3-0.1-0.6-0.1-0.9,0L246,299c-0.2,0.1-0.2,0.4,0,0.5l5.9,3.4
			C252.2,303.1,252.5,303.1,252.8,303z M244.4,317.7l12.6-7.3c0.2-0.1,0.2-0.4,0-0.5l-14.5-8.4c-0.3-0.1-0.6-0.1-0.9,0l-6.5,3.8
			c-0.2,0.1-0.2,0.4,0,0.5l7.7,4.4c0.1,0,0.2,0.2,0.2,0.3c0,0.1-0.1,0.1-0.2,0.2l-5.2,3c-0.2,0.1-0.2,0.4,0,0.5l6,3.4
			C243.8,317.8,244.1,317.8,244.4,317.7L244.4,317.7z M204.5,313.2l-5.6,3.3c-0.1,0-0.2,0.2-0.2,0.3c0,0.1,0.1,0.1,0.2,0.2l5.9,3.4
			c0.3,0.1,0.6,0.1,0.9,0l5.6-3.3c0.1,0,0.2-0.2,0.2-0.3c0-0.1-0.1-0.2-0.2-0.2l-5.9-3.4C205.1,313.1,204.8,313,204.5,313.2
			L204.5,313.2z M196.2,318l-5.6,3.3c-0.2,0.1-0.2,0.4,0,0.5l6,3.4c0.3,0.1,0.6,0.1,0.9,0l5.6-3.3c0.2-0.1,0.2-0.4,0-0.5l-6-3.4
			C196.8,317.8,196.5,317.8,196.2,318L196.2,318z M152.8,370c0.3,0.1,0.6,0.1,0.9,0l5.6-3.3c0.2-0.1,0.3-0.4,0-0.5l-6-3.4
			c-0.3-0.1-0.6-0.1-0.9,0l-5.6,3.3c-0.2,0.1-0.3,0.4,0,0.5L152.8,370z M130.3,356l-5.6,3.3c-0.2,0.1-0.3,0.4,0,0.5l5.9,3.4
			c0.3,0.1,0.6,0.1,0.9,0l5.6-3.3c0.2-0.1,0.3-0.4,0-0.5l-6-3.4C130.8,355.9,130.5,355.9,130.3,356L130.3,356z M142.1,366.3
			c0.3,0.1,0.6,0.1,0.9,0l5.6-3.3c0.2-0.1,0.2-0.4,0-0.5l-6-3.4c-0.3-0.1-0.6-0.1-0.9,0l-5.6,3.3c-0.2,0.1-0.2,0.4,0,0.5
			L142.1,366.3z M166.5,372.4l5.6-3.3c0.1,0,0.2-0.2,0.2-0.3c0-0.1-0.1-0.1-0.2-0.2l-6-3.4c-0.3-0.1-0.6-0.1-0.9,0l-5.6,3.3
			c-0.2,0.1-0.2,0.4,0,0.5l6,3.4C165.9,372.5,166.2,372.5,166.5,372.4L166.5,372.4z M157.4,377.2c0.3,0.1,0.6,0.1,0.9,0l5.6-3.3
			c0.2-0.1,0.3-0.4,0-0.5L158,370c-0.3-0.1-0.6-0.1-0.9,0l-5.6,3.3c-0.2,0.1-0.3,0.4,0,0.5L157.4,377.2z M138.5,351.2l-5.6,3.3
			c-0.1,0-0.2,0.2-0.2,0.3c0,0.1,0.1,0.2,0.2,0.2l5.9,3.4c0.3,0.1,0.6,0.1,0.9,0l5.6-3.3c0.2-0.1,0.2-0.4,0-0.5l-6-3.4
			C139.1,351.1,138.8,351.1,138.5,351.2L138.5,351.2z M179.7,327.4l-5.6,3.3c-0.2,0.1-0.2,0.4,0,0.5l6,3.4c0.3,0.1,0.6,0.1,0.9,0
			l5.6-3.3c0.2-0.1,0.2-0.4,0-0.5l-6-3.4C180.3,327.3,180,327.3,179.7,327.4L179.7,327.4z M146.7,346.4l-5.6,3.3
			c-0.2,0.1-0.2,0.4,0,0.5l5.9,3.4c0.3,0.1,0.6,0.1,0.9,0l5.6-3.3c0.2-0.1,0.2-0.4,0-0.5l-5.9-3.4
			C147.3,346.3,147,346.3,146.7,346.4L146.7,346.4z M188,322.7l-5.6,3.3c-0.2,0.1-0.3,0.4,0,0.5l5.9,3.4c0.3,0.1,0.6,0.1,0.9,0
			l5.6-3.3c0.2-0.1,0.3-0.4,0-0.5l-6-3.4C188.6,322.6,188.3,322.6,188,322.7z M171.5,332.2l-5.6,3.3c-0.2,0.1-0.3,0.4,0,0.5l6,3.4
			c0.3,0.1,0.6,0.1,0.9,0l5.6-3.3c0.2-0.1,0.3-0.4,0-0.5l-5.9-3.4C172.1,332,171.8,332,171.5,332.2L171.5,332.2z M163.3,337
			l-5.6,3.3c-0.2,0.1-0.2,0.4,0,0.5l6,3.4c0.3,0.1,0.6,0.1,0.9,0l5.6-3.3c0.2-0.1,0.2-0.4,0-0.5l-6-3.4
			C163.8,336.9,163.5,336.9,163.3,337z M155,341.7l-5.6,3.3c-0.2,0.1-0.3,0.4,0,0.5l5.9,3.4c0.3,0.1,0.6,0.1,0.9,0l5.6-3.3
			c0.2-0.1,0.3-0.4,0-0.5l-5.9-3.4C155.6,341.6,155.3,341.6,155,341.7z M194.9,346.2l5.6-3.3c0.2-0.1,0.3-0.4,0-0.5l-5.9-3.5
			c-0.3-0.1-0.6-0.1-0.9,0l-5.6,3.3c-0.2,0.1-0.3,0.4,0,0.5l6,3.4C194.3,346.3,194.6,346.3,194.9,346.2L194.9,346.2z M269.6,275.6
			l-5.6,3.3c-0.2,0.1-0.3,0.4,0,0.5l6,3.4c0.3,0.1,0.6,0.1,0.9,0l5.6-3.3c0.2-0.1,0.3-0.4,0-0.5l-6-3.4
			C270.2,275.5,269.8,275.5,269.6,275.6L269.6,275.6z M259.6,281.4l-5.6,3.3c-0.1,0-0.2,0.2-0.2,0.3c0,0.1,0.1,0.1,0.2,0.2l6,3.4
			c0.3,0.1,0.6,0.1,0.9,0l5.6-3.3c0.2-0.1,0.2-0.4,0-0.5l-6-3.4C260.2,281.2,259.9,281.2,259.6,281.4L259.6,281.4z M277.8,270.8
			l-5.6,3.3c-0.2,0.1-0.2,0.4,0,0.5l6,3.4c0.3,0.1,0.6,0.1,0.9,0l5.6-3.3c0.2-0.1,0.2-0.4,0-0.5l-6-3.4
			C278.4,270.7,278.1,270.7,277.8,270.8L277.8,270.8z M233.7,314l5.6-3.3c0.1,0,0.2-0.2,0.2-0.3c0-0.1-0.1-0.1-0.2-0.2l-6-3.4
			c-0.3-0.1-0.6-0.1-0.9,0l-5.6,3.3c-0.1,0-0.2,0.2-0.2,0.3c0,0.1,0.1,0.2,0.2,0.2l5.9,3.4C233.1,314.2,233.4,314.2,233.7,314z
			 M286.9,266.1c-0.3-0.1-0.6-0.1-0.9,0l-5.6,3.3c-0.2,0.1-0.3,0.4,0,0.5l6,3.4c0.3,0.1,0.6,0.1,0.9,0l5.6-3.3
			c0.2-0.1,0.3-0.4,0-0.5L286.9,266.1z M203.1,341.5l5.6-3.3c0.2-0.1,0.2-0.4,0-0.5l-6-3.4c-0.3-0.1-0.6-0.1-0.9,0l-5.6,3.3
			c-0.2,0.1-0.2,0.4,0,0.5l6,3.4C202.5,341.6,202.9,341.6,203.1,341.5L203.1,341.5z M304.2,283.1l5.6-3.3c0.1,0,0.2-0.2,0.2-0.3
			c0-0.1-0.1-0.1-0.2-0.2l-6-3.4c-0.3-0.1-0.6-0.1-0.9,0l-5.6,3.3c-0.2,0.1-0.2,0.4,0,0.5l6,3.4C303.7,283.2,304,283.2,304.2,283.1
			L304.2,283.1z M287.5,282.9l5.6-3.3c0.1,0,0.2-0.2,0.2-0.3c0-0.1-0.1-0.1-0.2-0.2l-6-3.4c-0.3-0.1-0.6-0.1-0.9,0l-5.6,3.3
			c-0.2,0.1-0.3,0.4,0,0.5l6,3.4C286.9,283.1,287.2,283.1,287.5,282.9L287.5,282.9z M295.4,271c-0.3-0.1-0.6-0.1-0.9,0l-5.6,3.3
			c-0.1,0-0.2,0.2-0.2,0.3c0,0.1,0.1,0.2,0.2,0.2l6,3.4c0.3,0.1,0.6,0.1,0.9,0l5.6-3.3c0.1,0,0.2-0.2,0.2-0.3c0-0.1-0.1-0.1-0.2-0.2
			L295.4,271z M297.2,270l14.5,8.4c0.3,0.1,0.6,0.1,0.9,0l5.6-3.3c0.2-0.1,0.3-0.4,0-0.5l-14.5-8.4c-0.3-0.1-0.6-0.1-0.9,0l-5.6,3.3
			C296.9,269.6,296.9,269.8,297.2,270L297.2,270z M278.1,280.5l-5.6,3.3c-0.2,0.1-0.2,0.4,0,0.5l6,3.4c0.3,0.1,0.6,0.1,0.9,0
			l5.6-3.3c0.2-0.1,0.2-0.4,0-0.5l-6-3.4C278.7,280.4,278.4,280.4,278.1,280.5z M216,316.3l-5.6,3.3c-0.2,0.1-0.2,0.4,0,0.5l6,3.4
			c0.3,0.1,0.6,0.1,0.9,0l5.6-3.3c0.2-0.1,0.2-0.4,0-0.5l-6-3.4C216.6,316.2,216.3,316.2,216,316.3z M295.1,287.8
			c0.3,0.1,0.6,0.1,0.9,0l5.6-3.3c0.2-0.1,0.2-0.4,0-0.5l-6-3.4c-0.3-0.1-0.6-0.1-0.9,0l-5.6,3.3c-0.1,0-0.2,0.2-0.2,0.3
			c0,0.1,0.1,0.2,0.2,0.2L295.1,287.8z M224.3,311.6l-5.6,3.3c-0.2,0.1-0.2,0.4,0,0.5l5.9,3.4c0.3,0.1,0.6,0.1,0.9,0l5.6-3.3
			c0.1,0,0.2-0.2,0.2-0.3c0-0.1-0.1-0.1-0.2-0.2l-6-3.4C224.8,311.4,224.5,311.4,224.3,311.6L224.3,311.6z M161,365.3
			c0.3,0.1,0.6,0.1,0.9,0l5.6-3.3c0.2-0.1,0.2-0.4,0-0.5l-6-3.4c-0.3-0.1-0.6-0.1-0.9,0l-5.6,3.3c-0.2,0.1-0.2,0.4,0,0.5L161,365.3z
			 M150,354.4l-5.6,3.3c-0.2,0.1-0.3,0.4,0,0.5l6,3.4c0.3,0.1,0.6,0.1,0.9,0l5.6-3.3c0.2-0.1,0.3-0.4,0-0.5l-6-3.4
			C150.6,354.3,150.3,354.3,150,354.4L150,354.4z M170.1,360.5l5.6-3.3c0.1,0,0.2-0.2,0.2-0.3c0-0.1-0.1-0.2-0.2-0.2l-5.9-3.4
			c-0.3-0.1-0.6-0.1-0.9,0l-5.6,3.3c-0.1,0-0.2,0.2-0.2,0.3c0,0.1,0.1,0.1,0.2,0.2l5.9,3.4C169.5,360.6,169.9,360.6,170.1,360.5
			L170.1,360.5z M178.3,355.7l5.6-3.3c0.2-0.1,0.3-0.4,0-0.5l-5.9-3.4c-0.3-0.1-0.6-0.1-0.9,0l-5.6,3.3c-0.1,0-0.2,0.2-0.2,0.3
			c0,0.1,0.1,0.1,0.2,0.2l5.9,3.4C177.7,355.9,178.1,355.9,178.3,355.7L178.3,355.7z M186.6,351l5.6-3.3c0.2-0.1,0.2-0.4,0-0.5
			l-6-3.4c-0.3-0.1-0.6-0.1-0.9,0l-5.5,3.2c-0.2,0.1-0.2,0.4,0,0.5l6,3.4C186.1,351.1,186.4,351.1,186.6,351L186.6,351z
			 M158.2,349.6l-5.6,3.3c-0.2,0.1-0.2,0.4,0,0.5l6,3.4c0.3,0.1,0.6,0.1,0.9,0l5.6-3.3c0.2-0.1,0.2-0.4,0-0.5l-6-3.4
			C158.8,349.5,158.6,349.5,158.2,349.6L158.2,349.6z M166.5,344.9l-5.6,3.3c-0.2,0.1-0.3,0.4,0,0.5l5.9,3.4c0.3,0.1,0.6,0.1,0.9,0
			l5.6-3.3c0.2-0.1,0.2-0.4,0-0.5l-6-3.4C167.1,344.8,166.8,344.8,166.5,344.9L166.5,344.9z M199.5,325.9l-5.6,3.3
			c-0.2,0.1-0.2,0.4,0,0.5l6,3.4c0.3,0.1,0.6,0.1,0.9,0l5.6-3.3c0.2-0.1,0.2-0.4,0-0.5l-6-3.4C200.1,325.8,199.8,325.7,199.5,325.9
			L199.5,325.9z M191.3,330.6l-5.6,3.3c-0.2,0.1-0.3,0.4,0,0.5l6,3.4c0.3,0.1,0.6,0.1,0.9,0l5.6-3.3c0.2-0.1,0.3-0.4,0-0.5l-5.9-3.4
			C191.9,330.5,191.6,330.5,191.3,330.6L191.3,330.6z M207.7,321.1l-5.6,3.3c-0.2,0.1-0.3,0.4,0,0.5l6,3.4c0.3,0.1,0.6,0.1,0.9,0
			l5.6-3.3c0.2-0.1,0.3-0.4,0-0.5l-6-3.4C208.3,321,208,321,207.7,321.1L207.7,321.1z M174.7,340.1l-5.6,3.3c-0.2,0.1-0.2,0.4,0,0.5
			l5.9,3.4c0.3,0.1,0.6,0.1,0.9,0l5.6-3.3c0.2-0.1,0.2-0.4,0-0.5l-6-3.4C175.3,340,175,340,174.7,340.1L174.7,340.1z M183,335.4
			l-5.6,3.3c-0.1,0-0.2,0.2-0.2,0.3c0,0.1,0.1,0.1,0.2,0.2l6,3.4c0.3,0.1,0.6,0.1,0.9,0l5.6-3.3c0.2-0.1,0.2-0.4,0-0.5l-6-3.4
			C183.6,335.2,183.3,335.2,183,335.4L183,335.4z M174.7,367.7l5.6-3.3c0.1,0,0.2-0.2,0.2-0.3c0-0.1-0.1-0.1-0.2-0.2l-5.9-3.4
			c-0.3-0.1-0.6-0.1-0.9,0l-5.6,3.3c-0.2,0.1-0.2,0.4,0,0.5l5.9,3.4C174.1,367.8,174.5,367.8,174.7,367.7L174.7,367.7z M128.8,364.2
			l-6-3.4c-0.3-0.1-0.6-0.1-0.9,0l-5.5,3.2c-0.2,0.1-0.2,0.4,0,0.5l6,3.4c0.3,0.1,0.6,0.1,0.9,0l5.6-3.3c0.1-0.1,0.2-0.2,0.1-0.4
			C128.9,364.3,128.9,364.2,128.8,364.2L128.8,364.2z M140.3,367.4l-5.9-3.4c-0.3-0.1-0.6-0.1-0.9,0l-8.7,5c-0.2,0.1-0.3,0.4,0,0.5
			l6,3.4c0.3,0.1,0.6,0.1,0.9,0l8.7-5C140.6,367.7,140.6,367.5,140.3,367.4L140.3,367.4z M119.8,357.5l-6-3.4
			c-0.3-0.1-0.6-0.1-0.9,0l-6.9,4c-0.2,0.1-0.3,0.4,0,0.5l6,3.4c0.3,0.1,0.6,0.1,0.9,0l7-4C120.1,357.9,120.1,357.6,119.8,357.5
			L119.8,357.5z M125.1,354.4c0.3,0.1,0.6,0.1,0.9,0l5.6-3.3c0.2-0.1,0.2-0.4,0-0.5l-6-3.4c-0.3-0.1-0.6-0.1-0.8,0l-5.7,3.3
			c-0.2,0.1-0.2,0.4,0,0.5L125.1,354.4z M151.1,371l-6-3.4c-0.3-0.1-0.6-0.1-0.9,0l-10.9,6.3c-0.2,0.1-0.2,0.4,0,0.5l6,3.4
			c0.3,0.1,0.6,0.1,0.9,0l10.9-6.3C151.3,371.4,151.3,371.2,151.1,371z M155.7,378.2l-6-3.4c-0.3-0.1-0.6-0.1-0.9,0l-6.9,4
			c-0.1,0-0.2,0.2-0.2,0.3c0,0.1,0.1,0.1,0.2,0.2l6,3.4c0.3,0.1,0.6,0.1,0.9,0l6.9-4C155.9,378.5,155.9,378.3,155.7,378.2
			L155.7,378.2z M186.4,319c0.3,0.1,0.6,0.1,0.9,0l5.6-3.3c0.1,0,0.2-0.2,0.2-0.3c0-0.1-0.1-0.1-0.2-0.2l-6-3.4
			c-0.3-0.1-0.6-0.1-0.9,0l-5.6,3.3c-0.2,0.1-0.2,0.4,0,0.5L186.4,319z M170,328.5c0.3,0.1,0.6,0.1,0.9,0l5.6-3.3
			c0.1,0,0.2-0.2,0.2-0.3c0-0.1-0.1-0.2-0.2-0.2l-6-3.4c-0.3-0.1-0.6-0.1-0.9,0l-5.6,3.3c-0.2,0.1-0.2,0.4,0,0.5L170,328.5z
			 M133.4,349.7c0.3,0.1,0.6,0.1,0.9,0l5.6-3.3c0.1,0,0.2-0.2,0.2-0.3c0-0.1-0.1-0.2-0.2-0.2l-5.9-3.4c-0.3-0.1-0.6-0.1-0.9,0
			l-5.6,3.3c-0.2,0.1-0.2,0.4,0,0.5L133.4,349.7z M178.2,323.8c0.3,0.1,0.6,0.1,0.9,0l5.6-3.3c0.2-0.1,0.3-0.4,0-0.5l-6-3.4
			c-0.3-0.1-0.6-0.1-0.9,0l-5.6,3.3c-0.2,0.1-0.3,0.4,0,0.5L178.2,323.8z M161.7,333.3c0.3,0.1,0.6,0.1,0.9,0l5.6-3.3
			c0.2-0.1,0.2-0.4,0-0.5l-5.9-3.4c-0.3-0.1-0.6-0.1-0.9,0l-5.6,3.3c-0.1,0-0.2,0.2-0.2,0.3c0,0.1,0.1,0.1,0.2,0.2L161.7,333.3z
			 M160,378.7c-0.3-0.1-0.6-0.1-0.9,0l-8.7,5c-0.2,0.1-0.3,0.4,0,0.5l5.9,3.4c0.3,0.1,0.6,0.1,0.9,0l8.7-5c0.1,0,0.2-0.2,0.2-0.3
			c0-0.1-0.1-0.1-0.2-0.2L160,378.7z M149.9,340.1c0.3,0.1,0.6,0.1,0.9,0l5.6-3.3c0.2-0.1,0.2-0.4,0-0.5l-6-3.4
			c-0.3-0.1-0.6-0.1-0.9,0l-5.6,3.3c-0.2,0.1-0.2,0.4,0,0.5L149.9,340.1z M141.7,344.9c0.3,0.1,0.6,0.1,0.9,0l5.6-3.3
			c0.2-0.1,0.3-0.4,0-0.5l-5.9-3.4c-0.3-0.1-0.6-0.1-0.9,0l-5.7,3.3c-0.2,0.1-0.2,0.4,0,0.5L141.7,344.9z M312.8,290.5
			c-0.3-0.1-0.6-0.1-0.9,0l-13.9,8c-0.1,0-0.2,0.2-0.2,0.3c0,0.1,0.1,0.1,0.2,0.2l6,3.4c0.3,0.1,0.6,0.1,0.9,0l13.9-8
			c0.2-0.1,0.3-0.4,0-0.5L312.8,290.5z M294.5,301c-0.3-0.1-0.6-0.1-0.9,0l-5.6,3.3c-0.2,0.1-0.2,0.4,0,0.5l6,3.4
			c0.3,0.1,0.6,0.1,0.9,0l5.6-3.3c0.1,0,0.2-0.2,0.2-0.3c0-0.1-0.1-0.2-0.2-0.2L294.5,301z M183,362.9l5.6-3.3
			c0.2-0.1,0.3-0.4,0-0.5l-5.9-3.4c-0.3-0.1-0.6-0.1-0.9,0l-5.7,3.3c-0.2,0.1-0.2,0.4,0,0.5l5.9,3.4
			C182.4,363.1,182.7,363,183,362.9z M278,310.5c-0.3-0.1-0.6-0.1-0.9,0l-5.6,3.3c-0.2,0.1-0.3,0.4,0,0.5l6,3.4
			c0.3,0.1,0.6,0.1,0.9,0l5.6-3.3c0.2-0.1,0.3-0.4,0-0.5L278,310.5z M321,285.7c-0.3-0.1-0.6-0.1-0.9,0l-5.7,3.3
			c-0.1,0-0.2,0.2-0.2,0.3c0,0.1,0.1,0.1,0.2,0.2l6,3.4c0.3,0.1,0.6,0.1,0.9,0l5.6-3.3c0.2-0.1,0.2-0.4,0-0.5L321,285.7z
			 M335.2,284.4l-14.5-8.4c-0.3-0.1-0.6-0.1-0.9,0l-5.6,3.3c-0.2,0.1-0.2,0.4,0,0.5l14.5,8.4c0.3,0.1,0.6,0.1,0.9,0l5.6-3.3
			C335.4,284.7,335.4,284.5,335.2,284.4L335.2,284.4z M247.2,328.3c-0.3-0.1-0.6-0.1-0.9,0l-6.9,4c-0.2,0.1-0.2,0.4,0,0.5l6,3.4
			c0.3,0.1,0.6,0.1,0.9,0l6.9-4c0.2-0.1,0.3-0.4,0-0.5L247.2,328.3z M268,316.3c-0.3-0.1-0.6-0.1-0.9,0l-8.7,5
			c-0.2,0.1-0.3,0.4,0,0.5l6,3.4c0.3,0.1,0.6,0.1,0.9,0l8.7-5c0.2-0.1,0.3-0.4,0-0.5L268,316.3z M228.1,339.3
			c-0.3-0.1-0.6-0.1-0.9,0l-46.4,26.8c-0.2,0.1-0.3,0.4,0,0.5l5.9,3.4c0.3,0.1,0.6,0.1,0.9,0l46.4-26.8c0.1,0,0.2-0.2,0.2-0.3
			c0-0.1-0.1-0.2-0.2-0.2L228.1,339.3z M179.1,367.7c-0.3-0.1-0.6-0.1-0.9,0l-6.9,4c-0.2,0.1-0.3,0.4,0,0.5l6,3.4
			c0.3,0.1,0.6,0.1,0.9,0l7-4c0.1,0,0.2-0.2,0.2-0.3c0-0.1-0.1-0.2-0.2-0.2L179.1,367.7z M237.7,333.8c-0.3-0.1-0.6-0.1-0.9,0
			l-6.9,4c-0.2,0.1-0.3,0.4,0,0.5l6,3.4c0.3,0.1,0.6,0.1,0.9,0l6.9-4c0.2-0.1,0.3-0.4,0-0.5L237.7,333.8z M169.6,373.2
			c-0.3-0.1-0.6-0.1-0.9,0l-6.9,4c-0.2,0.1-0.2,0.4,0,0.5l6,3.4c0.3,0.1,0.6,0.1,0.9,0l6.9-4c0.2-0.1,0.2-0.4,0-0.5L169.6,373.2z
			 M256.8,322.8c-0.3-0.1-0.6-0.1-0.9,0l-6.9,4c-0.2,0.1-0.2,0.4,0,0.5l6,3.4c0.3,0.1,0.6,0.1,0.9,0l6.9-4c0.2-0.1,0.2-0.4,0-0.5
			L256.8,322.8z M286.3,305.8c-0.3-0.1-0.6-0.1-0.9,0l-5.7,3.2c-0.2,0.1-0.2,0.4,0,0.5l6,3.4c0.3,0.1,0.6,0.1,0.9,0l5.6-3.3
			c0.2-0.1,0.2-0.4,0-0.5L286.3,305.8z M304.6,292.8l5.6-3.3c0.2-0.1,0.2-0.4,0-0.5l-6-3.4c-0.3-0.1-0.6-0.1-0.9,0l-5.6,3.3
			c-0.2,0.1-0.2,0.4,0,0.5l6,3.4C304,292.9,304.3,292.9,304.6,292.8L304.6,292.8z M269.3,293.5l5.6-3.3c0.2-0.1,0.2-0.4,0-0.5
			l-6-3.4c-0.3-0.1-0.6-0.1-0.9,0l-5.6,3.3c-0.2,0.1-0.2,0.4,0,0.5l6,3.4C268.7,293.6,269,293.6,269.3,293.5L269.3,293.5z
			 M249,324.8l16.5-9.5c0.1,0,0.2-0.2,0.2-0.3c0-0.1-0.1-0.1-0.2-0.2l-6-3.4c-0.3-0.1-0.6-0.1-0.9,0l-16.5,9.5
			c-0.1,0-0.2,0.2-0.2,0.3c0,0.1,0.1,0.1,0.2,0.2l6,3.4C248.4,324.9,248.7,324.9,249,324.8z M295.4,297.5c0.3,0.1,0.6,0.1,0.9,0
			l5.6-3.3c0.2-0.1,0.2-0.4,0-0.5l-6-3.4c-0.3-0.1-0.6-0.1-0.9,0l-5.6,3.3c-0.1,0-0.2,0.2-0.2,0.3c0,0.1,0.1,0.1,0.2,0.2
			L295.4,297.5z M287.8,292.6l5.6-3.3c0.2-0.1,0.2-0.4,0-0.5l-6-3.4c-0.3-0.1-0.6-0.1-0.9,0l-5.6,3.3c-0.2,0.1-0.3,0.4,0,0.5l6,3.4
			C287.2,292.7,287.5,292.7,287.8,292.6L287.8,292.6z M240.8,329.6l5.6-3.3c0.2-0.1,0.2-0.4,0-0.5l-6-3.4c-0.3-0.1-0.6-0.1-0.9,0
			l-5.6,3.3c-0.2,0.1-0.2,0.4,0,0.5l5.9,3.4C240.1,329.7,240.4,329.7,240.8,329.6L240.8,329.6z M277.2,308c0.3,0.1,0.6,0.1,0.9,0
			l5.6-3.3c0.2-0.1,0.3-0.4,0-0.5l-6-3.4c-0.3-0.1-0.6-0.1-0.9,0l-5.6,3.3c-0.2,0.1-0.3,0.4,0,0.5L277.2,308z M199.5,353.4l5.6-3.3
			c0.2-0.1,0.3-0.4,0-0.5l-5.9-3.4c-0.3-0.1-0.6-0.1-0.9,0l-5.6,3.3c-0.2,0.1-0.3,0.4,0,0.5l6,3.4
			C198.9,353.5,199.2,353.5,199.5,353.4L199.5,353.4z M207.7,348.6l5.6-3.3c0.2-0.1,0.2-0.4,0-0.5l-6-3.4c-0.3-0.1-0.6-0.1-0.9,0
			l-5.6,3.3c-0.2,0.1-0.2,0.4,0,0.5l6,3.4C207.1,348.7,207.5,348.8,207.7,348.6L207.7,348.6z M191.2,358.1l5.6-3.3
			c0.2-0.1,0.2-0.4,0-0.5l-6-3.4c-0.3-0.1-0.6-0.1-0.9,0l-5.6,3.3c-0.2,0.1-0.2,0.4,0,0.5l6,3.4C190.6,358.3,191,358.3,191.2,358.1
			L191.2,358.1z M224.2,339.1l5.6-3.3c0.2-0.1,0.2-0.4,0-0.5l-6-3.4c-0.3-0.1-0.6-0.1-0.9,0l-5.6,3.3c-0.2,0.1-0.2,0.4,0,0.5l6,3.4
			C223.6,339.2,224,339.2,224.2,339.1L224.2,339.1z M216,343.9l5.6-3.3c0.2-0.1,0.3-0.4,0-0.5l-6-3.4c-0.3-0.1-0.6-0.1-0.9,0
			l-5.6,3.3c-0.2,0.1-0.3,0.4,0,0.5l6,3.4C215.4,344,215.7,344,216,343.9z M232.5,334.3l5.6-3.3c0.1,0,0.2-0.2,0.2-0.3
			c0-0.1-0.1-0.2-0.2-0.2l-6-3.4c-0.3-0.1-0.6-0.1-0.9,0l-5.6,3.3c-0.2,0.1-0.2,0.4,0,0.5l5.9,3.4
			C231.9,334.5,232.2,334.5,232.5,334.3L232.5,334.3z M273.9,266c0.3,0.1,0.6,0.1,0.9,0l5.6-3.3c0.2-0.1,0.2-0.4,0-0.5l-1.6-0.9
			c-0.3-0.1-0.6-0.1-0.9,0l-5.6,3.3c-0.2,0.1-0.2,0.4,0,0.5L273.9,266z M233.1,292.1c0.3,0.1,0.6,0.1,0.9,0l5.6-3.3
			c0.2-0.1,0.2-0.4,0-0.5l-6-3.4c-0.3-0.1-0.6-0.1-0.9,0l-5.6,3.3c-0.1,0-0.2,0.2-0.2,0.3c0,0.1,0.1,0.1,0.2,0.2L233.1,292.1z
			 M249.6,282.6c0.3,0.1,0.6,0.1,0.9,0l5.6-3.3c0.2-0.1,0.2-0.4,0-0.5l-6-3.4c-0.3-0.1-0.6-0.1-0.9,0l-5.6,3.3
			c-0.1,0-0.2,0.2-0.2,0.3c0,0.1,0.1,0.1,0.2,0.2L249.6,282.6z M223,297.9c0.3,0.1,0.6,0.1,0.9,0l5.6-3.3c0.2-0.1,0.2-0.4,0-0.5
			l-6-3.4c-0.3-0.1-0.6-0.1-0.9,0l-5.6,3.3c-0.2,0.1-0.2,0.4,0,0.5L223,297.9z M241.3,287.3c0.3,0.1,0.6,0.1,0.9,0l5.6-3.3
			c0.2-0.1,0.3-0.4,0-0.5l-6-3.4c-0.3-0.1-0.6-0.1-0.9,0l-5.6,3.3c-0.2,0.1-0.3,0.4,0,0.5L241.3,287.3z M206.5,307.4
			c0.3,0.1,0.6,0.1,0.9,0l5.6-3.3c0.2-0.1,0.2-0.4,0-0.5l-6-3.4c-0.3-0.1-0.6-0.1-0.9,0l-5.6,3.3c-0.2,0.1-0.2,0.4,0,0.5
			L206.5,307.4z M214.8,302.7c0.3,0.1,0.6,0.1,0.9,0l5.6-3.3c0.2-0.1,0.3-0.4,0-0.5l-5.9-3.4c-0.3-0.1-0.6-0.1-0.9,0l-5.6,3.3
			c-0.2,0.1-0.3,0.4,0,0.5L214.8,302.7z M257.4,275.5c0.3,0.1,0.6,0.1,0.9,0l5.6-3.3c0.2-0.1,0.2-0.4,0-0.5l-1.6-0.9
			c-0.3-0.1-0.6-0.1-0.9,0l-5.6,3.3c-0.2,0.1-0.3,0.4,0,0.5L257.4,275.5z M282.1,261.3c0.3,0.1,0.6,0.1,0.9,0l5.6-3.3
			c0.2-0.1,0.3-0.4,0-0.5l-1.6-0.9c-0.3-0.1-0.6-0.1-0.9,0l-5.6,3.3c-0.1,0-0.2,0.2-0.2,0.3c0,0.1,0.1,0.2,0.2,0.2L282.1,261.3z
			 M294.6,268.5c0.3,0.1,0.6,0.1,0.9,0l5.6-3.3c0.2-0.1,0.2-0.4,0-0.5l-6-3.4c-0.3-0.1-0.6-0.1-0.9,0l-5.6,3.3
			c-0.2,0.1-0.2,0.4,0,0.5L294.6,268.5z M312.8,288l5.6-3.3c0.2-0.1,0.3-0.4,0-0.5l-6-3.4c-0.3-0.1-0.6-0.1-0.9,0L306,284
			c-0.2,0.1-0.3,0.4,0,0.5l6,3.4C312.2,288.1,312.5,288.1,312.8,288z M265.6,270.8c0.3,0.1,0.6,0.1,0.9,0l5.6-3.3
			c0.2-0.1,0.2-0.4,0-0.5l-1.6-0.9c-0.3-0.1-0.6-0.1-0.9,0l-5.7,3.2c-0.2,0.1-0.2,0.4,0,0.5L265.6,270.8z M198.3,312.2
			c0.3,0.1,0.6,0.1,0.9,0l5.6-3.3c0.2-0.1,0.2-0.4,0-0.5l-5.9-3.5c-0.3-0.1-0.6-0.1-0.9,0l-5.6,3.3c-0.2,0.1-0.2,0.4,0,0.5
			L198.3,312.2z"/>
		<path class="st7" d="M228.5,360.7l50.8-29.3c1.7-0.9,3.8-0.9,5.5,0l29.2,16.8c1.5,0.9,1.5,2.3,0,3.2l-50.8,29.3
			c-1.7,0.9-3.8,0.9-5.5,0l-29.1-16.8C227,363,227,361.5,228.5,360.7z"/>
	</g>
</g>
<g id="freepik--Shield--inject-2">
	<g>
		<g id="freepik--shield--inject-2">
			<path class="st2" d="M219.9,138.2c-15.9,14.3-29.6,13.5-38.2,6.9c-8.6,16.5-22.3,33.1-38.2,37.2l-9.1,24.5c0,0,4.9,5.6,4.9,19
				c0,5.6-0.8,11.2-2.3,16.6c-1.6,6.6-3.8,13.4-3.8,24.9c0,7.7,1,15.3,4.9,22.1c2.4,4.1,5.8,7.6,9.9,10l-13.8-8
				c-4.3-2.4-8-5.9-10.4-10.3c-3.9-6.9-4.9-14.4-4.9-22.1c0-11.4,2.1-18.3,3.8-24.9c1.4-5.4,2.2-11,2.2-16.6c0-13.4-4.9-19-4.9-19
				l9.1-24.5c15.9-4.1,29.6-20.6,38.2-37.2c8.6,6.6,22.3,7.4,38.2-6.9L219.9,138.2z"/>
			<path class="st9" d="M172.4,139.8l-5-2.9C169,138.1,170.6,139.1,172.4,139.8z"/>
			<path class="st10" d="M205.6,130c-13.1,11.7-24.7,13.3-33.1,9.8l9.3,5.4c8.6,6.6,22.3,7.4,38.2-6.9L205.6,130z"/>
			<path class="st11" d="M167.4,136.9c-8.6,16.5-22.3,33.1-38.2,37.2l14.3,8.3c15.9-4.1,29.6-20.6,38.2-37.2L167.4,136.9z"/>
			<polygon class="st12" points="129.2,174.1 120.2,198.6 134.5,206.8 143.5,182.3 			"/>
			<path class="st13" d="M138.2,289.5c-3.9-6.9-4.9-14.4-4.9-22.1c0-11.4,2.1-18.3,3.8-24.9c1.4-5.4,2.2-11,2.3-16.6
				c0-13.4-4.9-19-4.9-19l-14.3-8.3c0,0,4.9,5.6,4.9,19c0,5.6-0.8,11.2-2.3,16.6c-1.7,6.6-3.8,13.5-3.8,24.9c0,7.8,1,15.3,4.9,22.1
				c2.5,4.3,6.1,7.8,10.5,10.3l13.8,8C144,297,140.6,293.6,138.2,289.5z"/>
			<path class="st14" d="M138.2,289.5c-3.9-6.9-4.9-14.4-4.9-22.1c0-11.4,2.1-18.3,3.8-24.9c1.4-5.4,2.2-11,2.3-16.6
				c0-13.4-4.9-19-4.9-19l-14.3-8.3c0,0,4.9,5.6,4.9,19c0,5.6-0.8,11.2-2.3,16.6c-1.7,6.6-3.8,13.5-3.8,24.9c0,7.8,1,15.3,4.9,22.1
				c2.5,4.3,6.1,7.8,10.5,10.3l13.8,8C144,297,140.6,293.6,138.2,289.5z"/>
			<path class="st2" d="M181.7,306.2c-23.7,0.3-37.3-6-43.5-16.8c-3.9-6.9-4.9-14.4-4.9-22.1c0-11.4,2.1-18.3,3.8-24.9
				c1.4-5.4,2.2-11,2.3-16.6c0-13.4-4.9-19-4.9-19l9.1-24.5c15.9-4.1,29.6-20.7,38.2-37.2c8.6,6.6,22.3,7.4,38.2-6.9l9.1,14
				c-3.1,7.8-4.8,16.2-4.9,24.6c-0.1,4.8,0.7,9.5,2.3,14c1.6,4.7,3.8,9.1,3.8,20.5c0,9.5-1.7,18.9-4.9,27.8
				C219,257.1,205.4,279.1,181.7,306.2z"/>
			<path class="st15" d="M181.7,306.2c-23.7,0.3-37.3-6-43.5-16.8c-3.9-6.9-4.9-14.4-4.9-22.1c0-11.4,2.1-18.3,3.8-24.9
				c1.4-5.4,2.2-11,2.3-16.6c0-13.4-4.9-19-4.9-19l9.1-24.5c15.9-4.1,29.6-20.7,38.2-37.2c8.6,6.6,22.3,7.4,38.2-6.9l9.1,14
				c-3.1,7.8-4.8,16.2-4.9,24.6c-0.1,4.8,0.7,9.5,2.3,14c1.6,4.7,3.8,9.1,3.8,20.5c0,9.5-1.7,18.9-4.9,27.8
				C219,257.1,205.4,279.1,181.7,306.2z"/>
			<path class="st2" d="M178.9,300.1c-18.4-0.2-30.3-4.8-35.3-13.7c-2.9-5-4.1-10.9-4.1-19.1c0-7.1,1-14.3,3-21.1
				c0.2-0.8,0.4-1.5,0.6-2.3c1.6-5.9,2.4-12,2.4-18.1c0-9.8-2.3-16.2-4.2-19.7l7-18.8c17-5.9,29.3-22.7,35.8-33.7
				c3.5,1.5,7.3,2.3,11.1,2.2c7.7,0,15.5-2.9,23.3-8.5l3.6,5.7c-2.7,7.7-4.1,15.7-4.2,23.9c-0.1,5.5,0.8,10.9,2.6,16.1
				c0.2,0.5,0.4,1.1,0.6,1.6c1.5,4,2.8,7.8,2.8,16.8c0,8.8-1.6,17.5-4.6,25.8C213.3,254.9,199.7,276,178.9,300.1z"/>
			<path class="st13" d="M178.9,300.1c-18.4-0.2-30.3-4.8-35.3-13.7c-2.9-5-4.1-10.9-4.1-19.1c0-7.1,1-14.3,3-21.1
				c0.2-0.8,0.4-1.5,0.6-2.3c1.6-5.9,2.4-12,2.4-18.1c0-9.8-2.3-16.2-4.2-19.7l7-18.8c17-5.9,29.3-22.7,35.8-33.7
				c3.5,1.5,7.3,2.3,11.1,2.2c7.7,0,15.5-2.9,23.3-8.5l3.6,5.7c-2.7,7.7-4.1,15.7-4.2,23.9c-0.1,5.5,0.8,10.9,2.6,16.1
				c0.2,0.5,0.4,1.1,0.6,1.6c1.5,4,2.8,7.8,2.8,16.8c0,8.8-1.6,17.5-4.6,25.8C213.3,254.9,199.7,276,178.9,300.1z"/>
			<path class="st16" d="M178.9,300.1c-18.4-0.2-30.3-4.8-35.3-13.7c-2.9-5-4.1-10.9-4.1-19.1c0-7.1,1-14.3,3-21.1
				c0.2-0.8,0.4-1.5,0.6-2.3c1.6-5.9,2.4-12,2.4-18.1c0-9.8-2.3-16.2-4.2-19.7l7-18.8c17-5.9,29.3-22.7,35.8-33.7
				c3.5,1.5,7.3,2.3,11.1,2.2c7.7,0,15.5-2.9,23.3-8.5l3.6,5.7c-2.7,7.7-4.1,15.7-4.2,23.9c-0.1,5.5,0.8,10.9,2.6,16.1
				c0.2,0.5,0.4,1.1,0.6,1.6c1.5,4,2.8,7.8,2.8,16.8c0,8.8-1.6,17.5-4.6,25.8C213.3,254.9,199.7,276,178.9,300.1z"/>
			<path class="st9" d="M147.8,291.5c6.3,5.5,16.7,8.4,31.1,8.6l-9.2-5.3C162.2,294.9,154.9,293.8,147.8,291.5z"/>
			<polygon class="st16" points="217.3,150.2 222.1,153 218.4,147.4 216.3,148.8 			"/>
			<path class="st8" d="M215.7,190.2c-1.8-5.2-2.7-10.6-2.6-16.1c0.1-8.1,1.5-16.2,4.2-23.9l-0.9-1.4c-7.1,4.7-14.2,7.1-21.2,7.1
				c-3.8,0-7.6-0.7-11.1-2.2c-6.5,11-18.8,27.8-35.8,33.7l-7,18.8c1.9,3.5,4.2,9.9,4.2,19.7c0,6.1-0.9,12.2-2.4,18.1
				c-0.2,0.8-0.4,1.5-0.6,2.3c-2,6.9-3,14-3,21.1c0,8.2,1.3,14.1,4.1,19.1c1.5,2.6,3.6,4.8,6,6.5c6.1,2.8,14.3,4.3,24.5,4.4
				c20.8-24.1,34.4-45.2,40.5-62.8c3-8.3,4.6-17,4.6-25.8c0-9.1-1.4-12.8-2.9-16.8C216.1,191.3,215.9,190.7,215.7,190.2z"/>
			<path class="st6" d="M148.3,187.3l-7,18.8c1.9,3.5,4.2,9.9,4.2,19.7c0,6.1-0.9,12.2-2.4,18.1c-0.2,0.8-0.4,1.5-0.6,2.3
				c-2,6.9-3,14-3,21.1c0,8.2,1.3,14.1,4.1,19.1c1.5,2.6,3.6,4.8,6,6.5c6.1,2.8,14.3,4.3,24.5,4.4V228l10-3v-71.4
				c-3,5-6.3,9.8-10,14.2C167.4,175.9,158.7,183.7,148.3,187.3z"/>
		</g>
		<path class="st7" d="M198.1,202.4c-0.1-0.2-0.2-0.4-0.4-0.6l-0.1-0.1c-0.3-0.3-0.6-0.6-1-0.8l-3.3-1.9c-0.6-0.3-1.2-0.6-1.9-0.7
			c-0.4-0.1-0.8-0.2-1.2-0.2v-9.9c0-4.9-1.9-8.9-5.1-10.7s-7-1.6-10.8,0.7c-7.1,4.1-12.7,14.1-12.7,22.8v11.6l-6.6,3.8
			c-0.2,0.1-0.4,0.2-0.6,0.4l-0.2,0.1l0,0c-0.5,0.4-0.9,1.1-0.9,1.8v39.9c0,0.2,0,0.3,0.1,0.5c0.2,0.7,0.7,1.2,1.3,1.6l0.4,0.2
			l1.6,0.9l1.7,1c0.7,0.4,1.4,0.6,2.1,0.8c2,0.5,4.2,0.2,6.1-0.8l30.2-17.4c1-0.4,1.6-1.3,1.7-2.4v-39.9
			C198.4,203,198.3,202.7,198.1,202.4z M168.1,201.1c0-6.4,4.3-14.2,9.4-17.2c1.7-1,3.3-1.3,4.3-0.7c1.2,0.7,1.9,2.6,1.9,5.1v11.6
			l-8.6,5l-7,4L168.1,201.1z"/>
		<g id="freepik--Padlock--inject-2">
			<path class="st2" d="M201.9,205.1c-0.1-1-0.7-1.9-1.7-2.4l-3.3-1.9c-2.6-1.3-5.6-1.3-8.2,0l-30.2,17.4c-1,0.4-1.6,1.3-1.7,2.4
				l0,0v39.9l0,0c0.1,1,0.7,2,1.7,2.4l3.3,1.9c2.6,1.3,5.6,1.3,8.2,0l30.2-17.5c1-0.4,1.6-1.3,1.7-2.4l0,0V205.1z"/>
			<path class="st13" d="M161.8,225l-3.3-2c-2.3-1.3-2.3-3.4,0-4.7l30.2-17.4c2.6-1.3,5.6-1.3,8.2,0l3.3,1.9c2.3,1.3,2.3,3.4,0,4.7
				L170,225C167.4,226.3,164.3,226.3,161.8,225z"/>
			<path class="st3" d="M165.9,225.9v39.9c-1.4,0-2.8-0.3-4.1-1l-3.3-1.9c-1-0.4-1.6-1.3-1.7-2.4v-40c0.1,1,0.7,1.9,1.7,2.4l3.3,1.9
				C163,225.6,164.4,226,165.9,225.9z"/>
			<path class="st8" d="M187.9,245.7l-7.2,4.2l1.1-13.1c-0.9-0.5-1.4-1.6-1.4-3.2c0-2.9,1.7-6.2,3.9-7.5s3.9,0.1,3.9,3
				c0,1.7-0.5,3.4-1.4,4.8L187.9,245.7z"/>
			<polygon class="st6" points="187.9,245.7 181.3,241.9 180.6,249.9 			"/>
			<path class="st6" d="M184.3,226.1c-1.6,1.1-2.7,2.6-3.3,4.4l5.8,3.4l0,0c0.9-1.5,1.4-3.1,1.4-4.8
				C188.1,226.2,186.4,224.9,184.3,226.1z"/>
			<path class="st1" d="M193.7,206L193.7,206v-16c0-5-1.9-8.9-5.1-10.7s-7-1.6-10.8,0.7c-7.1,4.1-12.7,14.1-12.7,22.8v16.1l0,0
				c0.1,0.6,0.4,1.1,1,1.3c1.5,0.7,3.2,0.7,4.6,0c0.6-0.2,0.9-0.7,1-1.3l0,0v-16c0-6.4,4.3-14.2,9.4-17.2c1.7-1,3.3-1.3,4.3-0.7
				c1.2,0.7,1.9,2.6,1.9,5.1v16l0,0c0.1,0.6,0.4,1.1,1,1.3c1.5,0.7,3.2,0.7,4.6,0c0.5-0.2,0.9-0.7,1-1.3l0,0L193.7,206z"/>
		</g>
	</g>
</g>
<g id="freepik--Key--inject-2">
	<g id="freepik--key--inject-2">
		<polyline class="st2" points="232.6,276.2 237,273.7 238.7,271.5 234.3,274.1 232.6,276.2 		"/>
		<polyline class="st17" points="232.6,276.2 237,273.7 238.7,271.5 234.3,274.1 232.6,276.2 		"/>
		<polyline class="st2" points="244.5,283.1 248.9,280.6 252.6,277.3 248.2,279.9 244.5,283.1 		"/>
		<polyline class="st17" points="244.5,283.1 248.9,280.6 252.6,277.3 248.2,279.9 244.5,283.1 		"/>
		<path class="st2" d="M282,291.9c1,1.4,1.7,3.1,1.8,4.8C282.8,295.3,282.2,293.6,282,291.9z M292.2,292c-1.5-10.1-6.9-20-13.4-23.8
			c-3.1-1.8-6-1.9-8.3-0.5l-4.1,2.4l-0.2,0.1c-0.2,0.1-0.4,0.2-0.5,0.3c-0.4,0.2-0.7,0.5-1,0.8l-0.1,0.1c-0.1,0.1-0.3,0.3-0.4,0.4
			s-0.3,0.4-0.4,0.5c-0.3,0.4-0.6,0.8-0.8,1.2c-0.1,0.2-0.3,0.5-0.4,0.7l-36.2-20.9l-4.4,2.5v2.8l0.4,0.2l0.4,0.2v0.6l-0.7,0.4v1.6
			l5.3,11.3l5.3,3l1.7-2.1l4.6,2.8l2.7,4.6l2.9,1.7l3.7-3.3l4.5,2.6l1.5,6.3l7.6,4.4c0.4,1.6,0.9,3.2,1.4,4.7l0.2,0.5
			c2.5,6.6,6.5,12.3,11,14.9c0.5,0.3,1.1,0.6,1.7,0.8c0.3,0.1,0.6,0.2,1,0.3c0.3,0.1,0.6,0.1,0.8,0.2c0.9,0.2,1.8,0.2,2.7,0l0.4-0.1
			c0.2,0,0.3-0.1,0.5-0.1l0.4-0.1c0.1-0.1,0.3-0.1,0.4-0.2l0.4-0.2l0.2-0.1l0.1,0l4.1-2.4c3.3-1.9,5.5-6.8,5.5-13.8
			C292.6,295.6,292.4,293.8,292.2,292L292.2,292z"/>
		<path class="st2" d="M280.7,300.4c-1.7-1-3.1-4-3.1-6.6s1.4-4,3.1-3s3.1,4,3.1,6.7S282.4,301.4,280.7,300.4z M287.8,294.6
			c-1.5-10.1-6.9-20-13.4-23.8c-3-1.7-5.8-1.9-8-0.7l-0.2,0.1c-0.2,0.1-0.4,0.2-0.5,0.3c-0.4,0.2-0.7,0.5-1,0.8l-0.1,0.1
			c-0.1,0.1-0.3,0.3-0.4,0.4s-0.3,0.4-0.4,0.5c-0.3,0.4-0.6,0.8-0.8,1.2c-0.1,0.2-0.3,0.5-0.4,0.7c-0.6,1.4-1.1,2.8-1.4,4.3L222,256
			v2.8l0.4,0.2l0.4,0.2v0.6l-0.7,0.4v1.6l5.3,11.3l5.3,3l1.7-2.1l4.6,2.8l2.7,4.6l2.9,1.7l3.7-3.3l4.5,2.6l1.5,6.3l7.6,4.4
			c0.4,1.6,0.9,3.2,1.4,4.7l0.2,0.5c2.5,6.6,6.5,12.3,11,14.9c0.5,0.3,1.1,0.6,1.7,0.8c0.3,0.1,0.6,0.2,1,0.3
			c0.3,0.1,0.6,0.1,0.8,0.2c0.9,0.2,1.8,0.2,2.7,0l0.4-0.1c0.2,0,0.3-0.1,0.5-0.1l0.4-0.1c0.1-0.1,0.3-0.1,0.4-0.2l0.4-0.2l0.2-0.1
			l0.1,0c3.2-2,5.3-6.9,5.3-13.6C288.2,298.1,288,296.3,287.8,294.6z"/>
		<path class="st17" d="M283.8,297.4c0,2.7-1.4,4-3.1,3s-3.1-4-3.1-6.6s1.4-4,3.1-3c0.5,0.3,1,0.7,1.3,1.2c0.2,1.7,0.8,3.4,1.8,4.8
			C283.8,296.9,283.8,297.1,283.8,297.4z"/>
		<path class="st13" d="M292.6,297.4c0,6.9-2.2,11.8-5.5,13.8l-4.1,2.4c3.2-2,5.3-6.9,5.3-13.6c0-1.8-0.1-3.6-0.4-5.3
			c-1.5-10.1-6.9-20-13.4-23.8c-3-1.7-5.8-1.9-8-0.7l4.1-2.4c2.3-1.3,5.2-1.3,8.3,0.5c6.5,3.8,11.9,13.8,13.3,23.8
			C292.5,293.8,292.6,295.6,292.6,297.4z"/>
		<path class="st2" d="M288.2,299.9c0,6.8-2.1,11.6-5.3,13.6l4.1-2.4c3.3-1.9,5.5-6.8,5.5-13.8c0-0.3,0-0.5,0-0.8l-4.4,2.5
			C288.2,299.4,288.2,299.6,288.2,299.9z"/>
		<path class="st3" d="M288.2,299.9c0,6.8-2.1,11.6-5.3,13.6l4.1-2.4c3.3-1.9,5.5-6.8,5.5-13.8c0-0.3,0-0.5,0-0.8l-4.4,2.5
			C288.2,299.4,288.2,299.6,288.2,299.9z"/>
		<polygon class="st16" points="261.3,281.6 261.3,283 222,260.3 222.7,259.9 222.7,259.3 		"/>
		<polygon class="st16" points="261.3,282.2 261.3,283 222,260.3 222.7,259.9 222.7,259.9 		"/>
		<path class="st16" d="M278.5,311.2c-1.5,0-2.9-0.5-4.2-1.3c-6.4-3.7-11.6-14.7-11.6-24.6c0-5.7,1.7-10,4.8-11.8
			c2.1-1.2,4.6-1.1,7.2,0.4c6.4,3.7,11.6,14.7,11.6,24.6c0,5.7-1.7,10-4.8,11.8C280.6,310.9,279.5,311.2,278.5,311.2z M270.5,273.5
			c-0.9,0-1.9,0.2-2.7,0.7c-2.8,1.6-4.4,5.8-4.4,11.1c0,9.6,5,20.3,11.3,23.9c2.4,1.4,4.6,1.5,6.5,0.5c2.8-1.6,4.4-5.8,4.4-11.1
			c0-9.6-5-20.4-11.3-23.9C273.1,273.9,271.8,273.5,270.5,273.5L270.5,273.5z"/>
		<path class="st18" d="M262.6,274.4c-0.6,1.4-1.1,2.8-1.4,4.3L222,256l4.4-2.5L262.6,274.4z"/>
	</g>
</g>
<g id="freepik--Character--inject-2">
	<g id="freepik--character--inject-2">
		<path class="st7" d="M412,385c0.1,1.4,0.3,5.2,7.3,6.2s11.3-1.4,13.2-4.7s1.4-6.1,1.7-9.2s2.9-4.8,3.6-6.4c1.1-2.4-0.5-6-0.5-6
			L412,385z"/>
		<path class="st7" d="M361.2,374.1c-0.3,1.1-0.2,2.4,0.5,3.4c3.1,2.5,7.2,3.6,11.2,3c4.2-0.6,8.3-2.2,11.8-4.6
			c2.7-1.8,5.9-2.7,9.1-2.6c3.4-0.1,5.8-0.9,6.1-1.7c0.4-1.5,0.4-2.5-0.3-2.5L361.2,374.1z"/>
		<path class="st19" d="M435.7,359.6c-0.9,6.4-13.2,5.8-12.2,0.8l-2.2-15.4l13.9,0.4L435.7,359.6z"/>
		<path class="st6" d="M412.5,381.9c0.6-1.1,2.4-2.8,3.2-3.8c4.2-5.3,6.7-11.7,7.2-18.5c0-0.4,0.1-1.1,0.5-1.3s0.8,0.1,1.1,0.3l0,0
			l0,0c0.7,0.3,1.4,0.5,2.2,0.6c2.5,0.3,5.2-0.3,5.8-0.2s0.6,1.5,0.6,3.1c0.9-0.5,1.2-1.6,2-2.3c0.4-0.4,0.6-0.4,0.6-0.9
			c0-0.4,0-0.7,0-1.1c0.6-0.2,1.2,2.2,1.7,4.1c0.6,2.1,1.4,4.6,0.5,6.8c-0.5,1.2-1.2,2.3-2,3.4c-1.3,1.8-2.2,3.9-2.5,6.2
			c-0.1,1,0,2-0.2,2.9c-0.5,3.3-2.8,6.1-6.1,7.1c-4.3,1.3-10.6,1.1-14.4-1.9C411.4,385.2,411.8,383,412.5,381.9z"/>
		<path class="st19" d="M396.6,358.5c-3.4,2.6-7.4,4.2-11.6,2.3l-1-25.9l14,2.5L396.6,358.5z"/>
		<path class="st6" d="M364,369.7c0.9-0.3,1.8-0.6,2.7-1c2.5-1,4.9-2.2,7.3-3.7c1-0.6,2-1.3,3-2s2-1.5,3-2.3c0.5-0.5,1-1,1.4-1.5
			c0.8-1,1.5-2.2,2.1-3.4c0.1-0.3,0.3-0.5,0.5-0.7c0.3-0.1,0.7,0,1,0.2c0.2,0.2,0.5,0.4,0.8,0.5l0.8,0.3c0.9,0.4,1.8,0.6,2.7,0.7
			c3.5,0.3,3.6-0.4,3.8,0.7c0,0.4,0,0.9,0,1.3c1.9-0.3,3.3-0.9,3.4-1.6l0.2-2.3c1.9-0.2,2,3.2,2.6,6.9c0.5,3,1.2,5.2,0.4,7.4
			c-2.8,2.5-7.8,1.9-10.6,2.3c-4,0.7-5.9,3.6-11.4,5.5c-9,3.1-14.6-0.5-16.3-2C360.4,373.2,360.2,370.9,364,369.7z"/>
		<path class="st7" d="M431.7,205.2c0.7,11,2,27.1,2.5,39.8c0.8,23.9,0.5,51.1,0.5,51.1c1.3,5,2.2,10.1,2.6,15.3
			c0.6,15.3,0.5,49.5,0.5,49.5s-6.3,6.4-15.8,1.4c0,0-8.4-48-10.7-63.1c-2.2-14.4-6.6-43-6.6-43l-2,40.7c1.5,6.4,2,13,1.5,19.5
			c-0.5,7-4.5,41.5-4.5,41.5c-3.6,3.4-14.2,1.5-16.6-1.2c0,0-3.7-51-4.1-58.4c-0.9-15.9-3.3-75.3-2.1-84.6S431.7,205.2,431.7,205.2z
			"/>
		<path d="M404.6,256.2l-2.8-18.4c0,0-7.6-1.4-13.2-5.6c0,0,2.2,4.9,10.6,8.4l2.8,17.1l0.7,39.1L404.6,256.2z"/>
		<path class="st7" d="M420.2,131.4c0.5,2.1,4,1.8,5.6,1.4c1.9-0.4,3.2-2.2,3.1-4.1c0.8-0.2,1.5-0.6,2-1.3c0.8-1,0.8-2.4,0.1-3.4
			c1.3-0.9,2-2.5,1.7-4.1c-0.2-1.1-0.8-2.1-1.7-2.8c-0.9-0.7-1.9-1.1-3.1-1.1c-0.4,0-0.7,0.7-0.2,0.8c0.8,0.2,1.6,0.5,2.2,1
			c0.7,0.5,1.2,1.1,1.5,1.9c0.4,1.3,0,2.6-1.1,3.4c-0.2-0.2-0.4-0.4-0.6-0.6c-0.7-0.6-1.6-0.9-2.5-0.9c-0.7,0-1.4,0.4-1.7,1
			c-0.2,0.8,0.6,1.4,1.2,1.8c0.9,0.5,1.9,0.6,2.9,0.3c0.1,0,0.2-0.1,0.2-0.1c0.1,0.1,0.1,0.2,0.1,0.3c0.5,1.4-0.3,2.3-1.5,2.7
			c-0.7-1.5-2.6-2.5-4.2-1.8c-0.7,0.3-1,1-0.7,1.7c0.1,0.2,0.2,0.3,0.3,0.4c0.6,0.6,1.5,0.9,2.4,0.9c0.4,0,0.8,0,1.2,0
			c0.1,0.6-0.1,1.3-0.4,1.8c-0.7,0.8-1.8,1.3-2.9,1.2c-1.2,0.1-2.5-0.3-3.4-1.1C420.5,130.7,420.1,131.1,420.2,131.4z M429.3,123.7
			c-0.7,0.2-1.4,0.1-1.9-0.3c-0.4-0.3-0.9-0.7-0.1-0.7C428.1,122.7,428.8,123.1,429.3,123.7z M427.2,127.9c-0.4,0-0.8,0-1.3-0.1
			c-0.3-0.1-1.6-0.7-0.9-1c0.5-0.2,1.4,0.3,1.8,0.6C427,127.5,427.1,127.7,427.2,127.9z"/>
		<path class="st7" d="M422.6,92.8c0.2,0,0.4,0.1,0.6,0.1c-0.3-1.4,0.3-2.8,1.6-3.4c1.6-0.6,3.5,0.1,4.1,1.7l-4.5,2.1
			c1.5,0.5,2.7,1.6,3.5,2.9c1.2,2.6-0.4,8-2,14.7c-0.9,4.2-2.1,8.4-3.6,12.4c-0.8,2-2.1,2-2.1,2v-6.7l0.3-5.6c0,0-3.6-4.9-4-8.9
			c-0.5-5.1,0.6-7.2,0.6-7.2L422.6,92.8z"/>
		<path class="st7" d="M398,87c6.2,0,11.3,5.1,11.3,11.3s-5.1,11.3-11.3,11.3c-6.2,0-11.3-5.1-11.3-11.3c0,0,0,0,0,0
			C386.7,92,391.8,87,398,87C398,87,398,87,398,87z"/>
		<path class="st19" d="M420.2,112.2c1.3,1.2,2.4-1.8,3.6-3s4.8-2.8,6.6,1.1s-1.7,9.3-4.4,10.5c-4,1.9-5.8-2.2-5.8-2.2v16.8
			c-4.2,7.6-13.4,5.8-17.7,6.9c-0.6-1.9-0.6-4.1,0-6v-5.4c-1.8,0.3-3.7,0.4-5.5,0.3c-3.7-0.6-5.6-3.6-6.7-7.6
			c-1.8-6.4-2.1-17.1,0.3-29.4c4.1-3.2,17.9-2.6,26.5,2.8C416.4,108,418.9,111.1,420.2,112.2z"/>
		<path class="st20" d="M402.4,130.9c0,0,8.2-1.6,11-3.1c1.7-0.9,3.1-2.2,4-3.9c-0.4,1.7-1.2,3.2-2.3,4.6
			c-2.1,2.7-12.7,4.6-12.7,4.6L402.4,130.9z"/>
		<path class="st7" d="M384.9,105.6c0.1,0.6,0.3,1.3,0.8,1.8c0.1,0.2,0.2,0.4,0.3,0.6c0.2,1.6,0.5,3.2,1,4.7c0.8,2.1,2.8,3.5,5,3.4
			c0.6,0,1.2,0,1.7-0.1c0,0,0.1,0,0.1,0c0.5-0.1,1-0.3,1.4-0.5h0.1l0.1-0.1l0.1-0.1c0.1,0,0.1-0.1,0.1-0.1c0.1,0,0.1-0.1,0.2-0.1
			l0.1-0.1l0.3-0.3c0.5-0.5,0.9-1.1,1.1-1.8c0.8-1.6,0.6-3.9,1.8-4.2c0,0,0.1,0,0.1,0h0.2c1.6,0.1,1.4,2.6,2.3,4.4
			c1,2.3,3.4,3.8,5.9,3.7h0.5h0.4c0.3,0,0.6,0,0.9-0.1l0.3-0.1l0.3-0.1h0.2c0.3-0.1,0.7-0.3,1-0.4c0.1-0.1,0.2-0.1,0.3-0.2
			c0.2-0.1,0.4-0.3,0.6-0.5c0.5-0.5,0.8-1,1.1-1.7c0.5-1.5,0.8-3.1,1.1-4.6c0.1-0.2,0.1-0.5,0.3-0.7c0.4-0.5,0.7-1,0.8-1.7
			c0.1-0.7-0.4-1.3-1-1.5l-0.9-0.1c-2.8-0.4-6.4-0.6-8.6-0.1c-2.8,0.7-3.7,1.6-5.3,1.5s-2.3-1-4.9-1.9c-2-0.7-5.5-0.8-8.1-0.6
			c-0.3,0-0.5,0-0.8,0.1C385.3,104.2,384.9,104.9,384.9,105.6z M402.8,107.7c0.2-0.3,0.5-0.5,0.8-0.6c0,0,0.1-0.1,0.1-0.1h0.1
			c0.1-0.1,0.3-0.1,0.4-0.2c0.1,0,0.2-0.1,0.4-0.1c0.4-0.1,0.8-0.3,1.2-0.3l0.5-0.1c0.4-0.1,0.8-0.1,1.2-0.2h0.3
			c2.6-0.2,4.3,0.5,4.8,1s0.3,3,0,4.2c0,0,0,0.1,0,0.1c0,0,0,0.1,0,0.1c0,0.2-0.1,0.3-0.1,0.5c0,0.1-0.1,0.2-0.1,0.3l0,0
			c-0.1,0.2-0.1,0.3-0.2,0.5c0,0.1,0,0.1-0.1,0.2c0,0,0,0.1,0,0.1c0,0,0,0.1,0,0.1l-0.1,0.2c0,0.1-0.1,0.1-0.1,0.2
			c0,0.1-0.1,0.1-0.1,0.2c0,0.1-0.1,0.1-0.1,0.2c-0.9,1.2-2.3,1.8-3.7,1.7c-1.5,0.1-2.9-0.5-3.9-1.5c-0.6-0.7-1-1.6-1.2-2.5
			C402.5,110.1,402.3,108.4,402.8,107.7L402.8,107.7z M387.4,106.1c0.2-0.2,0.4-0.3,0.6-0.4l0,0l0.3-0.1h0.2h0.1h0.1l0,0h0.1
			c0.2,0,0.4-0.1,0.6-0.1h0.3h0.2c0.1,0,0.1,0,0.2,0c0.1,0,0.3,0,0.4,0h0.3c0.4,0,0.8,0.1,1.2,0.1c1.9,0.3,3.8,1.2,4.3,2
			s0.4,2.4,0.1,3.8c-0.1,0.3-0.1,0.6-0.3,0.9c0,0,0,0,0,0.1c0,0,0,0.1,0,0.1c0,0,0,0,0,0.1c0,0,0,0.1,0,0.1c0,0.1-0.1,0.2-0.1,0.2
			c0,0.1-0.1,0.1-0.1,0.2v0.1l-0.1,0.1l-0.1,0.1l0,0c-0.9,1.3-2.4,1.9-3.9,1.7c-0.7,0-1.4-0.2-2-0.5c-1.8-1-2.3-3.1-2.5-4
			C387.1,109.1,386.8,106.6,387.4,106.1z"/>
		<path class="st7" d="M414.1,105.3l12,2.7c-1.1,0.3-2,0.9-2.8,1.8l-9.3-1.8L414.1,105.3z"/>
		<path class="st6" d="M387.4,110.3c0.2,1,0.6,3.1,2.5,4c0.6,0.3,1.3,0.5,2,0.5c1.5,0.2,3.1-0.4,3.9-1.7l0,0l0.1-0.1l0.1-0.1v-0.1
			c0-0.1,0.1-0.1,0.1-0.2c0-0.1,0.1-0.1,0.1-0.2c0,0,0-0.1,0-0.1c0,0,0,0,0-0.1c0,0,0-0.1,0-0.1c0,0,0,0,0-0.1
			c0.1-0.3,0.2-0.6,0.3-0.9c0.3-1.4,0.4-3-0.1-3.8s-2.4-1.7-4.3-2c-0.4-0.1-0.8-0.1-1.2-0.1h-0.3c-0.1,0-0.3,0-0.4,0
			c-0.1,0-0.1,0-0.2,0h-0.2h-0.3c-0.2,0-0.4,0-0.6,0.1h-0.1l0,0h-0.1h-0.1h-0.2l-0.3,0.1l0,0c-0.2,0.1-0.5,0.2-0.6,0.4
			C386.8,106.6,387.1,109.1,387.4,110.3z"/>
		<path class="st6" d="M402.8,111.4c0.2,0.9,0.6,1.8,1.2,2.6c1,1,2.4,1.6,3.9,1.6c1.4,0.1,2.9-0.5,3.7-1.7c0-0.1,0.1-0.1,0.1-0.2
			c0-0.1,0.1-0.1,0.1-0.2c0-0.1,0.1-0.1,0.1-0.2l0.1-0.2c0,0,0-0.1,0-0.1c0,0,0-0.1,0-0.1c0-0.1,0.1-0.1,0.1-0.2
			c0.1-0.2,0.1-0.3,0.2-0.5l0,0c0-0.1,0.1-0.2,0.1-0.3c0.1-0.2,0.1-0.3,0.1-0.5c0,0,0-0.1,0-0.1c0,0,0-0.1,0-0.1
			c0.3-1.2,0.6-3.7,0-4.2s-2.2-1.2-4.8-1h-0.3c-0.4,0-0.8,0.1-1.2,0.2l-0.5,0.1c-0.4,0.1-0.8,0.2-1.2,0.3c-0.1,0-0.3,0.1-0.4,0.1
			c-0.1,0.1-0.3,0.1-0.4,0.2h-0.1c-0.1,0-0.1,0-0.1,0.1c-0.3,0.1-0.6,0.4-0.8,0.6C402.3,108.4,402.5,110.1,402.8,111.4z"/>
		<path class="st7" d="M387.7,85.5c0-0.1,0-0.3,0-0.4c0-0.3,0.1-0.5,0.3-0.7c0.5-0.6,1.6,0.9,2,1.2c0.4,0.3,0.8,0.6,1.2,0.9
			c0.4,0.2,0.7,0.4,1.1,0.7c-0.2-1.4-0.2-2.8,0-4.1c0.2-0.9,0.4-3,1.5-3.2c0.7-0.1,1.2,0.4,1.7,0.9c4.5,4.2,10.3,2.3,15.7,2.4
			c4.5,0.1,9.9,2,12,6.4c0.9,2,1.1,4.1-0.8,5.5c-1.2,0.9-2.3,0.9-3,2.3c-0.2,0.3-1.2,4.6-0.6,4.6c-2.3,0.2-4.4-1.2-5-3.4
			c-0.1-0.5-0.4-1.3-0.5-1.8c-0.1-0.5-0.6-0.9-1.2-0.8c0,0-0.1,0-0.1,0c-1.4,0.3-2.3,0.9-3.5,1.2c-3.7,1.1-7.6,1.3-11.3,0.7
			c-2.7-0.5-5.2-1.8-7.1-3.8C388.2,91.6,387.3,88.5,387.7,85.5z"/>
		<path class="st7" d="M405.3,103.1l4,0.6c0.1-1.1-0.6-2.1-1.7-2.3C406.5,101.2,405.4,102,405.3,103.1
			C405.3,103.1,405.3,103.1,405.3,103.1z"/>
		<path class="st20" d="M404.4,121.5l-3.3,0.9c0.2,0.9,1.1,1.5,2,1.3c0,0,0,0,0.1,0C404,123.4,404.6,122.4,404.4,121.5z"/>
		<path class="st7" d="M390.3,103.3l4-0.4c-0.1-1.1-1-1.9-2.1-1.8c0,0-0.1,0-0.1,0C391,101.2,390.2,102.2,390.3,103.3z"/>
		<path class="st20" d="M400,108.8l-0.5,9.3l-5.2-1.4l5.2-8.1C399.6,108.7,399.8,108.7,400,108.8z"/>
		<path class="st7" d="M422.3,115.3c0,1.3,1.1,2.4,2.4,2.4s2.4-1.1,2.4-2.4c0-1.3-1.1-2.4-2.4-2.4c0,0,0,0,0,0
			C423.4,112.9,422.3,113.9,422.3,115.3C422.3,115.3,422.3,115.3,422.3,115.3z"/>
		<path class="st7" d="M422.1,110.8c0.2-0.7,0.6-1.4,1.1-2c0.5-0.5,1.2-0.7,1.9-0.7c0,0,0.1,0.1,0,0.1c-0.3,0.2-0.5,0.3-0.7,0.4
			c-0.3,0.2-0.5,0.4-0.7,0.6c-0.2,0.2-0.4,0.5-0.5,0.8c-0.1,0.3-0.2,0.7-0.3,1c-0.1,0.5,0,1.1,0.2,1.6c0.1,0.3,0.3,0.5,0.5,0.8
			c0.2,0.2,0.4,0.4,0.5,0.6c0.1,0.3-0.3,0.8-0.6,0.7c-0.6-0.4-1.1-1-1.3-1.7C421.9,112.4,421.8,111.6,422.1,110.8z"/>
		<path class="st8" d="M387.4,144.1c-3.4,2.2-8,5.1-9.2,8.2s-4.4,21.3-4.8,27.1c3,1.4,6.2,2.3,9.5,2.7L387.4,144.1z"/>
		<path class="st6" d="M427.4,135.4c8.6,4.7,17,11.7,18.8,14.4c0,0-5,16.7-9.4,24.6s-6.8,31.3-6.8,31.3s-30.2,10-39.6,10.8
			s-10.6-3.2-10.6-3.2s-0.2-26.1,2-43.6s1.7-22.6,5.7-25.6c2.6-1.9,13.8-6.8,13.8-6.8v5C407.3,142.4,427.4,135.4,427.4,135.4z"/>
		<path class="st2" d="M398.9,145c-0.6-1.1-0.8-2.4-0.6-3.6l2.5-1.8v3.2L398.9,145z"/>
		<path class="st21" d="M398.9,145c-0.6-1.1-0.8-2.4-0.6-3.6l2.5-1.8v3.2L398.9,145z"/>
		<polygon class="st2" points="403.8,143.1 410.3,139.4 415.2,143.2 405.3,147.3 		"/>
		<polygon class="st21" points="403.8,143.1 410.3,139.4 415.2,143.2 405.3,147.3 		"/>
		<path class="st8" d="M420.1,128.3v1.3c-0.3,1.3-2.7,4.1-8.9,6.9s-8.8,5.8-8.8,5.8c1.7,0,3.3,0.4,4.9,0.9c2.8,1,7.5,4.6,8.9,4.6
			s3.2-3.7,6.7-7.4c3-3.1,4.5-5,4.5-5S422.5,128.4,420.1,128.3z"/>
		<path class="st8" d="M402.4,142.3c-2.3,0.3-4.4,1.8-4.9,1s1.4-8.3,4.9-10.6L402.4,142.3z"/>
		<path class="st20" d="M380.6,181.8c0,0-0.3,4.7-0.3,6.3s2.6,29,2.6,29l-9.4,4c0,0-1.1-10.6-1.5-16.4c-0.3-6.1,0-12.1,0.8-18.1
			c0.7-5,1-6.9,1-6.9C375.9,180.6,378.2,181.3,380.6,181.8z"/>
		<path class="st19" d="M374.2,234.5c0,0,0,0.4,0,2c0.2,2.6,0.8,5.3,1.6,7.8c0.6,1.5,2,4.7,2.7,5.1c0.7,0.4,1.5,0.5,2.3,0.4
			c1.5-0.1,3,0.6,4.5-0.1c0.5-0.3,1.1-0.5,1.7-0.7c0.9-0.2,1.9,0.1,2.6-0.4c0.5-0.3,0.8-0.8,1.3-1.1c0.7-0.4,1.7-0.3,2.4-0.6
			c0.6-0.3,1.1-0.9,1.3-1.5c0.4-1.3,0-2.8-0.3-4.1c0.5-0.6,0.7-1.4,0.7-2.2c0-1.7-0.2-3.4-0.6-5.1c-0.3-1-7.2-4.9-7.2-4.9l-1.4-0.9
			c-2.9-0.6-5.9-0.2-8.4,1.4C373.5,232,374.2,234.5,374.2,234.5z"/>
		<path class="st20" d="M376,234.3c-1.8,3-0.8,8.4-0.7,8.5c-0.6-2-0.9-4.1-1.1-6.3c0-1.6,0-2,0-2s-0.6-2.5,3.3-5
			c2.5-1.5,5.5-2,8.4-1.4C385.9,228.1,377.9,231.2,376,234.3z"/>
		<path class="st20" d="M394.4,241.1c-0.6-2-1.6-3.8-2.9-5.4c-0.8-0.7-1.4-1.6-0.6-1.3s1.8,0.5,2.2-0.1s0.5,0.4,0,1.1
			s-0.1,1.3,0.5,2.4C393.9,239,394.2,240.1,394.4,241.1z"/>
		<path class="st19" d="M443.6,150.2c2.9,1,3.2,8.8,2.6,15.8s-6.1,23.6-8.6,29.3c-2.8,6.5-4.5,10.2-6.3,12.2s-5.8,3.7-10.7,6.3
			c-4.5,2.3-7.6,3.5-15.3,5.9c-8.7,2.7-12,2.9-13.8,4.1s-2.4,4.1-4.2,5.1l-1.4-0.9c-3,0.7-6,1.9-8.6,3.6c-1.2,0.7-2.2,1.7-3.1,2.8v2
			c0,0-2.2,0.9-4-3s-2.7-9.8-0.6-12.4s8.9-6.1,14.4-7.8s8.2-3.5,14.6-7.4c6.8-4.1,11.6-6.9,15-8.7c1.3-0.8,2.2-1.7,2.7-4
			c0.5-1.9,1.8-7.4,2.7-11.6C420.4,174.5,423.4,153.4,443.6,150.2z"/>
		<path class="st8" d="M446.2,149.8c0,0,1.3,0.2,1.5,5.8c0.2,5.2,0,10.5-0.8,15.7c-0.7,4.3-5,16.8-5,16.8s-12.3,4-24.8-0.8
			c0,0,3-18.1,4.1-22.9S437.8,144.8,446.2,149.8z"/>
		<path class="st2" d="M402.8,150.2c-0.7,4.5-1.7,15.2-1.7,30.3c0,3.7-5.4,11.2-6.7,11.1s-3.6-7.2-3.9-11.3
			c0.5-9.9,6.5-25.3,9.1-30.6L402.8,150.2z"/>
		<path class="st16" d="M399.4,150.1c0.1-0.1,0.1-0.3,0.2-0.4l3.1,0.6l-0.2,1.3C401.4,151.4,400.3,150.9,399.4,150.1z"/>
		<path class="st2" d="M403.8,143.1c-1-0.2-2-0.4-3-0.4c-0.8,0.6-1.5,1.4-1.9,2.3c-0.1,1.6,0.2,3.2,0.8,4.6c0.9,0.6,2.1,0.8,3.1,0.6
			c1.1-0.7,2-1.7,2.5-2.9C405.3,145.8,404.8,144.2,403.8,143.1z"/>
	</g>
</g>
</svg>
