<?xml version="1.0" encoding="utf-8"?>
<!-- Generator: Adobe Illustrator 23.0.2, SVG Export Plug-In . SVG Version: 6.00 Build 0)  -->
<svg version="1.1" id="Layer_1" xmlns="http://www.w3.org/2000/svg" xmlns:xlink="http://www.w3.org/1999/xlink" x="0px" y="0px"
	 viewBox="0 0 3500 2500" style="enable-background:new 0 0 3500 2500;" xml:space="preserve">
<style type="text/css">
	.st0{fill:#D9F1FF;}
	.st1{fill:#069AD3;}
	.st2{fill:#B8E5FF;}
	.st3{clip-path:url(#SVGID_2_);fill:#FFFFFF;}
	.st4{clip-path:url(#SVGID_4_);}
	.st5{fill:#F2FAFF;}
	.st6{fill:#499CC7;}
	.st7{fill:#2D4254;}
	.st8{fill:#306682;}
	.st9{fill:#BFE9FF;}
	.st10{fill:#8CD6FF;}
	.st11{fill:#4BA8D6;}
	.st12{fill:#B0E1FF;}
	.st13{fill:#357899;}
	.st14{fill:#FFFFFF;}
	.st15{opacity:0.5;fill:#FFFFFF;enable-background:new    ;}
	.st16{fill:#C4E8FF;}
	.st17{opacity:0.3;fill:#FFFFFF;enable-background:new    ;}
	.st18{fill:#363636;}
	.st19{fill:#595959;}
	.st20{fill:#AAE0FF;}
	.st21{fill:#F79B88;}
	.st22{fill:#E6836F;}
	.st23{fill:#73382A;}
	.st24{fill:#A65B4A;}
	.st25{fill:#1E1E1E;}
	.st26{fill:#1951A6;}
	.st27{fill:#61B8FF;}
	.st28{fill:#F2FBFF;}
	.st29{clip-path:url(#SVGID_6_);}
	.st30{fill:#1B658F;}
	.st31{fill:#2997D6;}
	.st32{fill:#0D192B;}
	.st33{fill:#57ACA8;}
	.st34{fill:#FF9678;}
	.st35{fill:#E0F3FF;}
	.st36{fill:#65BBE6;}
	.st37{fill:#74BFE8;}
	.st38{fill:#73CDFF;}
	.st39{fill:#78CFFF;}
	.st40{fill:#4794BF;}
	.st41{fill:#326361;}
	.st42{fill:#4B9490;}
	.st43{opacity:0.5;fill:#0D0D0D;enable-background:new    ;}
	.st44{fill:#5C2D22;}
</style>
<g id="room">
	<path class="st0" d="M290.3,2172.1c355-163.1,162.5-461.4,72.1-1007.9C96.7,398.5,877.6-58.5,1529.8,470.6
		c561.3,392,968.8-139.6,1432.2,354.9c313.9,335,52.8,712.9,45,987.2c-6.1,216.2,202.7,359.4,202.7,359.4L290.3,2172.1L290.3,2172.1
		z"/>
	<path class="st1" d="M3204.7,2181.8H265.3c-2.9,0-5.2-2.3-5.2-5.2l0,0c0-2.9,2.3-5.2,5.2-5.2h2939.4c2.9,0,5.2,2.3,5.2,5.2l0,0
		C3209.9,2179.5,3207.6,2181.8,3204.7,2181.8z"/>
	<g>
		<rect x="645.2" y="649.3" class="st2" width="637.6" height="618.9"/>
		<g>
			<g>
				<defs>
					<rect id="SVGID_1_" x="665.8" y="672.1" width="597.7" height="577.2"/>
				</defs>
				<clipPath id="SVGID_2_">
					<use xlink:href="#SVGID_1_"  style="overflow:visible;"/>
				</clipPath>
				<rect x="665.8" y="672.1" class="st3" width="597.7" height="577.2"/>
			</g>
			<g>
				<defs>
					<rect id="SVGID_3_" x="665.8" y="672.1" width="597.7" height="577.2"/>
				</defs>
				<clipPath id="SVGID_4_">
					<use xlink:href="#SVGID_3_"  style="overflow:visible;"/>
				</clipPath>
				<g class="st4">
					<path class="st5" d="M1312.2,1302.3V971.2c-0.1,0-0.2,0-0.3,0c-1.5-0.2-3,0.9-3,2.5V998c-11.2,2-9.6,13.1-9.5,22.2
						c-17.4,6-16.3,22.5-15.9,38.5h-13.6v48.8c-12.4,5.6-20.5,13.4-20.5,23.4v81.2h-15.8V889.6h-13.2v-30.8H1145v30.8h-13.3v266.3
						h-13.4v-147l-44.4-26.2V939h-31l0,0h-5.8l0,0l0,0v23.7c-0.2,0.1-0.6,0.5-0.8,0.6v0.1l-28.6,30.6v210.3
						c-2.4,0.3-4.3,1.1-6.6,2.7c-2.6,1.7-3.6,3.7-5.3,5.2h-6.9V1125h-21.6V907.2l-73.1,74.5v143.2h-17.1v-0.2H869V975.1h-54.3V1212
						h-0.1v-193.1h-61.7v80.7h-53.2v62.4l-2.7-1.8h-17.2v-62.7h-24.1V1081h-38.2v221.3H1312.2z"/>
				</g>
			</g>
		</g>
		<rect x="944.9" y="659.4" class="st2" width="19.7" height="608.8"/>
		<rect x="648" y="953.9" class="st2" width="632" height="19.7"/>
	</g>
</g>
<g id="saline_solution">
	<g>
		<g>
			<g>
				<rect x="2134.5" y="803.3" class="st6" width="21.6" height="1294.4"/>
				<path class="st6" d="M1974.3,2118.4c75.9-19.5,266.1-19.5,342.1,0h32v-14.2c0-46-406.1-46-406.1,0v14.2H1974.3z"/>
				<g>
					<g>
						<g>
							<ellipse class="st7" cx="2194.3" cy="2154" rx="18.1" ry="18.1"/>
							<ellipse class="st8" cx="2194.3" cy="2154" rx="12" ry="12.1"/>
						</g>
						<rect x="2192.9" y="2116.2" class="st8" width="13.4" height="37.8"/>
						<rect x="2192.9" y="2116.2" class="st7" width="13.4" height="17.7"/>
					</g>
					<path class="st6" d="M2202.5,2097.8c9.9,0.5,17.5,12.4,15.9,24.8h-38.1c0.1-14.1-9.9-20.4-22.8-24.8H2202.5z"/>
				</g>
				<g>
					<g>
						<g>
							<ellipse class="st7" cx="2326.2" cy="2153.9" rx="18.1" ry="18.1"/>
							<ellipse class="st8" cx="2326.2" cy="2153.9" rx="12" ry="12.1"/>
						</g>
						<rect x="2324.8" y="2116.2" class="st8" width="13.4" height="37.8"/>
						<rect x="2324.8" y="2116.2" class="st7" width="13.4" height="17.7"/>
					</g>
					<rect x="2317.6" y="2116.2" class="st6" width="26.7" height="6.4"/>
				</g>
				<g>
					<g>
						<g>
							<ellipse class="st7" cx="1963.3" cy="2153.9" rx="18.1" ry="18.1"/>
							<ellipse class="st8" cx="1963.3" cy="2153.9" rx="12" ry="12.1"/>
						</g>
						<rect x="1951.3" y="2116.2" class="st8" width="13.4" height="37.8"/>
						<rect x="1951.3" y="2116.2" class="st7" width="13.4" height="17.7"/>
					</g>
					<rect x="1945.2" y="2116.2" class="st6" width="26.7" height="6.4"/>
				</g>
				<rect x="2183.1" y="2119.4" class="st6" width="29.2" height="6.7"/>
			</g>
			<path class="st8" d="M1936.1,847c-1.9,0-3.7-0.4-5.4-1.3c-6.5-3.3-8.6-12-8.7-12.3c-0.3-1.3,0.5-2.7,1.9-3c1.3-0.3,2.7,0.5,3,1.8
				c0,0.1,1.7,6.8,6.1,9c2,1,4.4,1,7.1-0.2c10.5-4.3,5.6-17.5,5.4-18c-0.3-0.8-0.2-1.6,0.3-2.3s1.2-1.1,2.1-1.1h394.8
				c0.7,0,1.4,0.3,1.9,0.9c0.5,0.6,0.7,1.3,0.6,2c0,0.1-1.9,12.5,5.3,15.5c3.8,1.6,6.9,1.7,8.9,0.3c4.2-2.8,4.3-10.7,4.3-10.8
				c0-1.4,1.1-2.5,2.5-2.5s2.5,1.1,2.5,2.5c0,0.4-0.1,10.7-6.5,15c-3.6,2.4-8.1,2.5-13.6,0.2c-8.2-3.3-8.8-13.1-8.6-18h-388.7
				c1.5,6.8,0.9,16.9-9.2,21C1940,846.6,1938,847,1936.1,847z"/>
		</g>
		<g>
			<path class="st9" d="M2161.5,1430.9l-0.9-3.9c190.8-44.2,190.8-248.4,190.8-335.6h4c0,43.2,0,115.5-24.2,184.2
				C2301.8,1359.4,2244.7,1411.7,2161.5,1430.9z"/>
			<g>
				<rect x="2018.3" y="1141.8" class="st10" width="250.8" height="106.9"/>
				<polygon class="st11" points="2269.1,1141.8 2242.1,1141.8 2242.1,1218 2188.1,1238.1 2188.1,1279.9 2269.1,1279.9 				"/>
				<polygon class="st10" points="2045.9,1141.8 2018.9,1141.8 2018.9,1218 1964.9,1238.1 1964.9,1279.9 2045.9,1279.9 				"/>
				<rect x="1964.8" y="1238.1" class="st10" width="223.2" height="41.8"/>
				<polygon class="st12" points="2242.1,1218 2018.9,1218 1964.9,1238.1 2188.1,1238.1 				"/>
			</g>
			<g>
				<circle class="st11" cx="2195.1" cy="1202.3" r="7"/>
				<circle class="st11" cx="2167.5" cy="1202.3" r="7"/>
				<circle class="st11" cx="2140.5" cy="1202.3" r="7"/>
				<circle class="st11" cx="2115.4" cy="1202.3" r="7"/>
			</g>
			<rect x="2032.9" y="1195.3" class="st11" width="51.7" height="14.1"/>
			<rect x="2033" y="1159" class="st11" width="188" height="14.1"/>
			<rect x="1979.6" y="1248.7" class="st11" width="53.4" height="23"/>
			<g>
				<path class="st13" d="M2011.8,1261.1c0,3.4,2.8,6.2,6.2,6.2c3.4,0,6.2-2.8,6.2-6.2c0-3.4-2.8-6.2-6.2-6.2
					C2014.6,1254.9,2011.8,1257.7,2011.8,1261.1z"/>
				<path class="st13" d="M2006.2,1261.3c0,2.8,1.4,5.1,3.1,5.1s3.1-2.3,3.1-5.1s-1.4-5.1-3.1-5.1
					C2007.6,1256.2,2006.2,1258.5,2006.2,1261.3z"/>
				<polygon class="st13" points="2009.1,1266.3 2018,1267.4 2018,1254.9 2009.1,1256.2 				"/>
			</g>
			<path class="st13" d="M1653.6,2174.4c-80.3,0-137.3-0.5-138.1-0.5v-3.2c1.3,0,129.5,1.2,273,0c70.4-0.6,122.1-29.9,158-72.6
				c28.4-33.8,46.7-81.9,54.5-143.1c8.6-68.1,4.4-154.5-12.5-256.8c-7.9-47.9-14.4-133.6-16.8-223.5c-2.5-90.9-0.1-161.5,6.3-184.2
				c8.8-31.4,30.9-31,31.2-31l-0.1,3.2c-0.8,0-19.9-0.1-28,28.6c-13.3,47.4-6.6,301.8,10.6,406.3c17,102.6,21.2,189.3,12.5,257.7
				c-7.8,61.8-26.4,110.5-55.2,144.8c-36.5,43.5-89,73.1-160.4,73.7C1740.5,2174.3,1694.1,2174.4,1653.6,2174.4z M2009.1,1262.7
				L2009.1,1262.7v-1.6V1262.7z"/>
		</g>
		<g>
			<g>
				<g>
					<path class="st14" d="M2390.6,864c0-6.8-73.4-6.8-73.4,0v144.3c0,5.3,2.9,10.2,7.6,12.6l15.8,8.4v21.8h23.7v-21.8l18-8.6
						c5-2.4,8.2-7.4,8.2-12.9L2390.6,864L2390.6,864z"/>
					<path class="st9" d="M2324.3,961.5v46.8c0,2.7,1.5,5.1,3.8,6.4l19.6,10.4v18.9h9.6v-19.2l22.1-10.5c2.5-1.2,4.1-3.8,4.1-6.6
						v-46.4h-59.2V961.5z"/>
					<path class="st14" d="M2347.7,1045.9v13.3c0,2.6,2.1,4.8,4.8,4.8s4.8-2.1,4.8-4.8v-13.3H2347.7z"/>
				</g>
				<path class="st15" d="M2341.9,1008.2h-4.8c-3.2,0-5.8-2.6-5.8-5.8V901.1c0-3.2,2.6-5.8,5.8-5.8h4.8c3.2,0,5.8,2.6,5.8,5.8v101.3
					C2347.7,1005.6,2345.1,1008.2,2341.9,1008.2z"/>
			</g>
			<g>
				<rect x="2333" y="1056.7" class="st11" width="40.5" height="7.3"/>
				<path class="st11" d="M2360.3,1087.9v-26.4h-14.1v26.4c0,3.9,3.2,7,7,7l0,0C2357.1,1095,2360.3,1091.8,2360.3,1087.9z"/>
			</g>
			<path class="st14" d="M2354.9,865.5h-2v-1.6c0-5.5-1.5-11-4.4-16.5c-1.6-3-1.7-6.1-0.2-8.9c0.9-1.7,2.2-2.8,3.9-3.3
				c3.2-0.9,6.6,1,6.8,1l-1,1.7c0,0-2.8-1.6-5.2-0.9c-1.1,0.3-2,1.1-2.7,2.3c-1.2,2.2-1.1,4.6,0.2,7c3.1,5.8,4.7,11.6,4.7,17.4v1.8
				H2354.9z"/>
		</g>
		<g>
			<g>
				<g>
					<path class="st14" d="M1974.5,864c0-6.8-73.4-6.8-73.4,0v144.3c0,5.3,2.9,10.2,7.6,12.6l15.8,8.4v21.8h23.7v-21.8l18-8.6
						c5-2.4,8.2-7.4,8.2-12.9V864H1974.5z"/>
					<path class="st9" d="M1908.2,961.5v46.8c0,2.7,1.5,5.1,3.8,6.4l19.6,10.4v18.9h9.6v-19.2l22.1-10.5c2.5-1.2,4.1-3.8,4.1-6.6
						v-46.4h-59.2V961.5z"/>
					<path class="st14" d="M1931.7,1045.9v13.3c0,2.6,2.1,4.8,4.8,4.8s4.8-2.1,4.8-4.8v-13.3H1931.7z"/>
				</g>
				<path class="st15" d="M1925.9,1008.2h-4.8c-3.2,0-5.8-2.6-5.8-5.8V901.1c0-3.2,2.6-5.8,5.8-5.8h4.8c3.2,0,5.8,2.6,5.8,5.8v101.3
					C1931.7,1005.6,1929.1,1008.2,1925.9,1008.2z"/>
			</g>
			<path class="st14" d="M1938.8,865.5h-2v-1.6c0-5.5-1.5-11-4.4-16.5c-1.6-3-1.7-6.1-0.2-8.9c0.9-1.7,2.2-2.8,3.9-3.3
				c3.2-0.9,6.6,1,6.8,1l-1,1.7l0.5-0.9l-0.5,0.9c0,0-2.8-1.6-5.2-0.9c-1.1,0.3-2,1.1-2.7,2.3c-1.2,2.2-1.1,4.6,0.2,7
				c3.1,5.8,4.7,11.6,4.7,17.4v1.8H1938.8z"/>
		</g>
		<rect x="2125.6" y="1450.6" class="st6" width="39.8" height="271.3"/>
		<rect x="2123.3" y="1445.6" class="st10" width="43.5" height="12.6"/>
		<rect x="2123.3" y="1711" class="st10" width="43.5" height="12.6"/>
	</g>
</g>
<g id="table">
	<g>
		<g>
			<path class="st14" d="M923.6,1379.3c-1.8,0-3.5,0-5.1,0.1v-18.8h-26v719.1h26v-674.2c1.6,0,3.3,0,5.1-0.1
				c24.9-0.3,69.9-0.8,95.4-1.1c9.5-0.1,16.2-0.2,18.3-0.2V1378C1029.5,1378.1,958,1378.9,923.6,1379.3z"/>
			<rect x="888.1" y="1376.7" class="st14" width="35.5" height="35.7"/>
			<path class="st5" d="M1018.9,1397.8v6.5c-25.5,0.3-70.4,0.8-95.4,1.1v7h-5.1v153l-12.7-3.7c0.2-4,0-120.9,0-146.2
				c0-2.1,0-3.2,0-3.2h5v-19.8h12.7v5.2L1018.9,1397.8L1018.9,1397.8z"/>
		</g>
		<g>
			<rect x="988.3" y="1371.1" class="st11" width="349.1" height="59.7"/>
			<rect x="1125.2" y="1371.1" class="st10" width="212.2" height="59.7"/>
			<rect x="1125.2" y="1386" class="st11" width="212.2" height="7.5"/>
			<rect x="972.8" y="1371.1" class="st14" width="382.3" height="14.8"/>
			<path class="st14" d="M1103.1,1412.1h-121c-0.6,0-1-0.4-1-1v-33.9h2v32.9h119v-39h2v40
				C1104.1,1411.7,1103.6,1412.1,1103.1,1412.1z"/>
		</g>
		<rect x="892.5" y="1412.4" class="st16" width="26" height="3.2"/>
		<path class="st14" d="M756,2115.1c75.9-19.5,266.1-19.5,342.1,0h32v-14.2c0-46-406.1-46-406.1,0v14.2H756z"/>
		<g>
			<g>
				<g>
					<ellipse class="st7" cx="976" cy="2150.6" rx="18.1" ry="18.1"/>
					<ellipse class="st14" cx="976" cy="2150.6" rx="12" ry="12.1"/>
				</g>
				<rect x="974.6" y="2112.8" class="st14" width="13.4" height="37.8"/>
				<rect x="974.6" y="2112.8" class="st10" width="13.4" height="17.7"/>
			</g>
			<path class="st14" d="M984.3,2094.4c9.9,0.5,17.5,12.4,15.9,24.8h-38.1c0.1-14.1-9.9-20.4-22.8-24.8H984.3z"/>
		</g>
		<g>
			<g>
				<g>
					<ellipse class="st7" cx="1108" cy="2150.6" rx="18.1" ry="18.1"/>
					<ellipse class="st14" cx="1108" cy="2150.6" rx="12" ry="12.1"/>
				</g>
				<rect x="1106.6" y="2112.8" class="st14" width="13.4" height="37.8"/>
				<rect x="1106.6" y="2112.8" class="st10" width="13.4" height="17.7"/>
			</g>
			<rect x="1099.3" y="2109.2" class="st14" width="26.7" height="10"/>
		</g>
		<g>
			<g>
				<g>
					<ellipse class="st7" cx="745" cy="2150.6" rx="18.1" ry="18.1"/>
					<ellipse class="st14" cx="745" cy="2150.6" rx="12" ry="12.1"/>
				</g>
				<rect x="733" y="2112.8" class="st14" width="13.4" height="37.8"/>
				<rect x="733" y="2112.8" class="st10" width="13.4" height="17.7"/>
			</g>
			<rect x="727" y="2112.8" class="st14" width="26.7" height="6.4"/>
		</g>
		<rect x="964.9" y="2116" class="st14" width="29.2" height="6.7"/>
		<rect x="1079.5" y="1361" class="st10" width="214.3" height="9.5"/>
		<g>
			<g>
				<polygon class="st14" points="1066.1,1370.4 1020.4,1370.4 1016.5,1305 1070,1305 				"/>
				<polygon class="st10" points="1021.9,1341.5 1023.4,1367.2 1063.1,1367.2 1064.6,1341.5 				"/>
			</g>
			<polygon class="st17" points="1038.1,1367.2 1027.1,1367.2 1024,1310.2 1035,1310.2 			"/>
		</g>
		<rect x="1112.6" y="1329.4" class="st14" width="31.8" height="31.8"/>
	</g>
</g>
<g id="doctor">
	<g>
		<g>
			<g>
				<g>
					<g>
						<path class="st18" d="M1327.1,2178.3l96.7-0.3c2-1.1,3.5-2.4,4.3-3.9c4.7-71.9,11.8-106.6,11.8-106.6l-67.4-2.5l-15.1,53.6
							C1335,2134,1308.2,2167.2,1327.1,2178.3z"/>
						<path class="st18" d="M1431.2,2179.3l-114.7,0.4c-2.9,0-2-15.9,0.9-15.9l114,0.3C1434.4,2163.9,1434.1,2179.2,1431.2,2179.3z"
							/>
					</g>
					<path class="st19" d="M1457.2,1437.7c-28,85.7-51.2,320.2-91.1,653.8l68.7,3.4c20.3-100.5,43.3-151.5,66.5-296.4
						c53.2-121.4,82-236.7,97.3-354.6L1457.2,1437.7z"/>
				</g>
				<g>
					<path class="st19" d="M1550.1,1441.8c6.5,177.9,61.8,366.5,61.8,366.5c8,153.5,2.4,177.8,9.5,287.4l62-1
						c4.8-74.8,69.8-410.6,7.5-646.8L1550.1,1441.8z"/>
					<path class="st18" d="M1621.4,2095.7c-5.4,29.7-9.3,52.8-6.9,79.6l150.3,2.4c0,0,14.8-14.5-4-36.2s-54.2-9-77.4-46.9
						L1621.4,2095.7z"/>
					<path class="st18" d="M1771.6,2178.1l-159.6,0.5c-2.9,0-2.2-15.9,0.7-15.9l159,0.1C1774.6,2162.8,1774.6,2178.1,1771.6,2178.1z
						"/>
				</g>
			</g>
			<path class="st14" d="M1992.3,1341.4l-50,51.5l-1.6,1.7c0,0-168.6-76.8-187.8-99.2c-7.4-8.6-20.1-25.1-34.5-44.3
				c-6.7-8.9-13.7-18.4-20.7-28c-17.1-23.2-34.2-47-46.2-64.1c-24.4-34.6,31.7-107.1,66.3-92.9c2.6,1.1,5,2.6,7.3,4.6l106.9,157.8
				L1992.3,1341.4z"/>
			<g>
				<path class="st20" d="M1461.9,1070.9c34.3-25.6,152.2-45.5,227.6-10.1c32.1,4.1,14.9,414.5,14.9,414.5h-255L1461.9,1070.9z"/>
				<path class="st21" d="M1598.7,1085.9c-40.5,5.9-65.8-22.4-71.7-34.2l16.3-101.3l33,14.7c13.5,1.1,27,4.3,38.5,8.9l10.5,54
					l2.3,11.7C1632.9,1051.3,1639.2,1080,1598.7,1085.9z"/>
				<path class="st22" d="M1553.8,976.1c1.3,12.5,17.8,63.3,72.6,58l-10.2-52.8L1553.8,976.1z"/>
				<g>
					<g>
						<g>
							<path class="st21" d="M1681.3,912.8c-1.9,16.5-6.4,52.4-12.8,67.5c-9.7,22.9-39.5,41.5-59.1,38.3
								c-22-5.4-48.4-22.2-59.2-41.7c-5.1-13.7-13.3-44.8-13.6-69.6c-0.5-51.6,44.1-80.7,86.6-75.9
								C1665.8,836.2,1687.1,861.4,1681.3,912.8z"/>
							<path class="st23" d="M1539.9,942.3c-3.3-18.1,10.2-20.2,18.6-4.2c1.8-12.1,0.5-50,15.8-57c17.4-8.3,72.6,17.2,114.4-4.1
								c0,0-5.4-58.1-90.7-54.6C1497.5,837.8,1539.9,942.3,1539.9,942.3z"/>
							
								<ellipse transform="matrix(0.9547 -0.2977 0.2977 0.9547 -209.0092 501.1439)" class="st21" cx="1540.8" cy="936.8" rx="15.4" ry="19.9"/>
						</g>
						<g>
							<path class="st24" d="M1649.1,981.6c-3.3,0.6-9,3.3-14.7,6.3c-8.3,4.4-16.3,9.4-16.3,9.4s-24.4-14.8-23.8-38.5
								c0.3,0.4,0.7,0.7,1,1.1C1614.3,979.4,1649.1,981.6,1649.1,981.6z"/>
							<path class="st14" d="M1649.1,981.6c-3.3,0.6-9,3.3-14.7,6.3c-24.8-5.7-35-19-39.1-28
								C1614.3,979.4,1649.1,981.6,1649.1,981.6z"/>
							<path class="st24" d="M1647.8,970.1c-5-0.3-8.8-3.2-8.9-3.2c-0.4-0.3-0.5-1-0.2-1.4s1-0.5,1.4-0.2c0.3,0.2,8.1,6,15.1,0.6
								c3.9-3,2.9-5,0.2-10.3c-2.5-5.1-6.4-12.7-7.7-25.7c-0.1-0.6,0.3-1.1,0.9-1.1c0.6-0.1,1.1,0.3,1.1,0.9c1.3,12.6,5,20,7.5,25
								c2.8,5.5,4.4,8.8-0.7,12.8C1653.6,969.6,1650.5,970.2,1647.8,970.1z"/>
							<g>
								<path class="st25" d="M1620.9,920.2c-0.2,3.8-2.1,6.8-4.2,6.6c-2.1-0.1-3.6-3.3-3.4-7.1s2.1-6.8,4.2-6.6
									C1619.6,913.2,1621.1,916.4,1620.9,920.2z"/>
								<path class="st25" d="M1674,922.7c-0.2,3.5-1.9,6.2-3.8,6.1c-1.9-0.1-3.3-3-3.1-6.5c0.2-3.5,1.9-6.2,3.8-6.1
									C1672.9,916.4,1674.2,919.3,1674,922.7z"/>
							</g>
						</g>
					</g>
					<path class="st23" d="M1677.9,879.8c0,0,41.9-4.1,28.8-44.9c-13,13.2-26.2,6.7-26.2,6.7s15.4-19.3-10.1-47.5
						c-4.1,17.6-39,25.3-59,20.2c-31.7-8.2-63.7,3.1-67.1,33.7c0,0-20.7,5.1-13.5,46.2c32-1.1,46.1-30.3,69.7-34.5
						C1624.2,855.4,1644.3,884.5,1677.9,879.8z"/>
					<path class="st24" d="M1637.4,1012.2c0,0-14.9,3.5-23.2,3.3c-10.8-0.3-28-6.3-28-6.3l28.5,15.2L1637.4,1012.2z"/>
				</g>
				<polygon class="st26" points="1609.6,1086.7 1605.6,1101.3 1634.3,1281.3 1619.2,1310.5 1592.1,1281.5 1596.6,1101.5 
					1590.1,1091.9 1597.7,1081 				"/>
				<path class="st27" d="M1626.8,1034.4c-0.6,21.4-17.2,33.5-29.2,45.7c-35.5-9.3-62.4-31-70.3-51.1l-16.7,16.6
					c3,26,23.8,52.9,55.5,80.3c4.8-13.9,12.2-26.8,33.3-38.3l47.5,13.5c2.7-18.5,4.8-35.7-6-57.4L1626.8,1034.4z"/>
			</g>
			<path class="st14" d="M1531.4,1446.1c-1.2,12.3-2.4,24.4-3.8,36.2c-11.8,103.1-29.7,185.6-40,223.1l-115.8,94.5
				c1.6-36.1,27.5-174.2,43.5-320.1c2.1-19.4,4.1-38.9,5.8-58.4c2.5-29.1,4.6-58,6.2-86.1c8.4-141.9,7.1-260.7,11.5-263.9
				c24.4-17.3,76.2-30,76.2-30C1544.6,1175.6,1543.1,1322.6,1531.4,1446.1z"/>
			<path class="st14" d="M1773.8,1718.5L1687,1730c-51.4-128.5-58.5-384.7-49.6-690.3c26.3,1.6,58.7,13.6,80.3,26.3
				c2.6,1.5,5,3.1,7.3,4.6c-4.9,52.1-7,104.4-6.9,155.5c0,8.3,0.1,16.7,0.2,24.9c1,69.8,5.7,136.8,12,197.2
				C1746.6,1605.9,1773.8,1718.5,1773.8,1718.5z"/>
			<path class="st28" d="M1531.4,1446.1c-1.2,12.3-2.4,24.4-3.8,36.2l-37.5,17.7l-75-20.1c2.1-19.4,4.1-38.9,5.8-58.4
				c2.5-29.1,4.6-58,6.2-86.1L1531.4,1446.1z"/>
		</g>
		<path class="st14" d="M1441.8,1068.4c-23.8,14.8-73.5,175.8-62.6,233.1c10.9,57.3,188.5,201,188.5,201l58.8-47.4l-121.8-168.7
			l9.5-93.3C1542.3,1090.7,1495.7,1039.7,1441.8,1068.4z"/>
		<path class="st20" d="M1603.2,1423.8c-0.9-1.3-93.1-126.5-99-137.1l-0.1-0.1v-0.2c2.8-27.6,7.6-56.8,7.7-57.1l1,0.2
			c0,0.3-4.9,29.3-7.7,56.9c6.6,11.5,97.9,135.6,98.9,136.9L1603.2,1423.8z"/>
		<g>
			<g>
				<defs>
					<path id="SVGID_5_" d="M1626.8,1035l9.3,83.4c0,0-42.2,79.1-14.4,99.7c27.8,20.6,53.4-1.6,60.9-53.1
						c7.5-51.6-20.3-146.6-45-165s-114.4-16.9-123.1-6.2c-8.7,10.6-96.3,206.4-61.8,246.6c34.5,40.1,145.7,3.6,145.7,3.6l-18-116.3
						l-48.9-34.5c0,0-2.9-63.3-2.5-62.3s6.8-31,6.8-31c30.7-8.9,54-10,84.3,2.3L1626.8,1035z"/>
				</defs>
				<clipPath id="SVGID_6_">
					<use xlink:href="#SVGID_5_"  style="overflow:visible;"/>
				</clipPath>
				<g class="st29">
					
						<ellipse transform="matrix(0.1815 -0.9834 0.9834 0.1815 175.6181 2596.5728)" class="st30" cx="1647.6" cy="1192.8" rx="24.7" ry="13.9"/>
					<path class="st31" d="M1648.2,1192c-1.6,8.7,1.1,16.5,6,17.5s10.2-5.4,11.8-14.2c1.6-8.7-1.1-16.5-6-17.5
						C1655.2,1177,1649.9,1183.3,1648.2,1192z"/>
					<path class="st32" d="M1653.5,1174.8c1.1,0,2.1-0.9,2.1-2.1c0-0.5,1.2-48.9-6-99.6c-6.7-46.9-45.7-69.7-79.3-70.9
						c-32.5-1.2-57.5,16.5-63.8,45.2c-5.6,25.8,1.7,69.8,2,71.7c0.2,1.2,1.3,1.9,2.4,1.7c1.2-0.2,1.9-1.3,1.7-2.4
						c-0.1-0.4-7.5-45.1-2-70.1c5.8-26.6,29.2-43,59.5-41.9c31.8,1.2,68.9,22.7,75.2,67.3c7.1,50.3,6,98.4,6,98.9
						C1651.3,1173.8,1652.3,1174.7,1653.5,1174.8L1653.5,1174.8z"/>
					<path class="st32" d="M1490.3,1240.3l13.4-1.7c1.2-0.1,2-1.2,1.8-2.4c-0.1-1.2-1.2-2-2.4-1.8l-10.2,1.3
						c-13.8-35.8-14.6-74.2-1.8-93.9c6.3-9.7,15.6-14.9,27.6-15.4c11.3-0.5,21.2,3.3,29.6,11.1c25.4,23.8,29.5,78.8,30.1,90.6
						l-7.7-0.3c-1.1-0.1-2.2,0.9-2.2,2s0.9,2.2,2,2.2l12.2,0.5v-2.2c-0.1-2.8-1.8-67.9-31.5-95.8c-9.2-8.6-20.2-12.8-32.6-12.2
						c-13.5,0.6-23.9,6.4-31,17.3c-7.1,11-10.5,26.7-9.7,45.6c0.7,17.3,4.9,36.3,11.7,53.6L1490.3,1240.3z"/>
					<path class="st30" d="M1527.1,1119.4l-0.1,10.4c0,0-11.9-4.7-23.7,3c-3-4.2-5.2-7.3-5.2-7.3S1507.6,1115.2,1527.1,1119.4z"/>
					<path class="st30" d="M1518.2,1123.1l-2.3-11.9c-3.3-1.8-10.4,0.1-11.5,2.7l2.6,11.6L1518.2,1123.1z"/>
				</g>
			</g>
		</g>
		<path class="st28" d="M1942.3,1392.9l-1.6,1.7c0,0-168.6-76.8-187.8-99.2c-7.4-8.6-20.1-25.1-34.5-44.3c1,69.8,5.7,136.8,12,197.2
			c-11.6-33.9-23.6-79.2-26.3-127.1c-2.6-47.7-4.8-78.7-6.4-98c-1.6-20.5-2.5-27.8-2.5-27.8s10,13.7,23,30.8
			c19.3,25.3,45.2,57.9,55.7,64.9C1788.7,1300.9,1906.7,1371.6,1942.3,1392.9z"/>
	</g>
</g>
<g id="patient">
	<g>
		<g>
			<path class="st33" d="M2418,1345.6c0,0-35.5-21.1-61.2-25s-182.4-0.4-182.4-0.4c-42.6,0.8-23.6,64.8,41.5,65.3
				C2215.8,1385.5,2437.4,1375.7,2418,1345.6z"/>
			<path class="st34" d="M2045.1,1355.4c-12.9-2-14.6-12.9,0.8-24.6c0,0,91.8-13.8,128.4-10.6c36.6,3.2,21.1,15-2.9,25.4
				C2147.4,1356.1,2045.1,1355.4,2045.1,1355.4z"/>
			<g>
				<g>
					<path class="st14" d="M2705.4,1525.4c-27.3,46.9-124.2,37-253.7,43.5c0,0-243.5,0.7-291.8-9c10.4-39.7,41.4-74.4,83.7-102.8
						c25.7-17.3,55.6-32.2,87.6-44.6c13.1-5,26.5-9.6,40.1-13.8c62.8-19.2,184-14.7,267.3-8.4c23.9,1.8,44.7,3.7,60.2,5.3
						c17.8,1.8,28.4,3.1,28.4,3.1S2732.7,1478.5,2705.4,1525.4z"/>
					<path class="st5" d="M2705.4,1525.4c-27.3,46.9-124.2,37-253.7,43.5c0,0-243.5,0.7-291.8-9.1c10.4-39.7,41.4-74.4,83.7-102.7
						c14.2,29.4,61.9,79.1,221.8,61.3c165.6-18.5,217.6-88.3,233.4-122.7c17.8,1.8,28.4,3.1,28.4,3.1S2732.7,1478.5,2705.4,1525.4z"
						/>
					<path class="st35" d="M2638.6,1390.3c-13.1,17.8-31.9,37.5-51.6,38.3c-36.1,1.5-89.3-21.7-111-3.1s14.7,102.2,14.7,102.2
						l-82.8,11.6l-76.7-50.3v-76.5c13.1-5,26.5-9.6,40.1-13.8C2434.1,1379.5,2555.3,1384.1,2638.6,1390.3z"/>
				</g>
				<path class="st33" d="M2451.6,1388c0,0-8.6,22.3-24.8,47.4c-14,21.7-33.8,45.7-58.8,59.4c-41.5,22.8-94.3,33.3-116.5,36.9
					c-6.7,1.1-10.6,1.6-10.6,1.6l2.9,24.4c-10.5,1.3-21.3,2.3-32.1,3.1c-213.9,15-203.9-172.6-22.9-225.9c0,0,155.1-11.4,209.6,6.3
					C2425.9,1357.5,2442.3,1373.4,2451.6,1388z"/>
				<rect x="2297.1" y="1730" class="st14" width="58" height="249"/>
				<rect x="2297.1" y="1794.7" class="st9" width="58" height="45.3"/>
				<path class="st11" d="M967.4,1995.4c-23,0-45.7-4-64-15.2c-20.2-12.4-32.9-32.4-37.7-59.3c-5.1-28.7,5.2-55.7,14.8-73.3
					c10.4-19,21.7-31,22.2-31.6l2.9,2.8c-0.5,0.5-45.5,48.6-36,101.4c4.6,25.8,16.7,44.8,35.8,56.6c42.7,26.2,111,11.4,147.9,0.3
					l1.2,3.8C1032.6,1987.6,999.7,1995.4,967.4,1995.4z"/>
				<g>
					<path class="st10" d="M849.3,1802.5v-372c0-8.7-7-15.7-15.7-15.7s-15.7,7-15.7,15.7v372H849.3z"/>
					<polygon class="st11" points="855.7,1715.6 889.7,1715.6 889.7,1686.2 855.7,1686.2 855.7,1669.8 807.6,1669.8 807.6,1730 
						855.7,1730 					"/>
				</g>
				<g>
					<path class="st10" d="M2758.7,1794.9h2.6c10,0,18.2-8.1,18.2-18.2V1260c0-10-8.1-18.2-18.2-18.2h-2.6c-10,0-18.2,8.1-18.2,18.2
						v516.8C2740.6,1786.8,2748.7,1794.9,2758.7,1794.9z"/>
					<rect x="2691" y="1647.4" class="st11" width="116.5" height="60.2"/>
				</g>
				<rect x="1403.8" y="1760" class="st36" width="756.4" height="94.9"/>
				<rect x="875.2" y="1760" class="st36" width="234.8" height="94.9"/>
				<path class="st10" d="M2721.5,1619.1v171.2H883.4v-171.2c0-38.4,31-69.6,69.3-69.6h1699.5c24,0,45.2,12.3,57.7,30.9
					C2717.2,1591.5,2721.5,1604.9,2721.5,1619.1z"/>
				<path class="st37" d="M2708,1580.4c-12-1.9-37.6-5.3-64.6-4.1c-37.1,1.5-280.3-8.5-359.5-8.5c-54.5,0-92.5-10.7-112.7-18.3
					h479.1C2674.4,1549.4,2695.6,1561.7,2708,1580.4z"/>
				<path class="st10" d="M2316.2,1773.3l-1321.6,16.2l-109.4,1.3v-171.2c0-38.4,31-69.6,69.3-69.6c153.6-12.8,299-67.7,417-110.1
					c26.9-5.9,86.1,25.9,112.6,19.9c206.3-47.3,399.3-98.3,570.4-119.2c8.4-1,16.7-2,25-2.9c54.9-5.8,107.4-8.2,157.2-6.2
					c45.3,58,59.7,169.6,68.7,287c3.3,42.8,5.8,86.3,8.9,128.3C2314.8,1755.8,2315.5,1764.6,2316.2,1773.3z"/>
				<path class="st38" d="M2314.1,1746.9l-1319.6,42.7l-109.4,1.3v-160.1c21.7,6.8,68.4,14.7,168.8,15.8
					c183.1,2,1073-36.5,1073-36.5s127.7,15.6,178.3,8.5C2308.5,1661.3,2311.1,1704.9,2314.1,1746.9z"/>
				<path class="st39" d="M1427.4,1470.6c0,0-25.9,20.7-58,27.4c-32.1,6.6,80.7,48.3,80.7,48.3l-206.5-5.7c0,0,112.6-8.5,96.5-24.6
					s-12.3-38.8,0-38.8C1352.5,1477.1,1385.9,1493.4,1427.4,1470.6z"/>
				<path class="st39" d="M2245.8,1549.5c0.7,6.4-686.3,2.2-713.6-0.1c-27.2-2.3,562.3-36.4,575-94c11.1-50.1-34.6-97.4-52.9-114.9
					c8.4-1,16.7-2,25-2.9l20.6,1.9C2099.9,1339.6,2245.1,1543.2,2245.8,1549.5z"/>
				<path class="st9" d="M2063.4,1339.2c0,0,37.6,42.5,43.8,85.1c27.8,148.8,23.3,257.2,23.3,257.2s169.3,7.8,172.9,4
					c3.6-3.8,0-189.4-26.4-269.1c-20.8-62.8-36.1-85.2-36.1-85.2C2194.7,1323.5,2129.9,1327.2,2063.4,1339.2z"/>
				<rect x="1018" y="1943.3" class="st14" width="1575.5" height="71.5"/>
				<rect x="1018" y="1979" class="st9" width="1575.5" height="35.7"/>
				<g>
					<g>
						<g>
							<ellipse class="st7" cx="1105.7" cy="2118.7" rx="54.7" ry="54.9"/>
							<ellipse class="st14" cx="1105.7" cy="2118.7" rx="36.5" ry="36.6"/>
						</g>
						<rect x="1069.4" y="1997.2" class="st14" width="40.5" height="121.4"/>
						<rect x="1069.4" y="1997.2" class="st9" width="40.5" height="60.7"/>
					</g>
					<rect x="1051.1" y="1997.2" class="st14" width="80.8" height="26.5"/>
				</g>
				<g>
					<g>
						<g>
							<ellipse class="st7" cx="2506.7" cy="2118.7" rx="54.7" ry="54.9"/>
							<ellipse class="st14" cx="2506.7" cy="2118.7" rx="36.5" ry="36.6"/>
						</g>
						<rect x="2502.5" y="1997.2" class="st14" width="40.5" height="121.4"/>
						<rect x="2502.5" y="1997.2" class="st9" width="40.5" height="54.7"/>
					</g>
					<rect x="2480.6" y="1997.3" class="st14" width="80.8" height="26.5"/>
				</g>
				<rect x="866.3" y="1713.8" class="st14" width="1883" height="81.1"/>
				<path class="st14" d="M2648.6,1982.6H964.5c-1.9,0-3.5-1.6-3.5-3.5v-224.7h7v221.1h1677v-221.1h7V1979
					C2652.1,1981,2650.5,1982.6,2648.6,1982.6z"/>
				<path class="st6" d="M1009.4,1783.3v78c0,10,8.1,18.2,18.1,18.2h294.6c10,0,18.1-8.1,18.1-18.2v-78c0-8.2-6.6-14.8-14.7-14.8
					h-301.4C1015.9,1768.6,1009.4,1775.2,1009.4,1783.3z M1143.8,1852h-92.6c-6,0-10.8-4.9-10.8-10.8v-32.5c0-6,4.8-10.8,10.8-10.8
					h92.6c6,0,10.8,4.9,10.8,10.8v32.5C1154.6,1847.1,1149.7,1852,1143.8,1852z M1299.7,1852h-92.6c-6,0-10.8-4.9-10.8-10.8v-32.5
					c0-6,4.8-10.8,10.8-10.8h92.6c6,0,10.8,4.9,10.8,10.8v32.5C1310.5,1847.1,1305.7,1852,1299.7,1852z"/>
				<path class="st9" d="M1152.8,2028.7H966.6c-1.2,0-2.1-0.9-2.1-2.1v-14c0-1.2,0.9-2.1,2.1-2.1h186.2c1.2,0,2.1,0.9,2.1,2.1v14
					C1154.9,2027.8,1153.9,2028.7,1152.8,2028.7z"/>
				<path class="st9" d="M2636.1,2028.7h-186.2c-1.2,0-2.1-0.9-2.1-2.1v-14c0-1.2,0.9-2.1,2.1-2.1h186.2c1.2,0,2.1,0.9,2.1,2.1v14
					C2638.2,2027.8,2637.2,2028.7,2636.1,2028.7z"/>
				<g>
					<path class="st6" d="M2460.3,1713c-9-14.6-24.5-23.3-41.6-23.3H1930c-18.6,0-35.3,10.4-43.7,27.1l-78.7,157.2
						c-7.7,15.4-6.9,33.2,2.1,47.8c9,14.6,24.5,23.3,41.6,23.3H2340c18.6,0,35.3-10.4,43.7-27l78.7-157.3
						C2470.1,1745.4,2469.3,1727.6,2460.3,1713z M1973,1906.2c0,9.5-7.7,17.2-17.2,17.2h-103.6c-8.7,0-17.3-3.7-22.6-10.7
						c-6.4-8.5-7.4-19.6-2.7-29l78.7-157.3c4.6-9.3,14.1-15.1,24.4-15.1h25.8c9.5,0,17.2,7.7,17.2,17.2L1973,1906.2L1973,1906.2z
						 M2100.8,1854.9c0,11-8.9,19.9-19.8,19.9h-27c-11,0-19.8-8.9-19.8-19.9v-75c0-11,8.8-19.9,19.8-19.9h27
						c10.9,0,19.8,8.9,19.8,19.9V1854.9z M2226.9,1854.9c0,11-8.9,19.9-19.8,19.9h-27c-10.9,0-19.8-8.9-19.8-19.9v-75
						c0-11,8.9-19.9,19.8-19.9h27c10.9,0,19.8,8.9,19.8,19.9V1854.9z M2443.1,1751l-78.7,157.3c-4.6,9.3-14,15.1-24.4,15.1h-25.8
						c-9.5,0-17.2-7.7-17.2-17.2v-177.6c0-9.5,7.7-17.2,17.2-17.2h103.6c8.7,0,17.2,3.8,22.5,10.7
						C2446.8,1730.6,2447.8,1741.7,2443.1,1751z"/>
					<path class="st14" d="M2260,1737.2h-259c-1.9,0-3.5-1.6-3.5-3.5v-23.2c0-1.9,1.6-3.5,3.5-3.5h259c1.9,0,3.5,1.6,3.5,3.5v23.2
						C2263.5,1735.6,2261.9,1737.2,2260,1737.2z"/>
					<rect x="2032" y="1714.2" class="st40" width="32.4" height="15.8"/>
					<rect x="2083.7" y="1714.2" class="st40" width="32.4" height="15.8"/>
					<rect x="2135.4" y="1714.2" class="st40" width="32.4" height="15.8"/>
					<rect x="2187.1" y="1714.2" class="st40" width="32.4" height="15.8"/>
				</g>
				<rect x="1369.4" y="1730" class="st14" width="58" height="249"/>
				<rect x="1369.4" y="1794.9" class="st9" width="58" height="45.3"/>
			</g>
			
				<rect x="2268.5" y="1306" transform="matrix(0.1063 -0.9943 0.9943 0.1063 701.0388 3448.6572)" class="st41" width="1" height="56.6"/>
		</g>
		<g>
			<path class="st34" d="M2268.8,1451.5l-125.1,4.6c-23.3-33.4-64-46.3-116.8-79.9l-22.2,12.1c0,0,56.4,85.4,133.3,129.4
				c61.5,28.6,146.3,28.6,146.3,28.6L2268.8,1451.5z"/>
			<path class="st33" d="M2425.7,1435.5c-14,21.7-33.8,45.7-58.8,59.4c-41.5,22.8-94.3,33.3-116.5,36.9
				c-24.2-57.7-8.9-82.6-8.9-82.6l95.3-23.2C2336.9,1426,2399.9,1412.8,2425.7,1435.5z"/>
			<path class="st34" d="M2030.3,1370.7c0,0-1.5-28.2-10.8-29.6c-5.1,1.4,1.5,10.8-4.6,12.4s-2.3-21.9-13.2-20.7
				c-10.9,1.1-36.9,21.8,3.6,56.8C2033.3,1401.4,2030.3,1370.7,2030.3,1370.7z"/>
			<path class="st41" d="M2242.7,1449.8l-0.1-1c0.5-0.1,50.1-7.1,71.5-17.4l0.4,0.9C2293,1442.6,2243.2,1449.7,2242.7,1449.8z"/>
			<path class="st42" d="M2455,1458.2c-16,47.9-85.3,78.4-193.6,91.4c0,0-7.7-10.2-10-17.7c22.2-3.6,75-14.1,116.5-36.9
				c25-13.8,44.8-37.7,58.8-59.4c16.3-25.2,24.8-47.4,24.8-47.4C2471.6,1419.5,2459.2,1445.6,2455,1458.2z"/>
			<g>
				<g>
					<path class="st34" d="M2398.1,1342.3l10.2-3.1l36.4-11l52.3-9.3l25.4,64.3l-73.8,25.1c-19.1,6.6-58.1-17-80.6-37.8
						C2371.3,1357.5,2384.1,1347.3,2398.1,1342.3z"/>
					<path class="st43" d="M2466.7,1382.3c0,0-33.4-11.6-58.5-43.1l36.4-11L2466.7,1382.3z"/>
				</g>
				<g>
					<g>
						<path class="st34" d="M2480.5,1258c-33,11.7-66,46.3-52.5,85s64,54.8,109.1,39c45.2-15.8,70.8-59.9,57.3-98.6
							C2580.8,1244.7,2525.3,1228,2480.5,1258z"/>
					</g>
					<path class="st18" d="M2488.7,1253c0,0,24.6-20.4,55,7c-10.1,3.8-24.6,0.5-39.8-3.8c0,0,22.3,29.2,51.2,34.4
						c-9.2,6.4-25.6,3.7-25.6,3.7s5.9,23,31.8,33.1c-19.8,37-24.4,54.6-53.1,60.4c48.8,5.5,67.9,9.2,93.4-9.7
						c36.6-27.1,27.7-88.8,2-123.8C2558.9,1188.9,2505.5,1204.7,2488.7,1253z"/>
					<path class="st34" d="M2528.2,1356.6c-6.4,4.4-8.1,13.2-3.6,19.7c4.4,6.4,13.2,8.1,19.7,3.6c6.4-4.4,8.1-13.2,3.6-19.7
						S2534.6,1352.2,2528.2,1356.6z"/>
					<path class="st23" d="M2467.4,1302.9l-0.1-0.1c-0.2-0.3-5.1-7.2-4-12.2c1.1-4.9,25.5-5.7,32.9-5.8c0.4,0,0.8,0.3,0.8,0.8
						c0,0.4-0.3,0.8-0.8,0.8c-14.7,0.2-30.8,2.1-31.4,4.6c-0.9,4.3,3.7,10.9,3.7,10.9c0.3,0.4,0.2,0.9-0.2,1.1
						C2468.1,1303.2,2467.7,1303.2,2467.4,1302.9z"/>
					<path class="st23" d="M2464.2,1326c-10-9.5-15.2-20.8-15.3-21c-0.2-0.4,0-0.9,0.4-1.1s0.9,0,1.1,0.4c0.1,0.3,13.3,29,38.1,32.3
						c0.4,0.1,0.8,0.5,0.7,0.9s-0.5,0.8-0.9,0.7C2478.4,1336.9,2470.4,1331.8,2464.2,1326z"/>
					<path class="st44" d="M2489.4,1269.4c-2.7,1.8-5.8,2.1-6.8,0.5c-1-1.5,0.4-4.3,3.1-6.1s5.8-2.1,6.8-0.5
						C2493.6,1264.8,2492.2,1267.6,2489.4,1269.4z"/>
					<path class="st44" d="M2517.6,1315.4c-3.2,1.7-6.5,1.7-7.5-0.1c-1-1.8,0.8-4.6,4-6.3c3.2-1.7,6.5-1.7,7.5,0.1
						C2522.5,1310.9,2520.8,1313.7,2517.6,1315.4z"/>
				</g>
			</g>
		</g>
	</g>
	<path class="st34" d="M2041.7,1321.2c0,0-34.3,4.2-34.8,27s31.6-8,31.6-8s3.5,11.4,7.5,5.9c4-5.5,15.1-22.2,7.6-23.8
		C2046.2,1320.6,2041.7,1321.2,2041.7,1321.2z"/>
</g>
</svg>
