<?xml version="1.0" encoding="utf-8"?>
<!-- Generator: Adobe Illustrator 23.0.2, SVG Export Plug-In . SVG Version: 6.00 Build 0)  -->
<svg version="1.1" id="Layer_1" xmlns="http://www.w3.org/2000/svg" xmlns:xlink="http://www.w3.org/1999/xlink" x="0px" y="0px"
	 viewBox="0 0 2000 2000" style="enable-background:new 0 0 2000 2000;" xml:space="preserve">
<style type="text/css">
	.st0{fill:#FFFFFF;}
</style>
<g>
	<path class="st0" d="M873.4,1918c-107.2,0-209.4,0-317,0c0-29.5-1.1-58.6,0.2-87.6c2.6-56.5-17.9-102-58.3-141.3
		c-70.4-68.5-139.5-138.2-208.1-208.4c-16-16.3-30.4-35.2-41.5-55.2c-52.4-94-103.6-188.7-154.5-283.5
		c-6.7-12.5-12.4-27.4-12.5-41.3c-0.8-168.9-0.5-337.9-0.6-506.8c0-30.7,12.6-53.1,41.4-64.7c25.2-10.1,50.3-5.5,66,15.5
		c11,14.8,18.5,36,18.8,54.4c1.6,127.7,0.3,255.5,1.6,383.3c0.2,16.5,6.2,35.9,16.2,48.8c106.7,137.7,214.6,274.4,322.3,411.3
		c4.4,5.6,9.7,10.6,16.8,18.4c15.6-11.8,30.3-22.8,47.5-35.8c-8.1-11.4-14.2-20.8-21.1-29.6c-58.6-74.8-116.3-150.3-176.5-223.8
		c-22.8-27.9-18.6-57.9-12.8-86.8c5.3-26.5,38.8-29,61.1-5.6c45.9,48.1,90.9,97.1,136.3,145.8c79.2,84.9,158,170.2,238,254.4
		c25.5,26.9,37.8,56.3,37.3,93.7c-1.3,103.5-0.5,206.9-0.5,310.4C873.4,1894,873.4,1904.3,873.4,1918z"/>
	<path class="st0" d="M1443.7,1919c-100.4,0-196.3,0-292.2-0.1c-7.1,0-14.3-0.9-23.2-1.5c-0.6-9.9-1.5-18-1.5-26.2
		c-0.1-108.8-1.9-217.6,1.3-326.2c0.8-26,12.2-57.4,29.5-76.4c124.1-136.8,250.7-271.4,377.9-405.5c10.2-10.7,32.7-18.6,45.7-14.8
		c10,2.9,17.2,25.5,20.3,40.4c5.7,27.1-4.2,49.8-22.3,72c-63.9,78.5-125.6,158.9-190.9,242.2c16,13.1,30.8,25.1,48.6,39.6
		c41.8-52.9,81.5-103.1,121.1-153.5c71.8-91.3,144.2-182.1,214.4-274.5c11.6-15.3,18.7-37.9,18.9-57.3
		c1.7-127.7,0.5-255.5,1.1-383.3c0.2-52.5,46.5-84.2,89.9-62.8c23.9,11.8,36.6,31.5,36.6,58.3c0.2,172.1,0.3,344.2-0.4,516.3
		c-0.1,11.8-6,24.4-11.8,35.1c-45.6,84.5-93.1,168-137.3,253.2c-22.7,43.8-51.6,81.3-87,115.4c-61.6,59.3-120.5,121.4-181.8,180.9
		c-39.6,38.4-59.4,83.3-57,138.6C1444.8,1857.4,1443.7,1885.8,1443.7,1919z"/>
	<path class="st0" d="M1000,767.3c-84.1-76.4-165.3-150-246.3-223.7c-33.6-30.5-67.9-60.2-100.3-92
		c-65.5-64.2-83.6-159.9-47.4-242.3c36-81.8,115.4-131.8,204.2-127.8c48,2.2,90,20.5,126.7,51.3c68.4,57.3,56.5,58.6,126,0.4
		c83.2-69.6,194.9-69.6,275.3-0.3c97.7,84.1,99.2,234,2.1,325c-67,62.8-135.6,123.8-203.5,185.6
		C1092.3,683.8,1047.8,724.1,1000,767.3z"/>
	<path class="st0" d="M338,1070.2c-40.8-44.1-71.3-81.6-68.5-143.8c5.7-130.6,1.7-261.6,1.8-392.5c0-8.4-0.4-16.9,0.3-25.3
		c2.3-27.4,21.1-46.3,46.2-47c26.3-0.7,48.1,18.8,48.2,47.9c0.7,166.7,1.3,333.5-0.7,500.2C365,1028.5,348.9,1047,338,1070.2z"/>
	<path class="st0" d="M1671,1068.4c-40.4-32.4-37.8-69.4-37.6-106.6c0.6-143.5,0.2-287,0.3-430.6c0-9.5-0.9-19.2,0.9-28.4
		c5.2-26,21.3-41.5,48.3-40.8c25.5,0.7,40,16.4,45.3,40.8c0.7,3.1,0.6,6.3,0.6,9.5c0,154.1,3.3,308.3-2.5,462.1
		C1725,1006.5,1690.2,1037.4,1671,1068.4z"/>
	<path class="st0" d="M523.6,1041.5c-29.4-16.5-57.9-32.4-92.5-51.8c0.1,1-1.4-7.1-1.4-15.1c-0.2-87.6-0.3-175.2,0-262.8
		c0.1-38.9,18.6-61,49.1-60c29.2,1,45.8,22.2,45.9,60.1c0.2,103.4,0.1,206.8,0,310.2C524.7,1029.1,523.9,1036.1,523.6,1041.5z"/>
	<path class="st0" d="M1570.4,989.1c-35.6,19.7-64.2,35.6-93.8,52c-0.4-5.7-1.3-13.6-1.3-21.5c-0.1-102.4-0.2-204.7,0-307.1
		c0.1-39,18.2-61.3,48.4-60.8c29.2,0.5,46.5,22.1,46.6,59.4C1570.6,806.1,1570.4,900.9,1570.4,989.1z"/>
	<path class="st0" d="M675.6,1214.7c-27.1-29-54.6-57.8-81.1-87.4c-4.3-4.8-6.1-13.4-6.2-20.2c-0.5-41.1-1-82.2,0.2-123.2
		c0.8-27.4,20.8-46.2,45.8-47c25.1-0.7,47.6,17.6,48.1,44.4c1.3,76.6,0.5,153.2,0.5,229.8C680.5,1212.3,678,1213.5,675.6,1214.7z"/>
	<path class="st0" d="M1317.2,1211.2c0-76.6-0.8-153.2,0.5-229.8c0.4-26.7,23-45.8,48.1-44.2c26.9,1.7,44.1,17.4,45.3,43.7
		c2.1,43.1,1,86.3,0.5,129.5c-0.1,5.8-2.2,13-6,17.1c-26.7,29.4-54,58.3-81.1,87.3C1322.1,1213.6,1319.6,1212.4,1317.2,1211.2z"/>
</g>
</svg>
