<?xml version="1.0" encoding="utf-8"?>
<!-- Generator: Adobe Illustrator 23.0.2, SVG Export Plug-In . SVG Version: 6.00 Build 0)  -->
<svg version="1.1" xmlns="http://www.w3.org/2000/svg" xmlns:xlink="http://www.w3.org/1999/xlink" x="0px" y="0px"
	 viewBox="0 0 3710 3710" style="enable-background:new 0 0 3710 3710;" xml:space="preserve">
<style type="text/css">
	.st0{fill:#D9F1FF;}
	.st1{fill:#91B3FA;}
	.st2{fill:url(#SVGID_1_);}
	.st3{fill:url(#SVGID_2_);}
	.st4{fill:url(#SVGID_3_);}
	.st5{opacity:0.48;fill:#FFFFFF;}
	.st6{fill:url(#SVGID_4_);}
	.st7{fill:url(#SVGID_5_);}
	.st8{fill:#01379A;}
	.st9{fill:url(#SVGID_6_);}
	.st10{fill:url(#SVGID_7_);}
	.st11{fill:#069AD3;}
	.st12{fill:url(#SVGID_8_);}
	.st13{fill:url(#SVGID_9_);}
	.st14{fill:url(#SVGID_10_);}
	.st15{fill:url(#SVGID_11_);}
	.st16{fill:url(#SVGID_12_);}
	.st17{fill:url(#SVGID_13_);}
	.st18{fill:url(#SVGID_14_);}
	.st19{fill:url(#SVGID_15_);}
	.st20{fill:url(#SVGID_16_);}
	.st21{fill:url(#SVGID_17_);}
	.st22{fill:url(#SVGID_18_);}
	.st23{fill:url(#SVGID_19_);}
</style>
<g id="Background">
</g>
<g id="Illustration">
	<g>
		<path class="st0" d="M2925.4,2861.1c-57.2,60.2-111.4,99.1-154.2,129.8c-502.9,360.8-1097.9,255.7-1224.4,230
			c-186.8-37.9-547.7-111.2-808.7-418.2C343.3,2338.4,404.8,1606.9,711,1124c56-88.3,351.9-578.6,953.4-657.2
			c364-47.6,788.3,48.4,1095.6,305.8C3405,1312.9,3359.1,2404.6,2925.4,2861.1z"/>
		<path class="st1" d="M2544.1,1687.3c-0.2,0-0.5,0-0.7,0c-7.3-0.4-13.2-6.2-13.4-13.5l-13.6-432l-31.9,213.1
			c-1,7-7.3,12.1-14.4,11.9c-7.2-0.2-13-5.7-13.6-12.8l-27-314.1l-34.8,372.3c-0.6,6.2-5.2,11.2-11.3,12.4
			c-6.1,1.2-12.4-1.8-15.3-7.3l-93.6-177.9h-944l-56.8,308.6c-1.2,6.8-7.3,11.6-14.3,11.5c-7-0.2-12.8-5.3-13.6-12.2l-74-565.3
			l-73,217c-2.1,6.4-8.6,10.3-15.3,9.4c-6.7-0.9-11.9-6.4-12.2-13.1l-15-265.3l-83.4,474.4c-1.1,6.5-6.7,11.3-13.3,11.6
			c-6.6,0.3-12.6-4.1-14.3-10.4l-63.5-240.5l-54.8,107.5c-2.4,4.7-7.3,7.7-12.6,7.7H600.4c-7.8,0-14.1-6.3-14.1-14
			c0-7.7,6.3-14,14.1-14h205.2l67.8-132.9c2.6-5.2,8.3-8.2,14.1-7.6c5.8,0.6,10.7,4.7,12.2,10.4l56.5,214l93.3-531.3
			c1.2-7,7.6-12,14.7-11.6c7.2,0.4,12.9,6.1,13.3,13.2l17.7,314.1l69.2-205.4c2.1-6.2,8.2-10.1,14.8-9.5c6.6,0.6,11.8,5.6,12.7,12.1
			l70.2,536.8l42.6-231.7c1.2-6.6,7.1-11.5,13.9-11.5H2283c5.3,0,10.1,2.9,12.5,7.5l75.4,143.3l45-481.8c0.7-7.2,6.8-12.7,14.1-12.7
			c0,0,0,0,0.1,0c7.3,0,13.4,5.6,14,12.8l30.2,351.5l37.3-249.1c1.1-7.2,7.4-12.3,14.8-11.9c7.3,0.4,13.1,6.3,13.3,13.5l13.2,418.1
			l39.7-294.4c0.9-6.9,6.9-12.1,14-12.1c0,0,0,0,0,0c7.1,0,13.1,5.2,14,12.2l29.5,228.3l27.8-107.5c1.5-6,6.8-10.2,13-10.5
			c6.3-0.3,11.9,3.5,14,9.3l91.5,254.7l95.8-252.5c2.1-5.5,7.3-9.1,13.2-9.1h199.2c7.8,0,14.1,6.3,14.1,14s-6.3,14-14.1,14h-189.4
			l-105.9,279.3c-2.1,5.5-7.4,9-13.3,9.1c-5.9-0.1-11.2-3.8-13.2-9.3l-89-247.6l-34.7,133.9c-1.7,6.5-7.8,10.9-14.6,10.5
			c-6.8-0.4-12.3-5.5-13.1-12.2l-25.2-194.7l-48.2,357.1C2557.1,1682.2,2551.1,1687.3,2544.1,1687.3z"/>
		<path class="st1" d="M2659.3,2753.9c-0.3,0-0.5,0-0.8,0c-7.7-0.4-13.8-6.5-14-14.1l-14.3-452.3l-33.4,223.1
			c-1.1,7.3-7.7,12.7-15.1,12.5c-7.5-0.2-13.6-6-14.3-13.4l-28.3-328.9l-36.4,389.8c-0.6,6.5-5.4,11.8-11.9,13
			c-6.4,1.2-12.9-1.8-16-7.6l-98-186.2H1199.3l-59.4,323.1c-1.3,7.1-7.7,12.2-14.9,12c-7.3-0.2-13.4-5.6-14.3-12.7l-77.4-591.9
			l-76.5,227.2c-2.2,6.7-9,10.8-16,9.9c-7-0.9-12.4-6.7-12.8-13.7l-15.7-277.8L825,2562.5c-1.2,6.8-7,11.8-14,12.1
			c-6.9,0.3-13.2-4.3-14.9-10.9l-66.4-251.8l-57.4,112.6c-2.5,4.9-7.6,8-13.2,8H544.6c-8.2,0-14.8-6.5-14.8-14.6
			c0-8.1,6.6-14.6,14.8-14.6h105.4l71-139.1c2.8-5.4,8.7-8.6,14.8-8c6.1,0.6,11.2,5,12.7,10.8l59.1,224.1l97.7-556.2
			c1.3-7.3,7.9-12.5,15.4-12.1c7.5,0.4,13.5,6.4,13.9,13.8l18.6,328.9l72.4-215.1c2.2-6.5,8.6-10.6,15.5-9.9
			c6.9,0.7,12.4,5.9,13.2,12.7l73.5,562l44.6-242.6c1.3-7,7.4-12,14.5-12h1198.9c5.5,0,10.6,3,13.1,7.9l78.9,150l47.1-504.5
			c0.7-7.5,7.1-13.3,14.7-13.3c0,0,0,0,0.1,0c7.7,0,14,5.8,14.7,13.4l31.6,368l39.1-260.8c1.1-7.5,7.7-12.9,15.5-12.5
			c7.6,0.4,13.7,6.6,13.9,14.1l13.8,437.8l41.6-308.2c1-7.3,7.2-12.7,14.7-12.7c0,0,0,0,0,0c7.4,0,13.7,5.5,14.6,12.8l30.9,239
			l29.2-112.5c1.6-6.2,7.2-10.7,13.7-11c6.6-0.3,12.4,3.7,14.6,9.7l95.8,266.7l100.3-264.4c2.2-5.7,7.7-9.5,13.8-9.5h128.8
			c8.2,0,14.8,6.5,14.8,14.6c0,8.1-6.6,14.6-14.8,14.6h-118.5L2937,2692.2c-2.2,5.8-7.8,9.4-14,9.5c-6.2-0.1-11.7-3.9-13.8-9.7
			l-93.2-259.2l-36.3,140.1c-1.8,6.8-8.2,11.4-15.2,11c-7.1-0.4-12.9-5.8-13.8-12.7l-26.4-203.8l-50.4,373.9
			C2672.9,2748.5,2666.6,2753.9,2659.3,2753.9z"/>
		<g>
			<linearGradient id="SVGID_1_" gradientUnits="userSpaceOnUse" x1="1604.3" y1="2801.6663" x2="2145.6653" y2="985.3105">
				<stop  offset="0" style="stop-color:#E1473D"/>
				<stop  offset="1" style="stop-color:#E9605A"/>
			</linearGradient>
			<path class="st2" d="M1018.6,1868.7c0,0-117.3,289.7,15.7,455.4c132.9,165.7,510.4,395.4,775.5,570.1
				c265.1,174.7,448.8,158.3,545.6,91c96.8-67.3,174.7-360.2,179.6-466.9c4.9-106.7,99.1-977.2-261.1-1056.8c0,0,11.5-42.7,57.4-23
				c46,19.7,107.5,66.4,107.5,66.4s187.9-137.1,95.1-285.5c0,0-363.5-135.3-511.2-123.8c-147.7,11.5-338,297.1-450.4,384.9
				C1460,1568.3,1088.3,1769.4,1018.6,1868.7z"/>
			<linearGradient id="SVGID_2_" gradientUnits="userSpaceOnUse" x1="1931.3286" y1="1455.3262" x2="2260.1951" y2="165.1602">
				<stop  offset="0" style="stop-color:#E1473D"/>
				<stop  offset="1" style="stop-color:#E9605A"/>
			</linearGradient>
			<path class="st3" d="M1557.6,1324.6c0,0,122.7,147.7,214,169.8c91.3,22.1,105.2-73.9,119.2-122.3
				c13.9-48.4,93.5-408.6,276.4-343.8l22.2,43.5c0,0,114.9,96.8,249.4,4.9c0,0,61.5-286.4-105.9-371.7
				C2165.4,619.7,1720.7,483.6,1557.6,1324.6z"/>
			<linearGradient id="SVGID_3_" gradientUnits="userSpaceOnUse" x1="1252.835" y1="2794.0791" x2="1387.7605" y2="905.1134">
				<stop  offset="0" style="stop-color:#E1473D"/>
				<stop  offset="1" style="stop-color:#E9605A"/>
			</linearGradient>
			<path class="st4" d="M1523,691.2c0,0-137,383.2-247.7,498.9c-110.7,115.7-372.4,329.9-389.6,750.8
				c-17.2,420.9,89.5,283.1,133.8,179.7c44.3-103.4,437.3-417.7,616.9-503.9c179.7-86.2,178-209.3,41-254.4
				c-137-45.1-128.8-96-60.8-270.8c68.1-174.8,182.1-377.5,182.1-377.5S1747.8,515.6,1523,691.2z"/>
			<path class="st5" d="M1803.8,1630.6c0,0-424.2,165-348.6,734.4c75.6,569.4,64,183.8,28.7,12.3c-35.3-171.5,21.3-303.6,73.8-315.1
				c52.5-11.5-61.5,381.5,41.1,507.1c102.6,125.5-32.8-129.6,1.6-352.8C1632.1,2010.9,1579.8,1820.2,1803.8,1630.6z"/>
			<path class="st5" d="M2077.8,1530.5c0,0,295.4-70.6,358.6,289.6c63.2,360.2-80.3,536.6-113.9,726.2
				c-33.6,189.5,61.5-286.4,71.3-452.1c9.8-165.7,49.2-305.2-57.5-357.7c-106.7-52.5-232.2,288-331.4,361.1
				c-99.3,73-32.8-34.5,96-224C2229.6,1683.9,2461,1572.2,2077.8,1530.5z"/>
		</g>
		<g>
			
				<linearGradient id="SVGID_4_" gradientUnits="userSpaceOnUse" x1="174.0684" y1="3100.7148" x2="-429.7836" y2="3757.5371" gradientTransform="matrix(-1 0 0 1 2745.8667 0)">
				<stop  offset="0" style="stop-color:#09005D"/>
				<stop  offset="1" style="stop-color:#1A0F91"/>
			</linearGradient>
			<path class="st6" d="M2762.7,3149.6c0,0,6.3,35.4,9.3,70.4c1.2,13.7-9.4,25.6-23.1,26.2c-46.7,1.9-146.5,5.7-182.3,4.1
				c-5.4-0.2-8.9-5.8-6.9-10.8l0,0c1.7-4.2,4.9-7.6,9-9.5l164.9-75.8L2762.7,3149.6z"/>
			
				<linearGradient id="SVGID_5_" gradientUnits="userSpaceOnUse" x1="-21.9324" y1="3149.4983" x2="31.704" y2="3149.4983" gradientTransform="matrix(-1 0 0 1 2745.8667 0)">
				<stop  offset="0" style="stop-color:#FEBBBA"/>
				<stop  offset="1" style="stop-color:#FF928E"/>
			</linearGradient>
			<path class="st7" d="M2767.8,3128.8l-5,42.3c0,0-28.9,13.4-48.6-1.7l12-47.2L2767.8,3128.8z"/>
			<path class="st8" d="M2764,2332.7c2.2,11.1,11.6,551.8-46.2,794.2c-0.9,4,1.1,8,4.8,9.6c8.9,3.6,26.2,8.9,47.1,9.6
				c6.5,0.2,12.2-4,14.1-10.2c16.5-56.2,95.7-337.9,106-607.1c11.5-300.7,0-10.2,0-10.2l-6.8-185.9L2764,2332.7z"/>
			
				<linearGradient id="SVGID_6_" gradientUnits="userSpaceOnUse" x1="38.6036" y1="2976.1758" x2="-565.2474" y2="3632.9968" gradientTransform="matrix(-1 0 0 1 2745.8667 0)">
				<stop  offset="0" style="stop-color:#09005D"/>
				<stop  offset="1" style="stop-color:#1A0F91"/>
			</linearGradient>
			<path class="st9" d="M2952.4,3168.1c0,0,10,17.9,19.6,65.4c1.7,8.6-4.3,16.8-13,17.6c-15.4,1.5-39.1,3.5-58.1,3.3
				c-8.8-0.1-15.6-7.7-14.5-16.4c2.1-17.3,8.7-45.8,28.9-67.9L2952.4,3168.1z"/>
			
				<linearGradient id="SVGID_7_" gradientUnits="userSpaceOnUse" x1="-215.2402" y1="3146.7476" x2="-168.9295" y2="3146.7476" gradientTransform="matrix(-1 0 0 1 2745.8667 0)">
				<stop  offset="0" style="stop-color:#FEBBBA"/>
				<stop  offset="1" style="stop-color:#FF928E"/>
			</linearGradient>
			<path class="st10" d="M2961.1,3113.6l-11.7,64c0,0-11.6,8.6-34.6,2.4l5.6-68.9L2961.1,3113.6z"/>
			<path class="st8" d="M2992.8,2349.3c47.3,285.3-10.3,705.2-29.7,787.4c-1.2,5-5.2,8.9-10.3,9.7c-8.7,1.4-22.9,2.6-37-1.5
				c-4.8-1.4-8.2-5.8-8.4-10.8c-2.6-66.4,2.1-474.3-42-635.5c-2.2-8.2-7.2-15.3-14.1-20.2l-85.5-60.8l-6.6-98.3L2992.8,2349.3z"/>
			<g>
				<path class="st11" d="M2691.6,1808.7c141.7-2.3,298,37.2,298,37.2c42.2,246.4,7.4,530.7,7.4,530.7
					c-109.7,28.8-233.4-17.6-233.4-17.6c-18.2-103-103.3-392.9-103.3-392.9c-69.2-8.6-126.3-28.6-173.2-55
					c35.8-41.5,52.7-94.4,60-125.6C2597.2,1801.1,2647.9,1809.4,2691.6,1808.7z"/>
				<path class="st11" d="M2273.1,1600c13.9-16.8,31.5-8.9,31.5-8.9c20.8,88.1,130.2,159.5,242.5,194.4
					c-7.3,31.2-24.2,84.1-60,125.6C2300.6,1806.3,2273.1,1600,2273.1,1600z"/>
			</g>
			<g>
				
					<linearGradient id="SVGID_8_" gradientUnits="userSpaceOnUse" x1="10035.2461" y1="1702.4894" x2="10215.7813" y2="2113.248" gradientTransform="matrix(1 0 0 1 -7701.9111 0)">
					<stop  offset="0" style="stop-color:#FEBBBA"/>
					<stop  offset="1" style="stop-color:#FF928E"/>
				</linearGradient>
				<path class="st12" d="M2302.2,1541.7c-11.7-16-27.8-33.5-42.9-48.8c-6.6,0-16.5,6.9-16.5,6.9c-5.7,10.3-12.6,18.9-15.9,31.4
					c-2.5,9.4-1,19.5,3.8,28c4.8,8.6,11.3,19.8,17.4,28.5c11.6,16.5,28.2,16.7,28.2,16.7c-1.5,4.6,15.4,11.7,25.3-7.3
					C2302.1,1587.9,2307.6,1549,2302.2,1541.7z"/>
			</g>
			<path class="st11" d="M2935.2,1983.1l54.3-137.2c0,0,132.3,89.9,154.1,203.9c-25,1.8-70.5,8.3-115,30.8
				C3018.9,2026.8,2935.2,1983.1,2935.2,1983.1z"/>
			
				<linearGradient id="SVGID_9_" gradientUnits="userSpaceOnUse" x1="-400.8337" y1="2138.3191" x2="-54.0573" y2="2138.3191" gradientTransform="matrix(-1 0 0 1 2745.8667 0)">
				<stop  offset="0" style="stop-color:#FEBBBA"/>
				<stop  offset="1" style="stop-color:#FF928E"/>
			</linearGradient>
			<path class="st13" d="M2819.6,2112.2c0,0,148.6,84,198.7,12.3c10.4-14.9,12.9-29.7,10.3-43.8c44.5-22.5,90-29,115-30.8
				c6.6,34.4,3.1,70.9-17.1,107.9c-87.8,160.6-326.7-8.9-326.7-8.9L2819.6,2112.2z"/>
			
				<linearGradient id="SVGID_10_" gradientUnits="userSpaceOnUse" x1="-134.5571" y1="1767.5924" x2="2.5469" y2="1767.5924" gradientTransform="matrix(-1 0 0 1 2745.8667 0)">
				<stop  offset="0" style="stop-color:#FEBBBA"/>
				<stop  offset="1" style="stop-color:#FF928E"/>
			</linearGradient>
			<path class="st14" d="M2835.1,1693.6l45.1,130.4c0.7,2.2-0.1,4.6-2.1,5.7c-12.3,6.8-56.6,26.4-109.9-7.4
				c-5.6-3.5-9.3-9.3-10.2-15.8l-14.6-112.8H2835.1z"/>
			<g>
				
					<linearGradient id="SVGID_11_" gradientUnits="userSpaceOnUse" x1="-5452.144" y1="-1537.5883" x2="-5503.3784" y2="-1706.5718" gradientTransform="matrix(-0.746 -0.6659 -0.6659 0.746 -2380.4685 -803.1727)">
					<stop  offset="0" style="stop-color:#FEBBBA"/>
					<stop  offset="1" style="stop-color:#FF928E"/>
				</linearGradient>
				<path class="st15" d="M2737,1572.9c0,0-49.5,93.2-43.2,130.8c6.3,37.6,67.7,34.9,121.3,4.4l37.4-100.6L2737,1572.9z"/>
				
					<linearGradient id="SVGID_12_" gradientUnits="userSpaceOnUse" x1="-5498.3677" y1="-1832.016" x2="-5455.5103" y2="-1587.5714" gradientTransform="matrix(-0.746 -0.6659 -0.6659 0.746 -2380.4685 -803.1727)">
					<stop  offset="0" style="stop-color:#09005D"/>
					<stop  offset="1" style="stop-color:#1A0F91"/>
				</linearGradient>
				<path class="st16" d="M2812.7,1658.7c-2.2-1-3-3.6-1.7-5.6c4-6.1,11.4-18.4,13.8-29.2c0,0,8.9-5.7-22.7-13.3
					c-31.5-7.6-78.6-19.3-88.5-46.1c-9.6-26.2,15.7-92,56.1-39.6c1.5,2,4.6,2,6.1,0c6.6-8.6,24-26.5,48.2-15.7
					c22.6,10.2,25.2,26.7,24.9,35.1c-0.1,2.5,2.1,4.4,4.5,3.9c11.4-2.2,38.9-4.1,51.7,24.1c10.6,23.2,3.7,36.3-2.6,42.8
					c-2,2.1-1.1,5.5,1.6,6.4c7.5,2.3,17.2,8.7,16.3,26.3c-1.3,24.4-28.6,22.2-36.3,21.1c-1.3-0.2-2.6,0.3-3.4,1.2
					c-6.6,7.4-36.6,38.6-69,42.4c-2.8,0.3-5-2.4-4.1-5.1l14-40.8c0.7-1.9-0.3-4-2.1-4.8L2812.7,1658.7z"/>
				
					<linearGradient id="SVGID_13_" gradientUnits="userSpaceOnUse" x1="-5504.5186" y1="-1538.3757" x2="-5550.6143" y2="-1690.411" gradientTransform="matrix(-0.746 -0.6659 -0.6659 0.746 -2380.4685 -803.1727)">
					<stop  offset="0" style="stop-color:#FEBBBA"/>
					<stop  offset="1" style="stop-color:#FF928E"/>
				</linearGradient>
				<path class="st17" d="M2807.1,1664.5c0,0,35.2-24.2,37.8-3.8c2.6,20.4-31.7,29.5-48.7,21.9L2807.1,1664.5z"/>
			</g>
			<linearGradient id="SVGID_14_" gradientUnits="userSpaceOnUse" x1="2699.4829" y1="1747.3403" x2="2821.3923" y2="1747.3403">
				<stop  offset="0" style="stop-color:#2B3582"/>
				<stop  offset="1" style="stop-color:#150E42"/>
			</linearGradient>
			<path class="st18" d="M2730.6,1828c-11.4,0-19.9-4-25.1-12c-17.2-26,8-86,9-88.5c0.7-1.7,2.7-2.5,4.4-1.8
				c1.7,0.7,2.5,2.7,1.8,4.4c-0.3,0.6-24.9,59.1-9.6,82.2c4,6,10.4,8.9,19.5,8.9c70,0,83.9-150,84-151.5c0.2-1.9,1.9-3.2,3.7-3.1
				c1.9,0.2,3.2,1.8,3.1,3.7c0,0.4-3.5,39.5-16.1,78.1C2788.3,1800.5,2762.5,1828,2730.6,1828z"/>
			<linearGradient id="SVGID_15_" gradientUnits="userSpaceOnUse" x1="2256.7383" y1="1751.7352" x2="2721.0076" y2="1751.7352">
				<stop  offset="0" style="stop-color:#2B3582"/>
				<stop  offset="1" style="stop-color:#150E42"/>
			</linearGradient>
			<path class="st19" d="M2569.5,1930.9c-10.6,0-22-0.7-34.2-2.1c-94.6-11.1-172.9-75.7-226.1-186.7
				c-40.1-83.5-52.3-164.8-52.4-165.7c-0.3-1.8,1-3.6,2.8-3.8c1.9-0.3,3.6,1,3.8,2.8c0.1,0.8,12.2,81.3,51.9,163.9
				c36.4,75.8,104.3,169.1,220.8,182.8c65.8,7.7,117.5-6.8,149.4-42.1c24.1-26.6,28.7-55.6,28.8-55.9c0.3-1.8,2-3.1,3.8-2.8
				c1.8,0.3,3.1,2,2.8,3.8C2720.8,1826.3,2703.2,1930.9,2569.5,1930.9z"/>
			<g>
				<linearGradient id="SVGID_16_" gradientUnits="userSpaceOnUse" x1="2720.553" y1="1959.364" x2="2161.8274" y2="2868.918">
					<stop  offset="0" style="stop-color:#09005D"/>
					<stop  offset="1" style="stop-color:#1A0F91"/>
				</linearGradient>
				<path class="st20" d="M2837.4,2218.4l-81.1-283.2c-0.9-3.2-3.7-5.6-7-5.9c-14.7-1.7-57.3-6.5-106.4-10.7
					c-59.2-5-128-9.1-169.1-5.6c-5.8,0.5-9.4,6.7-6.8,11.9c23.4,47.3,119.5,239.6,167.6,302.5c1.6,2.1,4.1,3.3,6.7,3.3l188.1-1.8
					C2835,2228.9,2838.9,2223.7,2837.4,2218.4z"/>
				<path class="st1" d="M2634.5,1894l-58.8-9.8c-3.1-0.5-5.7,2.5-4.7,5.5l5.8,17.6c0.5,1.5,1.8,2.6,3.4,2.9l56.6,7.6
					c2.9,0.4,5.3-2.3,4.7-5.1l-3.6-15.4C2637.6,1895.6,2636.2,1894.3,2634.5,1894z"/>
				<path class="st1" d="M2678.6,1943.8l-4.8-25.2c-0.5-2.5-2.6-4.4-5.1-4.7l-118.7-12c-4-0.4-7.2,3.3-6.3,7.2l7.6,31.4
					c0.6,2.5,2.8,4.3,5.4,4.5l116,5.8C2676.3,1950.9,2679.3,1947.5,2678.6,1943.8z"/>
				
					<linearGradient id="SVGID_17_" gradientUnits="userSpaceOnUse" x1="-79.8035" y1="2101.9597" x2="28.2319" y2="2101.9597" gradientTransform="matrix(-1 0 0 1 2745.8667 0)">
					<stop  offset="0" style="stop-color:#FEBBBA"/>
					<stop  offset="1" style="stop-color:#FF928E"/>
				</linearGradient>
				<path class="st21" d="M2817.8,2150c0,0,11.3-46.4,6.7-62.9c-4.6-16.5-13.4-37.7-42.8-33c-29.4,4.7-64.1,17.1-64.1,17.1
					s1.8,21.5,24.1,14.5l-13.9,10.7c0,0,2,17.2,20.9,8l-12.9,14.2c0,0,8.1,14.1,22,5.1C2771.8,2114.7,2778.4,2155.6,2817.8,2150z"/>
			</g>
			<linearGradient id="SVGID_18_" gradientUnits="userSpaceOnUse" x1="2229.864" y1="1555.7683" x2="2290.3599" y2="1555.7683">
				<stop  offset="0" style="stop-color:#09005D"/>
				<stop  offset="1" style="stop-color:#1A0F91"/>
			</linearGradient>
			<path class="st22" d="M2290.4,1555.8c0,24.1-13.5,43.7-30.2,43.7c-16.7,0-30.2-19.6-30.2-43.7c0-24.1,13.5-43.7,30.2-43.7
				C2276.8,1512.1,2290.4,1531.6,2290.4,1555.8z"/>
			
				<linearGradient id="SVGID_19_" gradientUnits="userSpaceOnUse" x1="1004.228" y1="1765.1608" x2="1080.9556" y2="1647.192" gradientTransform="matrix(-0.9769 0.2135 0.2135 0.9769 2888.0393 -355.333)">
				<stop  offset="0" style="stop-color:#FEBBBA"/>
				<stop  offset="1" style="stop-color:#FF928E"/>
			</linearGradient>
			<path class="st23" d="M2254.7,1541.9l28.7,15.2l12.1,18.8l-16.3,28.6c0,0-16.1-38.9-23.4-46.5
				C2248.3,1550.4,2250.2,1545.6,2254.7,1541.9z"/>
		</g>
	</g>
</g>
</svg>
