<svg xmlns="http://www.w3.org/2000/svg" width="150.795" height="77.16" viewBox="0 0 150.795 77.16">
  <g id="Logo" transform="translate(-124.3 -354.9)" opacity="0.4">
    <g id="Group_8" data-name="Group 8" transform="translate(124.3 354.9)">
      <g id="Group_3" data-name="Group 3" transform="translate(0 0)">
        <path id="Path_2" data-name="Path 2" d="M144.877,398.5H124.3V364.2h19.775v6.289H132.024v7.64h11.228V384.4H132.024v7.83h12.853Z" transform="translate(-124.3 -362.237)" fill="#fff"/>
        <path id="Path_3" data-name="Path 3" d="M382.8,432.894h-7.133v-3.525h-.106a7.988,7.988,0,0,1-7.3,4.115,7.632,7.632,0,0,1-5.614-2.026,7.222,7.222,0,0,1-2.047-5.4q0-7.123,8.442-8.231l6.648-.886c0-2.68-1.456-4.01-4.348-4.01a14.72,14.72,0,0,0-8.315,2.617v-5.7a18.74,18.74,0,0,1,4.327-1.435,22.22,22.22,0,0,1,4.981-.612q10.479,0,10.489,10.447v14.647Zm-7.091-9.94v-1.646l-4.453.57c-2.448.317-3.693,1.435-3.693,3.335a2.688,2.688,0,0,0,.908,2.11,3.487,3.487,0,0,0,2.427.823,4.426,4.426,0,0,0,3.461-1.477A5.228,5.228,0,0,0,375.711,422.953Z" transform="translate(-310.729 -396.635)" fill="#fff"/>
        <path id="Path_4" data-name="Path 4" d="M512.732,391.158h-7.556v-3.377h-.105a8.489,8.489,0,0,1-7.577,3.968,9.235,9.235,0,0,1-7.387-3.25c-1.857-2.153-2.807-5.171-2.807-9.054q0-6.078,3.081-9.729a10.013,10.013,0,0,1,8.083-3.651c3.166,0,5.361,1.14,6.606,3.4h.105V354.9h7.556Zm-7.429-11.9v-1.836a5.763,5.763,0,0,0-1.393-3.968,4.89,4.89,0,0,0-7.534.4,9.1,9.1,0,0,0-1.414,5.424,7.949,7.949,0,0,0,1.372,4.981,4.831,4.831,0,0,0,7.513-.084A7.83,7.83,0,0,0,505.3,379.255Z" transform="translate(-410.689 -354.9)" fill="#fff"/>
        <path id="Path_5" data-name="Path 5" d="M644.51,407.058a11.182,11.182,0,0,1-5.044.886c-5.318,0-8-2.765-8-8.294V388.422H627.5V382.85h3.968v-5.3L639,375.4v7.45h5.508v5.572H639v9.9c0,2.554,1.013,3.82,3.039,3.82a5.109,5.109,0,0,0,2.469-.7Z" transform="translate(-521.299 -371.074)" fill="#fff"/>
        <path id="Path_6" data-name="Path 6" d="M739.313,410.542l-9.962,26.445c-2.385,6.374-5.994,9.539-10.806,9.539a14.228,14.228,0,0,1-4.516-.612v-6.036a6.346,6.346,0,0,0,3.271.886,4.11,4.11,0,0,0,4.073-2.744l1.287-3.039L712.7,410.521h8.379l4.58,14.9a19.751,19.751,0,0,1,.675,3.271h.105a23.457,23.457,0,0,1,.781-3.229l4.622-14.963h7.471Z" transform="translate(-588.518 -398.766)" fill="#fff"/>
      </g>
      <g id="Group_6" data-name="Group 6" transform="translate(12.911 9.486)">
        <g id="Group_4" data-name="Group 4" transform="translate(0 35.341)">
          <path id="Path_7" data-name="Path 7" d="M206.08,574.919V567.3h4.052v7.535a9.1,9.1,0,0,0,.971.084c3.1,0,6.184.021,9.286-.021a1.818,1.818,0,0,0,1.245-.654,5.029,5.029,0,0,1,5.656-1.984,4.978,4.978,0,0,1-.021,9.476,5.05,5.05,0,0,1-5.656-2,1.818,1.818,0,0,0-1.245-.654c-7.492-.042-14.985-.063-22.456-.021a8.21,8.21,0,1,0,7.914,10.088,12.361,12.361,0,0,0,.232-2.511c.042-1.393,0-2.807,0-4.284h4.052c0,3.609.485,7.281-1.393,10.679a11.844,11.844,0,0,1-6.88,5.888,11.711,11.711,0,0,1-13-3.314,11.573,11.573,0,0,1-2.3-13.043,11.741,11.741,0,0,1,10.975-7.577c2.427-.127,4.854-.021,7.281-.021A11.676,11.676,0,0,1,206.08,574.919Zm19.691.317a1.757,1.757,0,0,0-1.71,1.773,1.731,1.731,0,1,0,1.71-1.773Z" transform="translate(-185.476 -567.3)" fill="#fff"/>
        </g>
        <g id="Group_5" data-name="Group 5" transform="translate(9.808)">
          <path id="Path_8" data-name="Path 8" d="M247.853,426.976c0,1.055.021,2.11,0,3.166a3.072,3.072,0,1,1-6.142,0c-.021-1.013.3-2.237-.148-3-.4-.675-1.688-.781-2.554-1.182a11.787,11.787,0,0,1-6.2-7.366,24.493,24.493,0,0,1-.8-3.482,2.83,2.83,0,0,1,.8-2.512,2.494,2.494,0,0,0,.57-1.351c.063-2.385.021-4.791.021-7.176,0-2.237.95-3.208,3.124-3.4a2.872,2.872,0,0,0,1.119-.464A1.908,1.908,0,0,1,240.213,403a2,2,0,0,1-2.6.274,2.689,2.689,0,0,0-1.71-.317c-.232.042-.422.865-.443,1.351-.042,2.174,0,4.369-.042,6.543,0,.612.084,1.034.739,1.309a3.084,3.084,0,0,1,1.562,2.364,17,17,0,0,0,1.013,3.081c1.33,2.723,3.651,3.757,6.585,3.609a6.35,6.35,0,0,0,5.888-4.369c.317-.781.359-1.667.7-2.427a18.837,18.837,0,0,1,1.393-2.237,2.527,2.527,0,0,0,.549-1.013q.063-3.641,0-7.281c0-.338-.19-.908-.4-.95a1.629,1.629,0,0,0-1.2.232,1.988,1.988,0,0,1-2.68-.127,1.9,1.9,0,0,1,2.68-2.7,2.169,2.169,0,0,0,.95.359,2.831,2.831,0,0,1,2.765,3.1c.021,2.364.021,4.706,0,7.07a2.134,2.134,0,0,0,.7,1.731,2.851,2.851,0,0,1,.908,2c-.443,4.791-2.258,8.843-6.733,11.228C249.922,426.28,248.93,426.554,247.853,426.976Z" transform="translate(-231.951 -399.845)" fill="#fff"/>
        </g>
      </g>
      <g id="Group_7" data-name="Group 7" transform="translate(63.568 50.378)">
        <path id="Path_9" data-name="Path 9" d="M443.587,613.492v-5.93a4.271,4.271,0,0,0-.781-2.891,3.35,3.35,0,0,0-2.575-.865,10.694,10.694,0,0,0-1.984.19v9.5h-4.411c-2.934,0-5.086-.591-6.416-1.752a6.518,6.518,0,0,1-1.921-5.15,9.278,9.278,0,0,1,.781-3.947l2.322-.4a9.042,9.042,0,0,0-.908,4.094,5.372,5.372,0,0,0,1.33,4.073c.971.907,2.659,1.351,5.044,1.351h2.026v-9.223a20.95,20.95,0,0,1,4.348-.443,4.541,4.541,0,0,1,5.3,5.192v4.5h5.044v-9.455h2.174v11.165Zm-11.038,4.432a1.215,1.215,0,0,1-.886.38,1.227,1.227,0,0,1-.908-.38,1.258,1.258,0,0,1-.359-.908,1.281,1.281,0,0,1,.359-.886,1.227,1.227,0,0,1,.908-.38,1.281,1.281,0,0,1,.886.359,1.149,1.149,0,0,1,.38.886A1.241,1.241,0,0,1,432.549,617.924Zm3.5,0a1.137,1.137,0,0,1-.865.38,1.2,1.2,0,0,1-.908-.38,1.228,1.228,0,0,1-.38-.908,1.215,1.215,0,0,1,.38-.886,1.261,1.261,0,0,1,.908-.38,1.2,1.2,0,0,1,.865.359,1.209,1.209,0,0,1,.359.886A1.308,1.308,0,0,1,436.052,617.924Zm12.79-18.129a1.241,1.241,0,0,1-.38-.929,1.215,1.215,0,0,1,.38-.886,1.15,1.15,0,0,1,.886-.38,1.226,1.226,0,0,1,1.245,1.245,1.258,1.258,0,0,1-.359.908,1.149,1.149,0,0,1-.886.38A1.117,1.117,0,0,1,448.842,599.795Zm3.5,0a1.241,1.241,0,0,1-.38-.929,1.215,1.215,0,0,1,.38-.886,1.15,1.15,0,0,1,.886-.38,1.244,1.244,0,0,1,.886.359,1.215,1.215,0,0,1,.38.886,1.227,1.227,0,0,1-.38.908,1.215,1.215,0,0,1-.886.38A1.145,1.145,0,0,1,452.346,599.795Z" transform="translate(-425.5 -596.756)" fill="#fff"/>
        <path id="Path_10" data-name="Path 10" d="M571.3,627.6h7.619a8.691,8.691,0,0,0-1.435-5.171,8.551,8.551,0,0,0-4.538-2.87l.549-1.857a9.5,9.5,0,0,1,7.6,10.447v1.182H571.3Z" transform="translate(-540.529 -612.614)" fill="#fff"/>
        <path id="Path_11" data-name="Path 11" d="M635.4,593.6h2.174v15.006h2.617v1.731H635.4Z" transform="translate(-591.101 -593.6)" fill="#fff"/>
        <path id="Path_12" data-name="Path 12" d="M656.4,629.413h3.461V620h2.174v9.413h3.693v1.731H656.4Zm2.912,6.184a1.215,1.215,0,0,1-.886.38,1.149,1.149,0,0,1-.886-.38,1.258,1.258,0,0,1-.359-.907,1.281,1.281,0,0,1,.359-.886,1.149,1.149,0,0,1,.886-.38,1.244,1.244,0,0,1,.886.359,1.149,1.149,0,0,1,.38.886A1.326,1.326,0,0,1,659.313,635.6Zm3.5,0a1.149,1.149,0,0,1-.886.38,1.277,1.277,0,0,1,0-2.554,1.281,1.281,0,0,1,.886.359,1.209,1.209,0,0,1,.359.886A1.308,1.308,0,0,1,662.816,635.6Z" transform="translate(-607.669 -614.428)" fill="#fff"/>
        <path id="Path_13" data-name="Path 13" d="M699,628.466h4.58a4.19,4.19,0,0,1-2.533-4.2,5.271,5.271,0,0,1,1.456-3.841,5.83,5.83,0,0,1,4.411-1.625,8.673,8.673,0,0,1,3.081.528l-.4,1.752a6.881,6.881,0,0,0-2.807-.57,3.451,3.451,0,0,0-2.554.992,3.667,3.667,0,0,0-.992,2.7,3.574,3.574,0,0,0,1.477,3.039,7.933,7.933,0,0,0,4.812,1.245h1.942v1.731H699Z" transform="translate(-641.278 -613.481)" fill="#fff"/>
      </g>
    </g>
  </g>
</svg>
